<svg width="14" height="9" viewBox="0 0 14 9" fill="none" xmlns="http://www.w3.org/2000/svg">
<path d="M6.95638 8.49898C6.67063 8.48946 6.39824 8.37438 6.1909 8.17543L0.358664 2.52751C0.0577753 2.23581 -0.0658818 1.80442 0.0340156 1.39582C0.134092 0.987244 0.44247 0.663359 0.843281 0.546492C1.24409 0.429449 1.67629 0.536971 1.97719 0.82867L7 5.68992L12.0228 0.828671C12.3237 0.536971 12.7559 0.42945 13.1567 0.546493C13.5575 0.663368 13.8659 0.987233 13.966 1.39582C14.0659 1.8044 13.9422 2.23579 13.6413 2.52751L7.80909 8.17543C7.57997 8.39556 7.27207 8.51227 6.95605 8.49898L6.95638 8.49898Z" fill="white"/>
</svg>
