<svg width="13" height="8" viewBox="0 0 13 8" fill="none" xmlns="http://www.w3.org/2000/svg">
<path d="M6.54362 7.49898C6.82937 7.48946 7.10176 7.37438 7.3091 7.17543L12.1413 2.52751C12.4422 2.23581 12.5659 1.80442 12.466 1.39582C12.3659 0.987246 12.0575 0.66336 11.6567 0.546493C11.2559 0.42945 10.8237 0.536973 10.5228 0.828671L6.5 4.68992L2.4772 0.828671C2.17631 0.536971 1.74409 0.42945 1.34329 0.546493C0.942484 0.663368 0.634129 0.987233 0.534023 1.39582C0.434108 1.8044 0.557781 2.23579 0.85867 2.52751L5.69091 7.17543C5.92003 7.39556 6.2276 7.51227 6.54362 7.49898Z" fill="#2361A9"/>
</svg>
