<svg width="14" height="8" viewBox="0 0 14 8" fill="none" xmlns="http://www.w3.org/2000/svg">
<path d="M7.04362 7.99898C7.32937 7.98946 7.60176 7.87439 7.8091 7.67543L13.6413 2.02751C13.9422 1.73581 14.0659 1.30442 13.966 0.895825C13.8659 0.487246 13.5575 0.16336 13.1567 0.0464934C12.7559 -0.0705496 12.3237 0.0369726 12.0228 0.328671L7 5.18992L1.9772 0.328671C1.67631 0.0369709 1.24409 -0.0705496 0.843287 0.0464934C0.442484 0.163368 0.134129 0.487233 0.0340227 0.895825C-0.0658918 1.3044 0.0577811 1.73579 0.35867 2.02751L6.19091 7.67543C6.42003 7.89556 6.72793 8.01227 7.04395 7.99898H7.04362Z" fill="#2361A9"/>
</svg>
