<svg width="6" height="10" viewBox="0 0 6 10" fill="none" xmlns="http://www.w3.org/2000/svg">
<path d="M0.000768368 4.96884C0.00790903 4.76473 0.0942118 4.57017 0.243428 4.42207L4.47937 0.256188C4.69814 0.0412672 5.02169 -0.0470592 5.32813 0.0242967C5.63457 0.0957803 5.87748 0.31605 5.96513 0.602344C6.05291 0.888632 5.97227 1.19735 5.7535 1.41228L2.10756 5L5.7535 8.58772C5.97227 8.80264 6.05291 9.11137 5.96513 9.39765C5.87747 9.68394 5.63458 9.90419 5.32813 9.9757C5.0217 10.0471 4.69816 9.95873 4.47937 9.74381L0.243428 5.57792C0.0783302 5.41426 -0.00920376 5.19434 0.000768368 4.9686L0.000768368 4.96884Z" fill="#0061AF"/>
</svg>
