<svg width="8" height="13" viewBox="0 0 8 13" fill="none" xmlns="http://www.w3.org/2000/svg">
<path d="M7.99898 6.261C7.98946 6.515 7.87439 6.75713 7.67543 6.94142L2.02751 12.1256C1.73581 12.3931 1.30442 12.503 0.895824 12.4142C0.487245 12.3253 0.163359 12.0511 0.0464929 11.6949C-0.0705501 11.3386 0.0369721 10.9544 0.32867 10.6869L5.18992 6.22223L0.328671 1.75751C0.0369708 1.49005 -0.0705497 1.10586 0.0464934 0.749589C0.163368 0.393319 0.487233 0.119226 0.895825 0.0302425C1.3044 -0.0585705 1.73579 0.0513611 2.02751 0.318818L7.67543 5.50303C7.89556 5.70669 8.01227 5.98038 7.99898 6.26129L7.99898 6.261Z" fill="#0061AF"/>
</svg>
