<svg width="22" height="22" viewBox="0 0 22 22" fill="none" xmlns="http://www.w3.org/2000/svg">
<path d="M10.9939 22C7.98889 22 7.63465 21.9841 6.46197 21.9329C5.54748 21.9029 4.64484 21.7172 3.79289 21.384C2.31887 20.8112 1.15331 19.6469 0.580233 18.1748C0.259341 17.321 0.0862628 16.4189 0.0684064 15.5071C0 14.3385 0 13.9555 0 10.978C0 7.96884 0.0158801 7.61754 0.0684064 6.45265C0.0866534 5.54211 0.259726 4.64128 0.580233 3.78864C1.15269 2.31457 2.32014 1.14925 3.79656 0.578177C4.64998 0.256401 5.55234 0.0831212 6.46441 0.0658683C7.63098 0 8.01455 0 10.9939 0C14.0233 0 14.3715 0.0158572 15.5258 0.0658683C16.4403 0.0832704 17.345 0.256532 18.201 0.578177C19.677 1.14989 20.8442 2.315 21.4173 3.78864C21.7436 4.65371 21.9176 5.56862 21.9316 6.4929C22 7.66145 22 8.04325 22 11.0195C22 13.9958 21.9829 14.3861 21.9316 15.5413C21.9134 16.4539 21.7399 17.3568 21.4185 18.2114C20.844 19.6845 19.6767 20.8492 18.201 21.4218C17.3462 21.7416 16.4433 21.9144 15.5307 21.9329C14.3641 22 13.9818 22 10.9939 22ZM10.9524 1.93092C7.96446 1.93092 7.65419 1.94555 6.48762 1.998C5.79132 2.00722 5.10175 2.13552 4.44886 2.37736C3.48476 2.74574 2.72188 3.50443 2.34903 4.46562C2.10498 5.12467 1.97647 5.82078 1.96913 6.5234C1.90439 7.70537 1.90439 8.01519 1.90439 10.978C1.90439 13.9055 1.91538 14.2605 1.96913 15.4351C1.98006 16.1307 2.1085 16.8193 2.34903 17.4722C2.72242 18.4327 3.48518 19.1908 4.44886 19.5592C5.10131 19.8027 5.79116 19.931 6.48762 19.9386C7.67007 20.0069 7.98157 20.0069 10.9524 20.0069C13.9488 20.0069 14.2591 19.9922 15.4159 19.9386C16.1126 19.9301 16.8027 19.8018 17.4559 19.5592C18.4141 19.1877 19.172 18.4313 19.5447 17.4746C19.7883 16.815 19.9168 16.1186 19.9246 15.4156H19.938C19.9906 14.2495 19.9906 13.9385 19.9906 10.9585C19.9906 7.9786 19.9771 7.66511 19.9246 6.50022C19.9136 5.80549 19.7852 5.11761 19.5447 4.46562C19.1729 3.50757 18.4149 2.74975 17.4559 2.37736C16.8029 2.1343 16.1127 2.00596 15.4159 1.998C14.2346 1.93092 13.9256 1.93092 10.9524 1.93092ZM10.9939 16.6122C8.70959 16.6137 6.64937 15.2409 5.77407 13.134C4.89876 11.0271 5.38079 8.60109 6.99533 6.98748C8.60987 5.37386 11.0389 4.89044 13.1496 5.76266C15.2603 6.63488 16.6369 8.69094 16.6374 10.9719C16.6341 14.0837 14.1101 16.6062 10.9939 16.6122ZM10.9939 7.31016C8.96997 7.31016 7.32926 8.9485 7.32926 10.9695C7.32926 12.9905 8.96997 14.6289 10.9939 14.6289C13.0178 14.6289 14.6585 12.9905 14.6585 10.9695C14.6538 8.95045 13.0159 7.31485 10.9939 7.31016ZM16.8573 6.44046C16.131 6.43776 15.544 5.84836 15.5454 5.1231C15.5467 4.39784 16.1359 3.81061 16.8622 3.81061C17.5885 3.81061 18.1777 4.39783 18.179 5.12309C18.1793 5.473 18.0401 5.80863 17.7921 6.05583C17.5441 6.30302 17.2077 6.44142 16.8573 6.44046Z" fill="white"/>
</svg>
