<svg width="22" height="22" viewBox="0 0 22 22" fill="none" xmlns="http://www.w3.org/2000/svg">
<path d="M19.9916 5.70838C20.0447 5.63434 19.9662 5.53875 19.8813 5.57168C19.2774 5.80573 18.6463 5.96364 18.0026 6.04146C18.7194 5.61327 19.2725 4.96145 19.5792 4.18974C19.6104 4.11112 19.5246 4.04092 19.4505 4.08182C18.7844 4.44971 18.0659 4.71462 17.3196 4.86719C17.2884 4.87358 17.2562 4.86294 17.2342 4.8398C16.6742 4.24885 15.937 3.85538 15.1333 3.71941C14.3127 3.58059 13.4693 3.71804 12.7353 4.11022C12.0012 4.5024 11.4181 5.12712 11.0774 5.8864C10.7535 6.60833 10.6661 7.41308 10.8258 8.18595C10.8382 8.24591 10.7913 8.30253 10.7302 8.29873C9.27813 8.20855 7.8594 7.82233 6.56139 7.16334C5.26668 6.50602 4.12018 5.59159 3.19171 4.47644C3.15051 4.42694 3.07241 4.43335 3.04239 4.49032C2.75348 5.03855 2.60222 5.6496 2.60263 6.27063C2.60145 6.88882 2.75316 7.4977 3.04424 8.04307C3.33531 8.58843 3.75673 9.05337 4.27096 9.39647C3.72561 9.38163 3.1909 9.24681 2.7046 9.00237C2.64193 8.97086 2.56676 9.01572 2.57002 9.08578C2.60794 9.90092 2.90719 10.7193 3.42517 11.3471C3.97638 12.0152 4.74144 12.4725 5.59096 12.6415C5.26394 12.741 4.92443 12.7935 4.58263 12.7973C4.3966 12.7951 4.21093 12.7814 4.0267 12.7562C3.95839 12.7469 3.90261 12.8118 3.92653 12.8764C4.17991 13.5616 4.62754 14.1595 5.21611 14.5959C5.84536 15.0625 6.6044 15.3214 7.38763 15.3365C6.06506 16.3771 4.43219 16.9451 2.74929 16.9498C2.57637 16.9504 2.40352 16.9448 2.23108 16.933C2.13391 16.9264 2.08922 17.0559 2.17298 17.1056C3.81268 18.0786 5.68683 18.593 7.59846 18.5906C9.00984 18.6053 10.41 18.3386 11.7171 17.806C13.0243 17.2735 14.2122 16.4859 15.2116 15.4891C16.2109 14.4923 17.0016 13.3064 17.5375 12.0006C18.0733 10.6949 18.3437 9.29538 18.3326 7.88396V7.44412C18.3326 7.41518 18.3463 7.38796 18.3694 7.37053C18.9912 6.90106 19.538 6.34058 19.9916 5.70838Z" fill="white"/>
</svg>
