<svg width="22" height="16" viewBox="0 0 22 16" fill="none" xmlns="http://www.w3.org/2000/svg">
<path fill-rule="evenodd" clip-rule="evenodd" d="M19.5875 0.477419C20.5375 0.748387 21.2875 1.52258 21.5375 2.50323C22 4.28387 22 8 22 8C22 8 22 11.7161 21.55 13.4968C21.2875 14.4903 20.55 15.2645 19.6 15.5226C17.875 16 11 16 11 16C11 16 4.125 16 2.4125 15.5226C1.4625 15.2516 0.7125 14.4774 0.4625 13.4968C0 11.7161 0 8 0 8C0 8 0 4.28387 0.45 2.50323C0.7125 1.50968 1.45 0.735484 2.4 0.477419C4.125 0 11 0 11 0C11 0 17.875 0 19.5875 0.477419ZM14.5 8.00001L8.75 4.61936V11.3807L14.5 8.00001Z" fill="white"/>
</svg>
