<svg width="11" height="18" viewBox="0 0 11 18" fill="none" xmlns="http://www.w3.org/2000/svg">
<path d="M10.4987 8.94703C10.4868 8.60005 10.343 8.26929 10.0943 8.01752L3.03439 0.93552C2.66976 0.570156 2.13052 0.42 1.61978 0.541305C1.10906 0.662827 0.704199 1.03728 0.558116 1.52398C0.411812 2.01067 0.546215 2.5355 0.910838 2.90088L6.9874 9L0.910838 15.0991C0.546214 15.4645 0.411813 15.9893 0.558117 16.476C0.704211 16.9627 1.10904 17.3371 1.61978 17.4587C2.1305 17.58 2.66973 17.4298 3.03439 17.0645L10.0943 9.98247C10.3695 9.70425 10.5153 9.33037 10.4987 8.94663L10.4987 8.94703Z" fill="#2361A9"/>
</svg>
