<svg width="220" height="140" viewBox="0 0 220 140" fill="none" xmlns="http://www.w3.org/2000/svg">
<mask id="mask0_254_2147" style="mask-type:alpha" maskUnits="userSpaceOnUse" x="0" y="0" width="220" height="140">
<rect width="220" height="140" fill="#D9D9D9"/>
</mask>
<g mask="url(#mask0_254_2147)">
<path d="M13.7591 59.1389L40.1219 59.1389C41.0281 59.1389 41.7695 59.8179 41.7695 60.6477L41.7695 84.0786L12.1115 84.0786L12.1115 60.6477C12.1115 59.8179 12.8529 59.1389 13.7591 59.1389Z" fill="white" stroke="#0156A3" stroke-width="2" stroke-miterlimit="10" stroke-linejoin="round"/>
<path d="M19.5994 62.3945H16.9C15.9682 62.3945 15.2129 63.1499 15.2129 64.0817C15.2129 65.0134 15.9682 65.7688 16.9 65.7688H19.5994C20.5312 65.7688 21.2865 65.0134 21.2865 64.0817C21.2865 63.1499 20.5312 62.3945 19.5994 62.3945Z" fill="#0062AD"/>
<path d="M2 127.251V79.3268C2 77.8535 3.4005 76.6643 5.13545 76.6643H48.5092V129.914H5.13545C3.4005 129.914 2 128.725 2 127.251Z" fill="white" stroke="#0156A3" stroke-width="2" stroke-miterlimit="10" stroke-linejoin="round"/>
<path d="M24.5281 103.185V77.3384H17.5039V103.185L18.7683 102.819L19.8319 103.185L20.9759 102.819L22.2201 103.185L23.3641 102.819L24.5281 103.185Z" fill="#0062AD"/>
<path d="M55.1074 48.1453C55.1074 48.1453 57.9317 16 71.7901 16C85.6485 16 92.0519 40.9532 93.2787 50.0933" stroke="#0062AD" stroke-width="4" stroke-miterlimit="10"/>
<path d="M62.4492 130.251L47.5109 48.5883C47.3947 47.953 47.9022 47.3758 48.5471 47.4097L113.321 50.8149C114.678 50.8862 115.818 51.8614 116.099 53.1915L131.457 125.993C131.848 127.847 130.445 129.594 128.551 129.612L62.4492 130.251Z" fill="white" stroke="#0156A3" stroke-width="2" stroke-miterlimit="10"/>
<path d="M32.5075 130.251C30.6519 130.251 29.2413 128.583 29.549 126.754L42.4812 49.8458C42.7241 48.4012 43.9748 47.3433 45.4396 47.3433H47.2833L62.1123 130.251H32.5075Z" fill="#DBE0E5" stroke="#0156A3" stroke-width="2" stroke-miterlimit="10"/>
<path d="M67.1686 64.5314C69.9606 64.5314 72.224 62.268 72.224 59.476C72.224 56.684 69.9606 54.4207 67.1686 54.4207C64.3766 54.4207 62.1133 56.684 62.1133 59.476C62.1133 62.268 64.3766 64.5314 67.1686 64.5314Z" fill="#DBE0E5"/>
<path d="M101.544 63.1832C104.336 63.1832 106.599 60.9199 106.599 58.1279C106.599 55.3359 104.336 53.0725 101.544 53.0725C98.7516 53.0725 96.4883 55.3359 96.4883 58.1279C96.4883 60.9199 98.7516 63.1832 101.544 63.1832Z" fill="#DBE0E5"/>
<path d="M67.1677 59.139C67.1677 59.139 61.7805 17.648 76.4949 16.6924C92.1622 15.6833 101.207 57.7909 101.207 57.7909" stroke="#0062AD" stroke-width="4" stroke-miterlimit="10" stroke-linecap="round"/>
<path d="M120.082 75.5472C120.082 75.5472 121.977 57.1167 131.276 57.1167C140.576 57.1167 144.873 71.4236 145.696 76.664" stroke="#0062AD" stroke-width="3" stroke-miterlimit="10"/>
<path d="M125.079 129.914L115.107 75.3978C114.99 74.7626 115.498 74.1854 116.143 74.2193L158.54 76.4481C159.897 76.5195 161.037 77.4946 161.318 78.8247L171.244 125.877C171.635 127.73 170.232 129.478 168.337 129.496L125.079 129.914Z" fill="white" stroke="#0156A3" stroke-width="2" stroke-miterlimit="10"/>
<path d="M106.103 129.914C104.248 129.914 102.837 128.246 103.145 126.416L111.512 76.6554C111.755 75.2108 113.006 74.1528 114.471 74.1528H114.88L124.853 129.914H106.103Z" fill="#DBE0E5" stroke="#0156A3" stroke-width="2" stroke-miterlimit="10"/>
<path d="M128.254 85.713C130.131 85.713 131.654 84.1907 131.654 82.3129C131.654 80.4351 130.131 78.9128 128.254 78.9128C126.376 78.9128 124.854 80.4351 124.854 82.3129C124.854 84.1907 126.376 85.713 128.254 85.713Z" fill="#DBE0E5"/>
<path d="M151.373 84.8062C153.251 84.8062 154.773 83.284 154.773 81.4062C154.773 79.5284 153.251 78.0061 151.373 78.0061C149.495 78.0061 147.973 79.5284 147.973 81.4062C147.973 83.284 149.495 84.8062 151.373 84.8062Z" fill="#DBE0E5"/>
<path d="M128.145 82.0564C128.145 82.0564 124.514 58.347 134.432 57.801C144.991 57.2243 151.088 81.2861 151.088 81.2861" stroke="#0062AD" stroke-width="3" stroke-miterlimit="10" stroke-linecap="round"/>
</g>
</svg>
