<svg width="100" height="100" viewBox="0 0 100 100" fill="none" xmlns="http://www.w3.org/2000/svg">
<mask id="mask0_254_1943" style="mask-type:alpha" maskUnits="userSpaceOnUse" x="0" y="0" width="100" height="100">
<rect width="100" height="100" fill="#D9D9D9"/>
</mask>
<g mask="url(#mask0_254_1943)">
<path d="M49.8109 91.0714C69.9242 91.0714 86.2292 81.8822 86.2292 70.5469C86.2292 59.2115 69.9242 50.0223 49.8109 50.0223C29.6976 50.0223 13.3926 59.2115 13.3926 70.5469C13.3926 81.8822 29.6976 91.0714 49.8109 91.0714Z" fill="#DEEBF5"/>
<path d="M67.8705 48.9961L67.7559 70.2118L86.2093 59.4148L86.4042 38.5315L67.8705 48.9961Z" fill="white" stroke="#0062AD" stroke-width="1.5" stroke-miterlimit="10" stroke-linejoin="round"/>
<path d="M71.0002 50.8299L70.9199 64.8247L83.1038 57.707L83.2299 43.9185L71.0002 50.8299Z" stroke="#0062AD" stroke-width="1.5" stroke-miterlimit="10" stroke-linejoin="round"/>
<path d="M32.832 49.5463L32.981 28.5024L67.8707 48.9961L67.7675 70.2921L32.832 49.5463Z" fill="white" stroke="#0062AD" stroke-width="1.5" stroke-miterlimit="10" stroke-linejoin="round"/>
<path d="M74.4609 49.019L74.5068 62.4637" stroke="#0062AD" stroke-width="1.5" stroke-miterlimit="10" stroke-linecap="round"/>
<path d="M79.8027 45.8441L79.8371 59.2888" stroke="#0062AD" stroke-width="1.5" stroke-miterlimit="10" stroke-linecap="round"/>
<path d="M63.0117 50.979L63.0576 62.7617" stroke="#0062AD" stroke-width="1.5" stroke-miterlimit="10" stroke-linecap="round"/>
<path d="M58.5742 48.4802L58.6201 60.2744" stroke="#0062AD" stroke-width="1.5" stroke-miterlimit="10" stroke-linecap="round"/>
<path d="M54.4141 45.8441L54.4599 57.6383" stroke="#0062AD" stroke-width="1.5" stroke-miterlimit="10" stroke-linecap="round"/>
<path d="M50.334 43.5059L50.3684 55.2886" stroke="#0062AD" stroke-width="1.5" stroke-miterlimit="10" stroke-linecap="round"/>
<path d="M46.1738 41.4199L46.2082 53.2141" stroke="#0062AD" stroke-width="1.5" stroke-miterlimit="10" stroke-linecap="round"/>
<path d="M42.002 39.1848L42.0478 50.979" stroke="#0062AD" stroke-width="1.5" stroke-miterlimit="10" stroke-linecap="round"/>
<path d="M37.8418 36.2736L37.8876 48.0677" stroke="#0062AD" stroke-width="1.5" stroke-miterlimit="10" stroke-linecap="round"/>
<path d="M67.8701 48.9961L32.9805 28.5024L51.5256 18.0264L86.4038 38.5315L67.8701 48.9961Z" fill="white" stroke="#0062AD" stroke-width="1.5" stroke-miterlimit="10" stroke-linejoin="round"/>
<path d="M49.0267 60.1141L48.9121 81.3299L67.3656 70.5329L67.5604 49.6495L49.0267 60.1141Z" fill="white" stroke="#0062AD" stroke-width="1.5" stroke-miterlimit="10" stroke-linejoin="round"/>
<path d="M52.1567 61.9365L52.0879 75.9428L64.2603 68.8136L64.3978 55.0365L52.1567 61.9365Z" stroke="#0062AD" stroke-width="1.5" stroke-miterlimit="10" stroke-linejoin="round"/>
<path d="M14 60.6643L14.1375 39.6205L49.0272 60.1141L48.924 81.4101L14 60.6643Z" fill="white" stroke="#0062AD" stroke-width="1.5" stroke-miterlimit="10" stroke-linejoin="round"/>
<path d="M55.6172 60.1371L55.663 73.5817" stroke="#0062AD" stroke-width="1.5" stroke-miterlimit="10" stroke-linecap="round"/>
<path d="M60.959 56.9622L61.0048 70.3954" stroke="#0062AD" stroke-width="1.5" stroke-miterlimit="10" stroke-linecap="round"/>
<path d="M44.1797 62.0854L44.2255 73.8796" stroke="#0062AD" stroke-width="1.5" stroke-miterlimit="10" stroke-linecap="round"/>
<path d="M39.7441 59.5868L39.7785 71.381" stroke="#0062AD" stroke-width="1.5" stroke-miterlimit="10" stroke-linecap="round"/>
<path d="M35.582 56.9622L35.6164 68.7449" stroke="#0062AD" stroke-width="1.5" stroke-miterlimit="10" stroke-linecap="round"/>
<path d="M31.4902 54.6124L31.5361 66.4066" stroke="#0062AD" stroke-width="1.5" stroke-miterlimit="10" stroke-linecap="round"/>
<path d="M27.3301 52.5378L27.3759 64.3205" stroke="#0062AD" stroke-width="1.5" stroke-miterlimit="10" stroke-linecap="round"/>
<path d="M23.1699 50.3027L23.2158 62.0854" stroke="#0062AD" stroke-width="1.5" stroke-miterlimit="10" stroke-linecap="round"/>
<path d="M19.0098 47.3916L19.0556 59.1743" stroke="#0062AD" stroke-width="1.5" stroke-miterlimit="10" stroke-linecap="round"/>
<path d="M49.0283 60.1141L14.1387 39.6205L32.6838 29.1329L67.562 49.6495L49.0283 60.1141Z" fill="white" stroke="#0062AD" stroke-width="1.5" stroke-miterlimit="10" stroke-linejoin="round"/>
<path d="M56.8219 33.9812L56.7188 55.1969L75.1722 44.4L75.3556 23.5166L56.8219 33.9812Z" fill="white" stroke="#0062AD" stroke-width="1.5" stroke-miterlimit="10" stroke-linejoin="round"/>
<path d="M59.963 35.8035L59.8828 49.8098L72.0667 42.6806L72.1928 28.8921L59.963 35.8035Z" stroke="#0062AD" stroke-width="1.5" stroke-miterlimit="10" stroke-linejoin="round"/>
<path d="M21.7949 34.5314L21.9439 13.4761L56.8221 33.9812L56.7189 55.2772L21.7949 34.5314Z" fill="white" stroke="#0062AD" stroke-width="1.5" stroke-miterlimit="10" stroke-linejoin="round"/>
<path d="M63.4238 34.0042L63.4582 47.4488" stroke="#0062AD" stroke-width="1.5" stroke-miterlimit="10" stroke-linecap="round"/>
<path d="M68.7539 30.8177L68.7998 44.2624" stroke="#0062AD" stroke-width="1.5" stroke-miterlimit="10" stroke-linecap="round"/>
<path d="M51.9746 35.9526L52.0205 47.7468" stroke="#0062AD" stroke-width="1.5" stroke-miterlimit="10" stroke-linecap="round"/>
<path d="M47.5371 33.4539L47.583 45.248" stroke="#0062AD" stroke-width="1.5" stroke-miterlimit="10" stroke-linecap="round"/>
<path d="M43.377 30.8177L43.4228 42.6119" stroke="#0062AD" stroke-width="1.5" stroke-miterlimit="10" stroke-linecap="round"/>
<path d="M39.2852 28.4795L39.331 40.2737" stroke="#0062AD" stroke-width="1.5" stroke-miterlimit="10" stroke-linecap="round"/>
<path d="M35.125 26.405L35.1708 38.1877" stroke="#0062AD" stroke-width="1.5" stroke-miterlimit="10" stroke-linecap="round"/>
<path d="M30.9648 24.1699L31.0107 35.9526" stroke="#0062AD" stroke-width="1.5" stroke-miterlimit="10" stroke-linecap="round"/>
<path d="M26.8047 21.2587L26.8505 33.0414" stroke="#0062AD" stroke-width="1.5" stroke-miterlimit="10" stroke-linecap="round"/>
<path d="M56.8215 33.9812L21.9434 13.4761L40.4885 3L75.3552 23.5166L56.8215 33.9812Z" fill="white" stroke="#0062AD" stroke-width="1.5" stroke-miterlimit="10" stroke-linejoin="round"/>
</g>
</svg>
