<svg width="158" height="100" viewBox="0 0 158 100" fill="none" xmlns="http://www.w3.org/2000/svg">
<mask id="mask0_263_1123" style="mask-type:alpha" maskUnits="userSpaceOnUse" x="0" y="0" width="158" height="100">
<rect width="157.143" height="100" fill="#D9D9D9"/>
</mask>
<g mask="url(#mask0_263_1123)">
<path d="M33.5791 83.9464V11.0801L51.1764 14.831V66.4215L48.5291 67.936C48.1129 67.9512 46.7982 68.6016 46.7982 69.0178L46.1491 69.2341C46.1644 69.6097 45.639 69.545 45.2837 69.6669L42.3825 85.6774L33.5791 83.9464Z" fill="#EBF0F6"/>
<path opacity="0.8" d="M81.1991 53.5431V11.9582L51.1562 11.8567V14.8361L78.8592 14.8666L78.8694 53.4873" fill="#0156A3"/>
<path opacity="0.8" d="M7.79004 30.86V81.8653V82.1344L41.7993 86.9041V83.5643L41.4999 83.478L9.83553 78.9113V33.5653L9.97765 30.4133L7.79004 30.86Z" fill="#0156A3"/>
<path opacity="0.8" d="M33.5797 7.55762V11.0801H31.3109H29.1436V7.83678L29.981 7.87231L33.5797 7.55762Z" fill="#0156A3"/>
<path d="M33.5742 11.0802L51.1715 14.8362L51.1563 11.8771L33.5742 7.56787V11.0802Z" fill="#0156A3"/>
<path d="M78.5706 15H51.4277V85H78.5706V15Z" fill="white"/>
<path d="M9.83496 78.9062V11.0801H33.5789V82.1428L9.83496 78.9062Z" fill="white"/>
<path d="M65.0273 14.8359V53.2232" stroke="#0156A3" stroke-miterlimit="10"/>
<path d="M21.916 80.4844L21.916 33.3186" stroke="#0156A3" stroke-miterlimit="10"/>
<path d="M78.7664 36.3668H51.1599L33.6184 32.22L23.1879 33.0372L21.9443 33.0879" stroke="#0156A3" stroke-miterlimit="10"/>
<path d="M18.1386 39.8338C17.5092 40.6104 16.7783 40.7322 16.1591 40.6358C15.4637 40.5292 14.8597 40.113 14.4435 39.5496C12.4894 36.9204 3.68821 24.9773 1.85589 20.4346C1.02348 18.3688 0.713867 16.3842 0.713867 14.2778C0.713867 6.39534 7.72844 0 16.3875 0C25.0466 0 32.0612 6.39026 32.0612 14.2778C32.0612 16.6736 31.8581 18.78 30.777 21.1655C28.6097 25.9468 19.5344 38.1132 18.1386 39.8338Z" fill="#0156A3"/>
<path d="M16.3868 24.2363C21.1859 24.2363 25.0763 20.3458 25.0763 15.5467C25.0763 10.7476 21.1859 6.85718 16.3868 6.85718C11.5877 6.85718 7.69727 10.7476 7.69727 15.5467C7.69727 20.3458 11.5877 24.2363 16.3868 24.2363Z" fill="white"/>
<path d="M16.3871 50.442C18.1391 50.442 19.5594 49.0217 19.5594 47.2697C19.5594 45.5177 18.1391 44.0974 16.3871 44.0974C14.6351 44.0974 13.2148 45.5177 13.2148 47.2697C13.2148 49.0217 14.6351 50.442 16.3871 50.442Z" fill="#0156A3"/>
<path d="M69.2076 38.2223C68.9132 38.5827 68.5731 38.6436 68.2838 38.5979C67.959 38.5471 67.6747 38.3542 67.4819 38.0903C66.5682 36.862 62.462 31.2889 61.6042 29.1673C61.2134 28.2029 61.0713 27.2741 61.0713 26.2945C61.0713 22.6146 64.3451 19.6301 68.3904 19.6301C72.4357 19.6301 75.7095 22.6146 75.7095 26.2945C75.7095 27.4111 75.6131 28.3958 75.1106 29.5124C74.0954 31.7407 69.8573 37.4203 69.2076 38.2223Z" fill="#2361A9"/>
<path d="M68.3906 30.9438C70.6332 30.9438 72.4511 29.1259 72.4511 26.8833C72.4511 24.6407 70.6332 22.8228 68.3906 22.8228C66.148 22.8228 64.3301 24.6407 64.3301 26.8833C64.3301 29.1259 66.148 30.9438 68.3906 30.9438Z" fill="white"/>
<path d="M68.3903 43.1761C69.2088 43.1761 69.8724 42.5125 69.8724 41.694C69.8724 40.8755 69.2088 40.2119 68.3903 40.2119C67.5718 40.2119 66.9082 40.8755 66.9082 41.694C66.9082 42.5125 67.5718 43.1761 68.3903 43.1761Z" fill="#2361A9"/>
<path d="M41.4463 90.7038V65.9947C41.4463 64.8861 42.3492 63.9912 43.4677 63.9912H68.0611V92.7072H43.4677C42.3492 92.7072 41.4463 91.8124 41.4463 90.7038Z" fill="white" stroke="#0156A3" stroke-width="2" stroke-miterlimit="10" stroke-linejoin="round"/>
<path d="M74.867 63.9912H68.0615V92.7072H74.867C76.5239 92.7072 77.867 91.3641 77.867 89.7072V66.9912C77.867 65.3344 76.5239 63.9912 74.867 63.9912Z" fill="#DBE0E6" stroke="#0156A3" stroke-width="2" stroke-miterlimit="10" stroke-linejoin="round"/>
<path d="M49.0552 65.9797H45.6104C44.5058 65.9797 43.6104 66.8752 43.6104 67.9797V68.4064C43.6104 69.511 44.5058 70.4064 45.6104 70.4064H49.0552C50.1598 70.4064 51.0552 69.511 51.0552 68.4064V67.9797C51.0552 66.8752 50.1598 65.9797 49.0552 65.9797Z" fill="#2361A9"/>
<path d="M60.6748 90.5468V52.0094C60.6748 50.8247 61.3894 49.8684 62.2747 49.8684H84.406V92.6877H62.2747C61.3894 92.6877 60.6748 91.7314 60.6748 90.5468Z" fill="white" stroke="#0156A3" stroke-width="2" stroke-miterlimit="10" stroke-linejoin="round"/>
<path d="M92.755 49.8684H84.4053V92.6877H92.755C94.4118 92.6877 95.755 91.3446 95.755 89.6877V52.8684C95.755 51.2116 94.4118 49.8684 92.755 49.8684Z" fill="#DBE0E6" stroke="#0156A3" stroke-width="2" stroke-miterlimit="10" stroke-linejoin="round"/>
<path d="M74.8389 73.019V50.3843H69.96V73.019L70.8382 72.7645L71.577 73.019L72.3715 72.7645L73.2358 73.019L74.0304 72.7645L74.8389 73.019Z" fill="#2361A9"/>
<path d="M81.71 90.7078V66.1336C81.71 65.0311 82.6153 64.1411 83.7368 64.1411H108.396V92.7003H83.7368C82.6153 92.7003 81.71 91.8103 81.71 90.7078Z" fill="white" stroke="#0156A3" stroke-width="2" stroke-miterlimit="10" stroke-linejoin="round"/>
<path d="M115.131 64.1411H108.325V92.8571H115.131C116.788 92.8571 118.131 91.514 118.131 89.8572V67.1411C118.131 65.4843 116.788 64.1411 115.131 64.1411Z" fill="#DBE0E6" stroke="#0156A3" stroke-width="2" stroke-miterlimit="10" stroke-linejoin="round"/>
<path d="M97.3564 73.1983V64.6091H92.4775V73.1983L93.3557 72.9438L94.0945 73.1983L94.8891 72.9438L95.7534 73.1983L96.5479 72.9438L97.3564 73.1983Z" fill="#2361A9"/>
</g>
</svg>
