<svg width="158" height="100" viewBox="0 0 158 100" fill="none" xmlns="http://www.w3.org/2000/svg">
<mask id="mask0_276_5591" style="mask-type:alpha" maskUnits="userSpaceOnUse" x="0" y="0" width="158" height="100">
<rect width="157.143" height="100" fill="#D9D9D9"/>
</mask>
<g mask="url(#mask0_276_5591)">
<path d="M60.0631 38.6789L42.8904 36.5783C41.9106 36.4607 41.166 35.6221 41.166 34.6345V6.88843C41.166 5.94788 41.8322 5.14058 42.7571 4.9603L59.9299 1.70759C61.1369 1.48029 62.2578 2.40516 62.2578 3.6357V36.7351C62.2656 37.9108 61.231 38.8199 60.0631 38.6789Z" fill="#EBF0F6" stroke="#0062AD" stroke-width="1.5" stroke-miterlimit="10" stroke-linejoin="round"/>
<path d="M86.1555 37.4248L64.3505 38.8121C63.2218 38.8827 62.2656 37.9892 62.2656 36.8605V3.51817C62.2656 2.32682 63.3159 1.41762 64.4916 1.57438L86.2966 4.58412C87.2685 4.71737 87.9895 5.54818 87.9895 6.52792V35.4732C87.9895 36.5 87.1822 37.3621 86.1555 37.4248Z" fill="white" stroke="#0062AD" stroke-width="1.5" stroke-miterlimit="10" stroke-linejoin="round"/>
<path d="M71.9609 2.60901V7.89174L80.5277 8.69121V3.79253L71.9609 2.60901Z" fill="#0062AD"/>
<path d="M101.755 77.9645L84.5818 75.864C83.602 75.7464 82.8574 74.9077 82.8574 73.9202V46.1741C82.8574 45.2335 83.5236 44.4262 84.4485 44.2459L101.621 40.9932C102.828 40.7659 103.949 41.6908 103.949 42.9213V76.0207C103.957 77.1964 102.922 78.1056 101.755 77.9645Z" fill="#EBF0F6" stroke="#0062AD" stroke-width="1.5" stroke-miterlimit="10" stroke-linejoin="round"/>
<path d="M127.847 76.7105L106.042 78.0978C104.913 78.1683 103.957 77.2748 103.957 76.1462V42.8038C103.957 41.6125 105.007 40.7033 106.183 40.86L127.988 43.8698C128.96 44.003 129.681 44.8338 129.681 45.8136V74.7589C129.681 75.7856 128.874 76.6478 127.847 76.7105Z" fill="white" stroke="#0062AD" stroke-width="1.5" stroke-miterlimit="10" stroke-linejoin="round"/>
<path d="M113.652 41.8947V47.1774L122.219 47.9768V43.0782L113.652 41.8947Z" fill="#0062AD"/>
<path d="M91.3523 80.1725L58.543 82.4769V33.882C58.543 32.7769 59.4757 31.9069 60.5808 31.9853L91.3523 34.1485C92.3477 34.2191 93.1237 35.0499 93.1237 36.0453V78.2758C93.1237 79.2712 92.3556 80.102 91.3523 80.1725Z" fill="white" stroke="#0062AD" stroke-width="1.5" stroke-miterlimit="10" stroke-linecap="round" stroke-linejoin="round"/>
<path d="M56.3561 82.2103L31.9333 79.2241C30.9536 79.1065 30.209 78.2678 30.209 77.2803V36.8211C30.209 35.8257 30.9536 34.9871 31.949 34.8773L56.3718 32.0949C57.5318 31.9617 58.5508 32.8708 58.5508 34.0387V80.2665C58.5508 81.4422 57.524 82.3514 56.3561 82.2103Z" fill="#EBF0F6" stroke="#0062AD" stroke-width="1.5" stroke-miterlimit="10" stroke-linejoin="round"/>
<path d="M70.7852 32.6985V40.6147L82.3695 41.2026V33.5136L70.7852 32.6985Z" fill="#0062AD" stroke="#0062AD" stroke-width="1.5" stroke-miterlimit="10" stroke-linejoin="round"/>
<path d="M53.2525 89.9465L68.0583 89.3352L63.9591 79.7338L54.4204 80.2981L51.8652 84.4757L53.2525 89.9465Z" fill="#0062AD"/>
<path d="M39.3637 74.6782C39.2618 74.6782 39.1677 74.6861 39.0737 74.6939L37.5374 74.6782L37.5453 75.2817C36.0561 76.3163 35.0215 78.5893 35.0215 81.2229C35.0215 83.9583 36.1423 86.3096 37.7256 87.2815L37.7334 87.7675H39.3715C41.7699 87.7675 43.7215 84.8361 43.7215 81.2229C43.7059 77.6096 41.7621 74.6782 39.3637 74.6782Z" fill="#0062AD" stroke="#0062AD" stroke-width="1.5" stroke-miterlimit="10"/>
<path d="M37.5297 87.7675C39.9322 87.7675 41.8797 84.8374 41.8797 81.2229C41.8797 77.6084 39.9322 74.6782 37.5297 74.6782C35.1273 74.6782 33.1797 77.6084 33.1797 81.2229C33.1797 84.8374 35.1273 87.7675 37.5297 87.7675Z" fill="white" stroke="#0062AD" stroke-width="1.5" stroke-miterlimit="10"/>
<path d="M81.8454 79.6473C81.7278 79.6473 81.6024 79.6552 81.4848 79.663L79.6038 79.6473L79.6116 80.3214C77.7854 81.4814 76.5156 84.0287 76.5156 86.9757C76.5156 90.0404 77.8873 92.6739 79.8311 93.7634L79.8389 94.3042H81.8454C84.7846 94.3042 87.1751 91.0201 87.1751 86.9757C87.1673 82.9314 84.7846 79.6473 81.8454 79.6473Z" fill="#0062AD" stroke="#0062AD" stroke-width="1.5" stroke-miterlimit="10"/>
<path d="M79.5954 94.3121C82.5389 94.3121 84.9251 91.0311 84.9251 86.9837C84.9251 82.9363 82.5389 79.6553 79.5954 79.6553C76.6518 79.6553 74.2656 82.9363 74.2656 86.9837C74.2656 91.0311 76.6518 94.3121 79.5954 94.3121Z" fill="white" stroke="#0062AD" stroke-width="1.5" stroke-miterlimit="10"/>
<path d="M61.5922 83.0569C61.4746 83.0569 61.3571 83.0647 61.2395 83.0726L59.3819 83.0569L59.3898 83.7466C57.5949 84.938 56.3408 87.548 56.3408 90.5734C56.3408 93.7164 57.6889 96.4126 59.6014 97.5334L59.6092 98.0899H61.5844C64.4765 98.0899 66.8279 94.7275 66.8279 90.5734C66.8357 86.4193 64.4844 83.0569 61.5922 83.0569Z" fill="#0062AD" stroke="#0062AD" stroke-miterlimit="10"/>
<path d="M59.3822 98.0899C62.2781 98.0899 64.6258 94.7247 64.6258 90.5734C64.6258 86.4221 62.2781 83.0569 59.3822 83.0569C56.4863 83.0569 54.1387 86.4221 54.1387 90.5734C54.1387 94.7247 56.4863 98.0899 59.3822 98.0899Z" fill="white" stroke="#0062AD" stroke-width="1.5" stroke-miterlimit="10"/>
<path d="M58.6453 94.798C60.2729 94.798 61.5923 92.9066 61.5923 90.5734C61.5923 88.2402 60.2729 86.3488 58.6453 86.3488C57.0177 86.3488 55.6982 88.2402 55.6982 90.5734C55.6982 92.9066 57.0177 94.798 58.6453 94.798Z" fill="white"/>
<path d="M59.0921 94.4924C60.473 94.4924 61.5924 92.7379 61.5924 90.5735C61.5924 88.4091 60.473 86.6545 59.0921 86.6545C57.7112 86.6545 56.5918 88.4091 56.5918 90.5735C56.5918 92.7379 57.7112 94.4924 59.0921 94.4924Z" fill="white" stroke="#0062AD" stroke-miterlimit="10"/>
<path d="M9.29785 74.6782V82.5004C9.29785 84.5461 11.0849 86.1215 13.1149 85.8786L32.1374 83.5429V74.6782H9.29785Z" fill="#0062AD"/>
<path d="M17.8643 73.5887L23.0843 81.7088C23.8289 82.8688 25.0594 83.6369 26.4232 83.8015L43.7057 85.8785L45.0303 77.1393L17.8643 73.5887Z" fill="#0062AD"/>
<path d="M19.0707 77.5469C18.9688 77.5469 18.8748 77.5547 18.7807 77.5626L17.2445 77.5469L17.2523 78.1504C15.7631 79.185 14.7285 81.458 14.7285 84.0915C14.7285 86.8269 15.8493 89.1783 17.4326 90.1502L17.4404 90.6361H19.0785C21.4769 90.6361 23.4286 87.7048 23.4286 84.0915C23.4129 80.4782 21.4691 77.5469 19.0707 77.5469Z" fill="#0062AD" stroke="#0062AD" stroke-width="1.5" stroke-miterlimit="10"/>
<path d="M17.2377 90.6361C19.6402 90.6361 21.5877 87.706 21.5877 84.0915C21.5877 80.477 19.6402 77.5469 17.2377 77.5469C14.8353 77.5469 12.8877 80.477 12.8877 84.0915C12.8877 87.706 14.8353 90.6361 17.2377 90.6361Z" fill="white" stroke="#0062AD" stroke-width="1.5" stroke-miterlimit="10"/>
<path d="M16.6261 87.7675C17.9766 87.7675 19.0715 86.1217 19.0715 84.0915C19.0715 82.0613 17.9766 80.4155 16.6261 80.4155C15.2755 80.4155 14.1807 82.0613 14.1807 84.0915C14.1807 86.1217 15.2755 87.7675 16.6261 87.7675Z" fill="white"/>
<path d="M16.994 87.5088C18.1368 87.5088 19.0632 85.9788 19.0632 84.0915C19.0632 82.2042 18.1368 80.6742 16.994 80.6742C15.8512 80.6742 14.9248 82.2042 14.9248 84.0915C14.9248 85.9788 15.8512 87.5088 16.994 87.5088Z" fill="white" stroke="#0062AD" stroke-miterlimit="10"/>
<path d="M37.9376 79.7337L2.44763 74.8193C1.85979 74.7409 1.42871 74.2393 1.42871 73.6515V42.3783C1.42871 41.7435 1.93817 41.2183 2.57304 41.1948L37.9376 40.1053V79.7337Z" fill="#EBF0F6" stroke="#0062AD" stroke-width="1.5" stroke-miterlimit="10" stroke-linejoin="round"/>
<path d="M65.7933 77.5469L37.9375 79.7337V40.1132L64.4139 41.5083C65.1898 41.5475 65.8012 42.1902 65.8012 42.9662V77.5469H65.7933Z" fill="white" stroke="#0062AD" stroke-width="1.5" stroke-miterlimit="10" stroke-linejoin="round"/>
<path d="M43.3213 56.51C42.3572 60.8208 40.1156 73.2674 42.6237 86.6466C42.8118 87.642 43.6113 88.4101 44.6067 88.5669L53.2519 89.9464C53.2519 89.9464 53.3381 81.7636 57.4922 81.2228C61.6463 80.6898 65.5417 84.5774 65.8003 91.3258C65.8003 91.3258 74.7982 92.5407 88.3813 89.4212C88.3813 89.4212 90.1997 89.0293 90.9756 86.9758L90.3642 77.5625C90.3172 76.7866 89.9567 76.0733 89.3688 75.5639L81.3742 68.6587C81.3742 68.6587 74.1085 58.3597 71.6866 56.3767C71.6866 56.3767 70.3855 54.2997 59.9219 54.041C52.7111 53.8608 47.7497 54.3389 45.3591 54.6524C44.3481 54.7856 43.5408 55.5224 43.3213 56.51Z" fill="white" stroke="#0062AD" stroke-miterlimit="10"/>
<path opacity="0.6" d="M89.895 76.1831L89.4952 76.6142C89.6677 81.458 90.718 83.1745 81.8376 84.0837C72.9573 85.0007 73.2316 77.5391 73.2316 77.5391L61.5846 72.4601L51.8577 57.1449C49.9296 55.593 46.5515 55.1619 44.2707 55.0679C43.8004 55.4049 43.4477 55.9065 43.3145 56.5022C42.3504 60.813 40.1088 73.2596 42.6169 86.6389C42.805 87.6343 43.6045 88.4024 44.5999 88.5591L53.2451 89.9386C53.2451 89.9386 53.3313 81.7559 57.4853 81.215C61.6394 80.6821 65.5348 84.5697 65.7935 91.3181C65.7935 91.3181 74.7914 92.5329 88.3744 89.4135C88.3744 89.4135 90.1928 89.0216 90.9688 86.968L90.3574 77.5547C90.3261 77.0688 90.1615 76.5985 89.895 76.1831Z" fill="#EBF0F6"/>
<path d="M61.4666 70.2342C61.7801 70.7515 62.368 71.0337 62.9715 70.9631L81.414 68.7058L81.367 68.6666C81.367 68.6666 75.3397 60.1233 72.4318 57.0979L55.4314 58.1168C54.8436 58.1482 54.5066 58.7987 54.8122 59.3003L61.4666 70.2342Z" fill="#0062AD"/>
<path d="M88.7431 77.4371C88.7275 77.2725 88.5864 77.1392 88.414 77.1471C83.821 77.1862 78.0444 78.1503 76.132 78.4952C75.7715 78.5579 75.5363 78.9106 75.6147 79.2711C75.9909 80.87 76.6101 81.9438 77.0647 82.5709C77.3782 82.9941 77.8563 83.2684 78.3815 83.3076C79.8236 83.4174 83.0372 83.6133 84.5891 83.2449C85.9685 82.9157 87.2931 82.2574 88.0064 81.8733C88.4218 81.646 88.7118 81.2463 88.7823 80.776C88.9626 79.6395 88.8215 78.0798 88.7431 77.4371Z" fill="#0062AD"/>
<path d="M66.263 77.876C66.1376 77.6173 66.2552 77.296 66.5295 77.1941C66.9371 77.0451 67.4936 76.8727 67.8149 76.9119C68.2382 76.9589 71.8201 77.8916 73.4582 78.3227C73.9677 78.456 74.3125 78.9262 74.2812 79.4435C74.2106 80.5565 73.7874 82.3279 71.8749 82.5238C69.2101 82.7981 67.5328 80.4546 66.263 77.876Z" fill="#0062AD"/>
<path d="M83.4838 84.4756C76.5159 85.4475 75.0973 83.057 75.0973 83.057C73.4513 83.2999 71.1 82.9786 69.7753 82.7513C69.2659 82.6651 68.7799 82.9002 68.4978 83.3313C68.2862 83.6526 67.9021 83.974 67.1967 84.0994C66.0524 84.2953 64.1086 83.8643 63.1523 83.6135C64.5396 85.5181 65.5115 87.987 65.6448 91.3259C65.6448 91.3259 74.7916 92.5486 88.3746 89.4292C88.3746 89.4292 90.193 89.0373 90.969 86.9837L90.5692 80.8467C89.856 81.9283 87.9984 83.8407 83.4838 84.4756Z" fill="#0062AD"/>
<path d="M72.15 85.6825C71.3819 85.6042 70.7235 86.2233 70.7392 86.9993C70.7784 88.6531 70.606 90.3853 70.457 91.5609C74.4073 91.5688 80.6463 91.2004 88.3744 89.429C88.3744 89.429 90.1928 89.0372 90.9688 86.9836L90.7336 83.4095C85.1687 86.5604 75.7946 86.0352 72.15 85.6825Z" fill="#0062AD" stroke="#0062AD" stroke-miterlimit="10"/>
<path d="M46.2929 59.0103L48.801 59.6138C49.6162 59.8097 50.3372 60.3035 50.8154 61.0011L57.0151 70.046C57.4384 70.6652 56.8897 71.4803 56.1608 71.3236L45.4151 69.0506C44.984 68.9565 44.6626 68.5881 44.6469 68.1492C44.5764 66.5973 44.5059 62.9292 45.1172 59.7784C45.2191 59.2297 45.7521 58.877 46.2929 59.0103Z" fill="#0062AD"/>
<path d="M71.9619 2.60889L71.9541 7.89946L80.466 8.66757L80.5601 3.79241L71.9619 2.60889Z" fill="#0062AD" stroke="#0062AD" stroke-width="1.5" stroke-miterlimit="10" stroke-linejoin="round"/>
<path d="M113.653 41.8947L113.646 47.1852L122.157 47.9533L122.251 43.0782L113.653 41.8947Z" fill="#0062AD" stroke="#0062AD" stroke-width="1.5" stroke-miterlimit="10" stroke-linejoin="round"/>
<path d="M61.6315 32.0558C59.0606 31.8285 57.9555 31.852 55.7139 32.1655" stroke="#0062AD" stroke-width="1.5" stroke-miterlimit="10" stroke-linejoin="round"/>
<path d="M64.9305 1.63706C62.3283 1.31571 61.4348 1.33922 58.9424 1.89571" stroke="#0062AD" stroke-width="1.5" stroke-miterlimit="10" stroke-linejoin="round"/>
<path d="M106.622 40.9227C104.02 40.6013 103.126 40.6249 100.634 41.1814" stroke="#0062AD" stroke-width="1.5" stroke-miterlimit="10" stroke-linejoin="round"/>
<path d="M106.622 78.1157C104.02 78.4371 103.126 78.4136 100.634 77.8571" stroke="#0062AD" stroke-width="1.5" stroke-miterlimit="10" stroke-linejoin="round"/>
</g>
</svg>
