<svg width="163" height="100" viewBox="0 0 163 100" fill="none" xmlns="http://www.w3.org/2000/svg">
<mask id="mask0_276_5645" style="mask-type:alpha" maskUnits="userSpaceOnUse" x="0" y="0" width="163" height="100">
<rect width="162.143" height="100" fill="#D9D9D9"/>
</mask>
<g mask="url(#mask0_276_5645)">
<path d="M52.2314 39.8414C53.681 37.5212 54.2797 35.7219 55.7293 33.97C57.1788 32.2022 59.1326 30.7502 61.3699 30.324C65.2144 29.598 68.8855 31.9024 72.2731 33.8753C75.2509 35.6114 78.8748 37.1582 82.089 36.5427C82.8926 36.3848 83.6804 36.8268 83.964 37.6001C84.547 39.1627 84.8936 40.8042 85.0039 42.4614C85.0039 42.4614 76.1333 37.3476 73.376 38.3262C70.5714 39.3205 69.3582 34.2383 62.205 34.2383C55.4142 34.2383 56.5958 34.5066 56.5958 35.7851" fill="#0062AD"/>
<path d="M52.2314 39.8414C53.681 37.5212 54.2797 35.7219 55.7293 33.97C57.1788 32.2022 59.1326 30.7502 61.3699 30.324C65.2144 29.598 68.8855 31.9024 72.2731 33.8753C75.2509 35.6114 78.8748 37.1582 82.089 36.5427C82.8926 36.3848 83.6804 36.8268 83.964 37.6001C84.547 39.1627 84.8936 40.8042 85.0039 42.4614C85.0039 42.4614 76.1333 37.3476 73.376 38.3262C70.5714 39.3205 69.3582 34.2383 62.205 34.2383C55.4142 34.2383 56.5958 34.5066 56.5958 35.7851" stroke="#0062AD" stroke-width="2" stroke-miterlimit="10"/>
<path d="M49.2041 47.8742C49.6768 43.4865 51.7723 39.1776 55.3174 36.5734C58.8783 33.9849 63.9517 33.3694 67.7647 35.5948C69.4663 36.5891 70.8686 38.0886 72.649 38.9566C74.4294 39.8247 76.4462 39.9983 78.4157 40.2509C80.3852 40.4876 82.4177 40.8349 84.0406 41.9713C85.6634 43.1077 86.7506 45.2542 86.0731 47.1166" stroke="#0062AD" stroke-width="2" stroke-miterlimit="10"/>
<path d="M22.9265 25.1624C22.958 22.6528 22.5011 20.0644 21.1303 17.9652C19.7596 15.866 17.3647 14.3192 14.8122 14.7454C13.9141 15.5503 13.8196 16.9866 14.308 18.0914C14.7964 19.1963 15.726 20.0328 16.6556 20.7904C18.6409 22.3845 20.7364 23.8366 22.9265 25.1624Z" fill="#0062AD" stroke="#0062AD" stroke-width="2" stroke-miterlimit="10"/>
<path d="M12.4955 40.5038C11.4399 37.3155 12.0701 33.638 14.1184 30.9864C16.1667 28.3348 19.5857 26.8038 23.3829 27.1195C25.4942 24.6415 28.7557 22.8422 31.9384 23.5051C34.9636 24.1365 37.1221 26.7249 39.0286 29.1556" stroke="#0062AD" stroke-width="2" stroke-miterlimit="10"/>
<path d="M90.1578 47.48L85.6201 43.692" stroke="#0062AD" stroke-width="2" stroke-miterlimit="10"/>
<path d="M89.826 47.7643H19.6016V92.8572H89.826V47.7643Z" fill="white" stroke="#0062AD" stroke-width="2" stroke-miterlimit="10" stroke-linejoin="round"/>
<path d="M6.09863 80.6885L6.55555 34.6802L19.6015 47.7645V92.8575L6.09863 80.6885Z" fill="white" stroke="#0062AD" stroke-width="2" stroke-miterlimit="10" stroke-linejoin="round"/>
<path d="M6.42751 34.7738L1.95281 43.2652C1.03897 45.0014 1.33833 47.1321 2.7091 48.5368L12.0051 58.1489C12.6354 58.8118 13.7383 58.6224 14.1164 57.8017L19.1111 47.3373L6.42751 34.7738Z" fill="white" stroke="#0062AD" stroke-width="2" stroke-miterlimit="10" stroke-linejoin="round"/>
<path d="M19.5664 47.9376L23.1588 63.0422C23.5842 64.8573 25.2228 66.1358 27.082 66.1358L91.3034 65.8832C92.8002 65.8832 93.8874 64.4785 93.5408 63.0265L90.0272 48.2217L19.5664 47.9376Z" fill="white" stroke="#0062AD" stroke-width="2" stroke-miterlimit="10" stroke-linejoin="round"/>
<path d="M42.0693 26.8201C42.0693 26.8201 48.9862 30.5449 54.7372 28.9035" stroke="#0062AD" stroke-width="2" stroke-miterlimit="10"/>
<path d="M55.5877 25.5249L54.9102 28.65C54.9102 28.65 56.4227 30.2599 57.1948 32.6905" stroke="#0062AD" stroke-width="2" stroke-miterlimit="10"/>
<path d="M42.6833 16.1815L41.5488 22.2581C41.5488 22.2581 50.0571 27.293 56.8164 25.2254L57.9666 19.3224" stroke="#0062AD" stroke-width="2" stroke-miterlimit="10" stroke-linejoin="round"/>
<path d="M57.9689 19.3279C58.2273 18.0017 55.0026 16.2552 50.7664 15.4268C46.5302 14.5984 42.8865 15.0019 42.6281 16.328C42.3697 17.6541 45.5943 19.4007 49.8305 20.2291C54.0668 21.0575 57.7104 20.654 57.9689 19.3279Z" stroke="#0062AD" stroke-width="2" stroke-miterlimit="10"/>
<path d="M50.5619 43.613C48.7342 43.9286 46.2448 43.8497 43.582 43.3289C38.4141 42.3187 34.5223 39.9986 34.8847 38.1519C35.2471 36.3053 39.7218 35.6108 44.8898 36.621C48.0567 37.2365 50.751 38.3571 52.2793 39.5567" stroke="#0062AD" stroke-width="2" stroke-miterlimit="10"/>
<path d="M32.5049 46.6589C32.5049 46.6589 34.8998 32.2961 42.2894 26.7562L42.9038 23.7416" stroke="#0062AD" stroke-width="2" stroke-miterlimit="10"/>
<path d="M6.55273 34.4741L11.831 34.2378" stroke="#0062AD" stroke-width="2" stroke-miterlimit="10" stroke-linecap="round"/>
<path d="M34.5192 39.6513C33.2272 38.0098 32.5654 47.8113 32.5654 47.8113L49.251 47.6692L49.771 44.1495C49.7552 44.1337 36.9141 42.6817 34.5192 39.6513Z" fill="#0062AD"/>
<path d="M94.3913 31.9814C102.223 31.9814 108.572 25.6216 108.572 17.7764C108.572 9.9312 102.223 3.57141 94.3913 3.57141C86.5597 3.57141 80.2109 9.9312 80.2109 17.7764C80.2109 25.6216 86.5597 31.9814 94.3913 31.9814Z" fill="#FFD829"/>
<path d="M80.2109 17.7764C80.2109 9.93209 86.5606 3.57141 94.3913 3.57141C102.222 3.57141 108.572 9.93209 108.572 17.7764" fill="#0062AD"/>
</g>
</svg>
