<svg width="158" height="100" viewBox="0 0 158 100" fill="none" xmlns="http://www.w3.org/2000/svg">
<mask id="mask0_276_5671" style="mask-type:alpha" maskUnits="userSpaceOnUse" x="0" y="0" width="158" height="100">
<rect width="157.143" height="100" fill="#D9D9D9"/>
</mask>
<g mask="url(#mask0_276_5671)">
<path d="M33.772 44.243L22.6206 37.806L11.4238 44.243V57.117L22.6206 63.5993V50.7253L33.772 44.243Z" fill="#FFBE2E"/>
<path d="M33.9987 44.107L22.6207 37.5341L11.2426 44.107H11.1973V44.379V57.253L22.3487 63.69L22.5753 63.826L22.802 63.69L33.8627 57.2983L33.9534 57.253V44.379L33.9987 44.107ZM22.6207 38.0327L27.879 41.0699L17.1809 47.2802L11.9226 44.243L22.6207 38.0327ZM22.394 63.1914L11.6506 57.0264V44.651L22.394 50.816V63.1914ZM27.1537 47.8242L22.6207 50.4534L17.3623 47.4162L28.0604 41.2059L33.3188 44.243L27.1537 47.8242Z" fill="#0062AD"/>
<path d="M18.1778 50.7254L16.0926 49.5467C15.8659 49.4108 15.6393 49.4108 15.4579 49.5014C15.2313 49.6374 15.1406 49.9094 15.1406 50.2267C15.1406 50.7707 15.4579 51.4053 15.9113 51.6773L17.9965 52.8559C18.1325 52.9466 18.2685 52.9466 18.3591 52.9466C18.4498 52.9466 18.5404 52.9012 18.6311 52.8559C18.8578 52.7199 18.9484 52.4479 18.9484 52.1306C18.9484 51.5866 18.5858 50.952 18.1778 50.7254ZM18.3591 52.4933C18.3138 52.5386 18.2231 52.4933 18.1325 52.4479L16.0472 51.2693C15.7299 51.088 15.5033 50.6347 15.5033 50.2267C15.5033 50.0454 15.5486 49.9094 15.6393 49.9094C15.6846 49.8641 15.7753 49.9094 15.8659 49.9547L16.0019 50.0454C16.0472 50.544 16.3192 51.0427 16.6819 51.2693L18.4498 52.3119C18.4951 52.3573 18.4045 52.4479 18.3591 52.4933ZM18.4498 51.9493L16.8179 50.9973C16.5459 50.8613 16.3646 50.4987 16.2739 50.136L17.9511 51.088C18.1778 51.224 18.4045 51.5866 18.4498 51.9493Z" fill="#16110D"/>
<path d="M32.1402 53.3544C32.0496 53.3091 31.9136 53.3091 31.7776 53.3544L30.1457 54.3064C29.919 54.4424 29.6924 54.805 29.6924 55.1223V56.8902C29.6924 57.0716 29.783 57.2076 29.8737 57.2982C29.919 57.3436 29.9644 57.3435 30.0097 57.3435C30.055 57.3435 30.1457 57.3436 30.2364 57.2982L31.8683 56.3463C32.0949 56.2103 32.3216 55.8476 32.3216 55.5303V53.7624C32.3669 53.5811 32.2762 53.4451 32.1402 53.3544Z" fill="white"/>
<path d="M22.6206 50.7254L11.4239 44.243L0.272461 50.7254V63.5993L11.4239 70.0363V57.2077L22.6206 50.7254Z" fill="white"/>
<path d="M0.272461 63.6446L11.4239 70.0816V57.253L0.272461 50.7706V63.6446Z" fill="#ECEFF6"/>
<path d="M22.8468 50.5892L11.4234 44.0162L0.0453319 50.5892H0V50.8612V63.7352L11.1967 70.1722L11.4234 70.3082L11.65 70.1722L22.7108 63.7805L22.8014 63.7352V50.8159L22.8468 50.5892ZM11.4234 44.5149L16.6818 47.552L5.98368 53.7624L0.725296 50.7252L11.4234 44.5149ZM11.1967 69.6735L0.498641 63.4632V51.0879L11.1967 57.2982V69.6735ZM16.0018 54.261L11.4687 56.8902L6.21033 53.853L16.9084 47.6427L22.1668 50.6799L16.0018 54.261Z" fill="#0062AD"/>
<path d="M20.9879 59.8367C20.8972 59.7914 20.7613 59.7914 20.6253 59.8367L18.9933 60.7887C18.7667 60.9247 18.54 61.2873 18.54 61.6046V63.3725C18.54 63.5539 18.6307 63.6899 18.7214 63.7805C18.7667 63.8259 18.812 63.8259 18.8574 63.8259C18.9027 63.8259 18.9934 63.8259 19.084 63.7805L20.7159 62.8286C20.9426 62.6926 21.1692 62.3299 21.1692 62.0126V60.2447C21.1692 60.0634 21.1239 59.8821 20.9879 59.8367Z" fill="white"/>
<path d="M33.3179 80.1903L22.1665 73.708L10.9697 80.1903V93.0643L22.1665 99.5013V86.6726L33.3179 80.1903Z" fill="white"/>
<path d="M10.9697 93.1097L22.1665 99.5467V86.718L10.9697 80.2357V93.1097Z" fill="#ECEFF6"/>
<path d="M33.5446 80.0544L22.1666 73.4814L10.7885 80.0544H10.7432V80.3264V93.2004L21.8946 99.6374L22.1212 99.7734L22.3479 99.6374L33.4086 93.2457L33.4993 93.2004V80.2811L33.5446 80.0544ZM22.1666 73.9801L27.4249 77.0173L16.7268 83.2276L11.4685 80.1904L22.1666 73.9801ZM21.9399 99.1387L11.1965 92.9284V80.5531L21.8946 86.7634V99.1387H21.9399ZM26.6996 83.7262L22.1666 86.3554L16.9082 83.3183L27.6063 77.1079L32.8646 80.1451L26.6996 83.7262Z" fill="#0062AD"/>
<path d="M31.7311 89.3017C31.6404 89.2564 31.5044 89.2564 31.3684 89.3017L29.7365 90.2537C29.5099 90.3896 29.2832 90.7523 29.2832 91.0696V92.8375C29.2832 93.0188 29.3739 93.1548 29.4645 93.2455C29.5099 93.2908 29.5552 93.2908 29.6005 93.2908C29.6458 93.2908 29.7365 93.2908 29.8272 93.2455L31.4591 92.2935C31.6857 92.1575 31.9124 91.7949 31.9124 91.4776V89.7097C31.9124 89.5284 31.8217 89.347 31.7311 89.3017Z" fill="white"/>
<path d="M33.772 31.1876L22.6206 24.7506L11.4238 31.1876V44.0616L22.6206 50.5439V37.6699L33.772 31.1876Z" fill="white"/>
<path d="M11.4238 44.0617L22.6206 50.544V37.6701L11.4238 31.1877V44.0617Z" fill="#ECEFF6"/>
<path d="M33.9987 31.0517L22.6207 24.4788L11.2426 31.0517H11.1973V31.3237V44.1977L22.3487 50.6347L22.5753 50.7707L22.802 50.6347L33.8627 44.243L33.9534 44.1977V31.3237L33.9987 31.0517ZM22.6207 24.9774L27.879 28.0146L17.1809 34.2249L11.9226 31.1877L22.6207 24.9774ZM22.394 50.1361L11.6506 43.971V31.5957L22.3487 37.806V50.1361H22.394ZM27.1537 34.7689L22.6207 37.3981L17.3623 34.3609L28.0604 28.1506L33.3188 31.1877L27.1537 34.7689Z" fill="#0062AD"/>
<path d="M32.1402 40.299C32.0496 40.2537 31.9136 40.2537 31.7776 40.299L30.1457 41.251C29.919 41.387 29.6924 41.7496 29.6924 42.0669V43.8348C29.6924 44.0161 29.783 44.1521 29.8737 44.2428C29.919 44.2881 29.9644 44.2881 30.0097 44.2881C30.055 44.2881 30.1457 44.2881 30.2364 44.2428L31.8683 43.2909C32.0949 43.1549 32.3216 42.7922 32.3216 42.4749V40.707C32.3669 40.5257 32.2762 40.3897 32.1402 40.299Z" fill="white"/>
<path d="M22.9376 63.6447L22.7109 63.7807V50.4987L22.7563 50.4534L33.9983 43.9711V44.2431L22.9376 50.6347V63.6447Z" fill="#ECEFF6"/>
<path d="M71.3431 97.144L36.8916 77.2438V39.2565L71.3431 59.1567V97.144Z" fill="white"/>
<path d="M104.299 0.271973L36.8916 39.2112L71.3431 59.1115L138.795 20.1722L104.299 0.271973Z" fill="#ECEFF6"/>
<path d="M36.8917 38.9392L36.665 39.1205V76.7905V77.3345V80.009L41.2888 82.6835L43.51 81.2783L65.9035 94.1976L66.9008 97.4614L71.1619 99.9093L71.6152 99.8639V97.5067V96.9628V58.9755L37.345 39.1659L36.8917 38.9392ZM41.0621 82.0489L37.073 79.737V77.6065L38.1156 78.1958L41.8328 80.3263L41.0621 82.0489ZM71.1165 99.4106L67.2181 97.1894L66.4021 94.5602L71.0712 97.2801V99.4106H71.1165ZM71.1165 96.7361L70.8445 96.5548L64.4076 92.8377V91.5231L59.9651 88.9845V90.2991L48.2697 83.5448V82.2302L43.8273 79.6917V81.0063L37.1183 77.1078V39.6645L71.1165 59.2928V96.7361Z" fill="#0062AD"/>
<path d="M104.3 1.35999L37.6631 39.8459L71.7066 59.4742L138.298 21.0336L104.3 1.35999ZM71.344 55.9837L41.8335 39.302L104.3 3.21855L133.719 20.1723L71.344 55.9837Z" fill="white"/>
<path d="M138.796 19.9003L71.2528 58.8848L71.1621 58.9302V96.9175V97.4614V99.9093L71.3434 100L75.8765 97.3708L76.8738 94.107L132.268 62.1487L134.399 63.5993L139.022 60.9247V58.2502V57.7062V20.0363L138.796 19.9003ZM133.945 62.6926L132.721 61.922L133.401 61.514L133.447 61.6047L133.945 62.6926Z" fill="#0062AD"/>
<path d="M74.7883 59.9728L74.6523 60.0181V92.1578L78.0975 90.1632L78.2335 90.1179L80.5907 88.7579L80.6813 88.7126L83.6279 87.0354L83.8092 86.9447L86.2117 85.5394L89.1129 83.8622L89.2942 83.7715L91.6968 82.3663L94.5979 80.689L94.8246 80.5984L97.2271 79.1931L100.083 77.5612L100.31 77.4705L102.712 76.02L105.659 74.3427L105.795 74.252L106.067 74.116L108.243 72.8921V72.8468L111.144 71.1695L111.37 71.0789L113.773 69.6736L116.629 68.0417L116.855 67.951L119.258 66.5005L122.114 64.8685L122.386 64.7779L124.788 63.3273L127.599 61.6954L127.871 61.6047L130.273 60.1541L133.356 58.3862H133.401V58.3409L135.713 57.0263L135.849 56.981V56.9356V25.2493V24.796L74.7883 59.9728ZM105.931 73.6627L105.885 42.6111L107.835 41.4778V72.5748L105.931 73.6627ZM78.2335 58.5222L80.1827 57.3889V88.4859L78.2335 89.5739V58.5222ZM80.6813 57.117L83.3559 55.5757V86.582H80.6813V57.117ZM83.7639 86.4007V55.3491L85.7131 54.2158V85.2674L83.7639 86.4007ZM86.2117 53.9438L88.8862 52.4025V83.4089H86.2117V53.9438ZM89.2942 83.2276V52.1759L91.2435 51.0426V82.0943L89.2942 83.2276ZM91.6968 50.7706L94.3713 49.2294V80.2357H91.6968V50.7706ZM94.8699 80.0544V48.9574L96.8192 47.8241V78.9211L94.8699 80.0544ZM97.2271 47.5975L99.947 46.0562V77.1079H97.2725V47.5975H97.2271ZM100.4 76.8812V45.7842L102.35 44.651V75.748L100.4 76.8812ZM102.712 44.4243L105.432 42.8377V73.8441H102.758V44.4243H102.712ZM108.333 41.2058L111.008 39.6646V70.6709H108.333V41.2058ZM111.461 70.5349V39.4379L113.41 38.3046V69.4016L111.461 70.5349ZM113.818 38.078L116.538 36.5367V67.5884H113.864V38.078H113.818ZM116.991 67.3164V36.2194L118.941 35.0861V66.1831L116.991 67.3164ZM119.394 34.8595L122.068 33.3182V64.3699H119.394V34.8595ZM122.522 64.1432V33.0462L124.471 31.913V63.01L122.522 64.1432ZM124.97 31.6863L127.644 30.1451V61.1967H124.97V31.6863ZM128.052 60.9701V29.8731L130.001 28.7398V59.8368L128.052 60.9701ZM130.5 28.5132L133.175 26.9719V57.8876H130.5V28.5132ZM133.583 57.7063V26.6999L135.532 25.5666V56.6183L133.583 57.7063ZM77.7802 58.7942V89.7552H75.1057V60.2901L77.7802 58.7942Z" fill="white"/>
<path d="M50.2646 34.8142L52.2592 33.6809L80.9083 50L78.9138 51.1333L50.2646 34.8142Z" fill="white"/>
<path d="M45.2783 37.7606L47.2729 36.6273L75.922 52.9464L73.9275 54.0797L45.2783 37.7606Z" fill="white"/>
<path d="M55.5225 31.8677L57.517 30.6891L86.1208 47.0082L84.1263 48.1868L55.5225 31.8677Z" fill="white"/>
<path d="M60.5996 28.7851L62.6395 27.6519L91.2433 43.971L89.2487 45.1042L60.5996 28.7851Z" fill="white"/>
<path d="M65.6318 25.7933L67.6264 24.66L96.2302 40.9792L94.281 42.1578L65.6318 25.7933Z" fill="white"/>
<path d="M70.8447 22.8468L72.8846 21.6682L101.488 38.0327L99.4939 39.1659L70.8447 22.8468Z" fill="white"/>
<path d="M75.9668 19.7641L77.9614 18.6309L106.61 34.95L104.616 36.0833L75.9668 19.7641Z" fill="white"/>
<path d="M81.2256 16.9085L83.2655 15.7299L111.869 32.049L109.875 33.2276L81.2256 16.9085Z" fill="white"/>
<path d="M86.3477 13.8259L88.3422 12.6473L116.946 29.0118L114.951 30.1451L86.3477 13.8259Z" fill="white"/>
<path d="M91.6973 10.8341L93.6918 9.70081L122.296 26.0199L120.301 27.1985L91.6973 10.8341Z" fill="white"/>
<path d="M96.9092 7.88747L98.9491 6.70886L127.553 23.028L125.558 24.2066L96.9092 7.88747Z" fill="white"/>
<path d="M102.032 4.80503L104.027 3.67175L132.676 19.9909L130.681 21.1242L102.032 4.80503Z" fill="white"/>
<path d="M71.3432 59.3382L71.2525 59.2928L36.665 39.3472L36.8464 38.9846L104.299 0L104.389 0.0453311L138.977 20.0363V20.3082L71.3432 59.3382ZM37.345 39.2112L71.3885 58.8395L138.388 20.1723L104.299 0.49864L37.345 39.2112Z" fill="#0062AD"/>
<path d="M133.673 20.2175L133.31 20.0362L104.299 3.21843L104.163 3.1731L93.7365 9.20211H93.6912L90.79 10.8794L90.8353 10.9247L88.5688 12.2393L88.4781 12.1939L85.5769 13.8712L85.6676 13.9165L83.401 15.2311L83.3104 15.1858L80.4092 16.863L80.4999 16.9084L67.8979 24.2066L64.9967 25.8839L41.8779 39.3018L70.935 55.8476L71.343 56.0743L71.4337 56.1196L133.673 20.2175ZM44.0991 40.0271L45.5044 37.9419L73.5642 54.397L71.4337 55.621L44.0991 40.0271ZM67.8979 24.7506L96.5923 41.1151L94.5978 42.2483L65.9033 25.8839L67.8979 24.7506ZM83.401 15.7298L112.141 32.1395L110.146 33.2728L81.4065 16.863L83.401 15.7298ZM84.9876 16.0924L86.1209 14.1432L114.861 30.553L112.549 31.8676L112.503 31.8222V31.7769L84.9876 16.0924ZM88.5688 12.7379L117.309 29.1477L115.314 30.281L86.5742 13.8712L88.5688 12.7379ZM90.246 13.1006L91.3793 11.1513L120.074 27.5158L117.762 28.8304V28.7851L90.246 13.1006ZM93.7818 9.74608L122.522 26.1559L120.527 27.2891L91.7873 10.8794L93.7818 9.74608ZM127.689 23.1187L125.695 24.252L96.955 7.84218L98.9495 6.66357L127.689 23.1187ZM100.717 7.20755L101.851 5.25832L130.455 21.5774L128.188 22.892L100.717 7.20755ZM102.213 4.941L104.208 3.7624L132.812 20.1722L130.908 21.2601L102.213 4.941ZM125.241 24.5693L122.975 25.8839L95.4591 10.1541L96.5923 8.20483L125.241 24.5693ZM101.76 38.1232L99.7655 39.2565L71.071 22.892L73.0656 21.7134L101.76 38.1232ZM74.8335 22.1667L75.9668 20.2175L104.525 36.4913L102.259 37.8059L74.8335 22.1667ZM76.3294 19.9455L78.324 18.7669L79.1853 19.2656V19.3109L106.928 35.1314L104.979 36.2647L76.3294 19.9455ZM79.8199 19.0842L80.9078 17.1803L109.602 33.5448L107.381 34.8141L79.8199 19.0842ZM99.3122 39.5285L97.0456 40.8431L69.5751 25.1586L70.7084 23.2094L99.3122 39.5285ZM48.5416 37.3073L75.8308 53.0371L73.9722 54.125L45.8217 37.6246L47.4536 36.718L48.5416 37.3073ZM49.0402 37.0806L50.0828 35.222L78.596 51.4958L76.4654 52.7198L49.0402 37.0806ZM50.4455 34.9047L52.44 33.7261L81.0438 50.0453L79.0493 51.1785L50.4455 34.9047ZM54.1626 34.1794L55.2959 32.2302L83.7637 48.4587L81.4971 49.7733L54.1626 34.1794ZM55.6585 31.9582L57.6531 30.7796L86.2569 47.0534L84.217 48.232L55.6585 31.9582ZM59.2397 31.1423L60.3729 29.193L88.9767 45.5122L86.7102 46.8268L59.2397 31.1423ZM60.7356 28.8757L62.7301 27.6971L63.7274 28.2864L91.3793 44.0616L89.3847 45.1949L60.7356 28.8757ZM64.3621 28.1051L65.4953 26.1559L94.1445 42.475L91.8779 43.7896L64.3621 28.1051Z" fill="#0062AD"/>
<path d="M43.918 75.8385L68.3513 61.6046V89.8911L43.918 75.8385Z" fill="white"/>
<path d="M40.1104 75.9747L41.6063 75.0227L68.3515 90.4352V92.2938L40.1104 75.9747Z" fill="white"/>
<path d="M39.4307 43.4723V75.6119L39.6573 75.7479L68.8504 92.611V89.7098V60.4714L39.4307 43.4723ZM41.3799 45.1495V74.1613L40.4733 74.7053L39.8386 75.0679V44.2429L41.3799 45.1495ZM40.1106 75.4759L40.7453 75.1133L41.6519 74.5693L68.3971 89.9818V91.8404L40.1106 75.4759ZM43.9184 75.3399L68.3518 61.106V89.3925L43.9184 75.3399Z" fill="#0062AD"/>
<path d="M58.832 69.5376V61.6047L65.4503 65.5939V73.3908L58.832 69.5376Z" fill="#ECEFF6"/>
<path d="M58.832 61.6047L64.4531 58.2502L68.5328 60.6528V63.7353L65.4503 65.5939L58.832 61.6047Z" fill="white"/>
<path d="M64.4532 58.0236L58.8321 61.3781L58.6055 61.514V61.786V69.7189L65.2238 73.5721L65.4504 73.7081L65.6771 73.5721L68.7596 71.8042V63.9166V63.3726V60.5168L64.4532 58.0236ZM64.4532 58.5222L68.3063 60.7434V63.5993L65.4504 65.2765L60.5094 62.33L59.2401 61.5594L64.4532 58.5222ZM59.0588 69.4016V62.0127L60.328 62.7833L65.2238 65.7298V73.0281L59.0588 69.4016Z" fill="#0062AD"/>
<path d="M62.0957 77.7425V72.4841L66.4475 75.1133V80.281L62.0957 77.7425Z" fill="#ECEFF6"/>
<path d="M62.0957 72.4841L65.8128 70.3082L68.4874 71.8495V73.9347L66.4475 75.1133L62.0957 72.4841Z" fill="white"/>
<path d="M65.8131 70.1268L62.0959 72.348L61.96 72.4387V72.62V77.8784L66.3571 80.4169L66.4931 80.5076L66.629 80.4169L68.6689 79.2383V74.0253V73.6626V71.7587L65.8131 70.1268ZM65.8131 70.4895L68.3516 71.9401V73.844L66.4477 74.9772L63.1839 73.028L62.3679 72.5294L65.8131 70.4895ZM62.2319 77.6518V72.756L63.0479 73.2547L66.3117 75.2039V80.009L62.2319 77.6518Z" fill="#0062AD"/>
<path d="M61.0077 65.3218L53.4374 60.9247L45.8672 65.3218V74.0253L53.4374 78.4224V69.6735L61.0077 65.3218Z" fill="white"/>
<path d="M45.8672 74.0255L53.4374 78.3772V69.6737L45.8672 65.2766V74.0255Z" fill="#ECEFF6"/>
<path d="M61.1444 65.2311L53.4381 60.7887L45.7319 65.2311H45.6865V65.4124V74.1613L53.2568 78.5131L53.3928 78.6037L53.5288 78.5131L61.0084 74.2066L61.099 74.1613V65.4124L61.1444 65.2311ZM53.4381 61.106L56.9739 63.1459L49.721 67.3617L46.1852 65.3218L53.4381 61.106ZM53.3021 78.1504L46.0492 73.9347V65.5484L53.3021 69.7642V78.1504ZM56.5206 67.7243L53.4381 69.4922L49.9023 67.4523L57.1552 63.2366L60.6911 65.2765L56.5206 67.7243Z" fill="#0062AD"/>
<path d="M59.9204 71.4869C59.8298 71.4415 59.7844 71.4415 59.6938 71.4869L58.5605 72.1215C58.3792 72.2122 58.2432 72.4842 58.2432 72.6655V73.8441C58.2432 73.9801 58.2885 74.0707 58.3792 74.1161C58.4245 74.1161 58.4245 74.1614 58.4698 74.1614C58.5151 74.1614 58.5605 74.1614 58.6058 74.1161L59.7391 73.4814C59.9204 73.3908 60.0564 73.1188 60.0564 72.9375V71.7589C60.0564 71.6229 60.0111 71.5322 59.9204 71.4869Z" fill="white"/>
<path d="M106.793 63.0553C106.294 63.3273 105.886 63.7806 105.614 64.4153C105.342 65.0046 105.206 65.7299 105.206 66.5005C105.206 68.1324 105.75 68.631 106.793 68.0417C107.246 67.7698 107.79 67.3618 108.425 66.7271V68.0417C107.881 68.5857 107.337 69.039 106.657 69.447C105.75 69.991 105.025 70.0816 104.526 69.719C104.027 69.3563 103.801 68.5857 103.801 67.3618C103.801 66.5912 103.937 65.8659 104.163 65.1406C104.39 64.4153 104.753 63.7806 105.206 63.2367C105.659 62.6927 106.203 62.194 106.793 61.8767C107.427 61.5141 108.017 61.3328 108.651 61.3328L108.198 62.8287C107.971 62.8287 107.699 62.874 107.473 62.9193C107.246 62.8287 107.019 62.9193 106.793 63.0553Z" fill="white"/>
<path d="M113.638 65.2312L113.185 63.7353L110.873 65.0499L110.419 67.0444L108.969 67.8604L111.19 59.2022L112.822 58.2502L115.088 64.3246L113.638 65.2312ZM112.867 62.6473C112.459 61.3328 112.187 60.5621 112.142 60.3808C112.097 60.1995 112.051 60.0635 112.006 59.9728C111.915 60.4715 111.643 61.6954 111.19 63.6446L112.867 62.6473Z" fill="white"/>
<path d="M117.264 60.3354V63.1459L115.904 63.9166V56.573L117.763 55.485C118.624 54.9864 119.259 54.8051 119.667 54.9411C120.075 55.077 120.301 55.485 120.301 56.2556C120.301 56.709 120.211 57.1169 119.984 57.5702C119.757 58.0235 119.485 58.4769 119.123 58.8848C120.075 59.9728 120.709 60.6981 120.981 61.0154L119.485 61.8767L117.99 59.9275L117.264 60.3354ZM117.264 59.0662L117.718 58.7942C118.126 58.5675 118.443 58.2955 118.669 58.0235C118.851 57.7516 118.987 57.4342 118.987 57.0716C118.987 56.709 118.896 56.5276 118.669 56.5276C118.443 56.4823 118.126 56.6183 117.718 56.8449L117.31 57.0716V59.0662H117.264Z" fill="white"/>
<path d="M124.199 55.0317L126.738 53.5811V57.3889C126.33 57.7968 125.967 58.1142 125.605 58.3861C125.242 58.6581 124.879 58.8848 124.517 59.1114C123.565 59.6554 122.84 59.7461 122.341 59.3834C121.842 59.0208 121.57 58.2501 121.57 57.0262C121.57 55.8476 121.842 54.7597 122.432 53.7624C123.021 52.7651 123.837 51.9492 124.879 51.3598C125.514 50.9972 126.149 50.7706 126.783 50.7252L126.33 52.2211C125.877 52.2211 125.378 52.3571 124.879 52.6745C124.29 52.9918 123.837 53.4904 123.474 54.1704C123.112 54.805 122.93 55.5303 122.93 56.3009C122.93 57.1169 123.066 57.6155 123.338 57.8875C123.61 58.1595 124.018 58.1142 124.562 57.7968C124.834 57.6155 125.106 57.4342 125.423 57.2075V55.6663L124.199 56.3462V55.0317Z" fill="white"/>
<path d="M133.991 49.8186C133.991 51.0426 133.72 52.1305 133.221 53.0825C132.677 54.0344 131.952 54.805 131 55.349C130.048 55.893 129.277 56.029 128.778 55.6663C128.234 55.3037 128.008 54.5331 128.008 53.3091C128.008 52.0852 128.28 50.9972 128.778 50.0453C129.322 49.0933 130.048 48.3227 131.045 47.7787C132.042 47.2348 132.768 47.0988 133.266 47.4614C133.72 47.8241 133.991 48.5947 133.991 49.8186ZM129.368 52.4932C129.368 53.3091 129.504 53.8531 129.776 54.1251C130.048 54.3971 130.456 54.3517 131 54.0344C132.088 53.3998 132.632 52.2665 132.632 50.6346C132.632 49.0027 132.088 48.4587 131.045 49.0933C130.501 49.4107 130.093 49.864 129.821 50.4079C129.504 50.9972 129.368 51.6772 129.368 52.4932Z" fill="white"/>
</g>
</svg>
