<svg width="117" height="50" viewBox="0 0 117 50" fill="none" xmlns="http://www.w3.org/2000/svg">
<path d="M0 49.8208L4.44324 39.3571H6.72183L11.1793 49.8208H8.75831L5.11258 40.5828H6.02401L2.36403 49.8208H0ZM2.22162 47.5785L2.83399 45.7399H7.96081L8.58742 47.5785H2.22162Z" fill="#2361A9"/>
<path d="M16.888 50.0001C16.1 50.0001 15.3737 49.8706 14.7091 49.6115C14.054 49.3424 13.4796 48.9637 12.9859 48.4754C12.5017 47.9871 12.122 47.4141 11.8466 46.7564C11.5808 46.0987 11.4479 45.3762 11.4479 44.5889C11.4479 43.8017 11.5808 43.0792 11.8466 42.4215C12.122 41.7637 12.5065 41.1907 13.0002 40.7024C13.4939 40.2141 14.073 39.8404 14.7376 39.5813C15.4022 39.3123 16.1332 39.1777 16.9307 39.1777C17.8137 39.1777 18.6064 39.3322 19.309 39.6411C20.0211 39.95 20.6192 40.3985 21.1034 40.9864L19.6223 42.4215C19.2615 42.0228 18.8675 41.7289 18.4403 41.5395C18.0131 41.3402 17.5478 41.2406 17.0447 41.2406C16.5605 41.2406 16.119 41.3203 15.7202 41.4797C15.3215 41.6392 14.9749 41.8684 14.6806 42.1673C14.3958 42.4663 14.1727 42.8201 14.0113 43.2286C13.8594 43.6372 13.7834 44.0907 13.7834 44.5889C13.7834 45.0772 13.8594 45.5257 14.0113 45.9343C14.1727 46.3428 14.3958 46.7016 14.6806 47.0105C14.9749 47.3095 15.3167 47.5387 15.706 47.6981C16.1047 47.8576 16.5415 47.9373 17.0162 47.9373C17.4719 47.9373 17.9134 47.8626 18.3406 47.7131C18.7773 47.5536 19.1998 47.2895 19.6081 46.9208L20.9183 48.6697C20.3771 49.0983 19.7457 49.4271 19.0242 49.6563C18.3121 49.8855 17.6001 50.0001 16.888 50.0001ZM18.8106 48.3558V44.4245H20.9183V48.6697L18.8106 48.3558Z" fill="#2361A9"/>
<path d="M25.1833 43.5725H29.9825V45.4559H25.1833V43.5725ZM25.3541 47.8775H30.78V49.8208H23.0613V39.3571H30.5949V41.3003H25.3541V47.8775Z" fill="#2361A9"/>
<path d="M32.6157 49.8208V39.3571H34.524L40.4056 46.8909H39.4799V39.3571H41.7585V49.8208H39.8644L33.9686 42.2869H34.8943V49.8208H32.6157Z" fill="#2361A9"/>
<path d="M46.1821 49.8208V41.3302H42.992V39.3571H51.6791V41.3302H48.4891V49.8208H46.1821Z" fill="#2361A9"/>
<path d="M57.011 49.6416V39.1779H61.3261C62.2186 39.1779 62.9876 39.3324 63.6332 39.6413C64.2788 39.9403 64.7772 40.3738 65.1285 40.9418C65.4798 41.5098 65.6554 42.1875 65.6554 42.9747C65.6554 43.752 65.4798 44.4247 65.1285 44.9927C64.7772 45.5607 64.2788 45.9992 63.6332 46.3081C62.9876 46.6071 62.2186 46.7566 61.3261 46.7566H58.2928L59.3181 45.6654V49.6416H57.011ZM59.3181 45.9344L58.2928 44.7834H61.1979C61.91 44.7834 62.4417 44.624 62.7929 44.3051C63.1442 43.9862 63.3199 43.5428 63.3199 42.9747C63.3199 42.3967 63.1442 41.9483 62.7929 41.6294C62.4417 41.3105 61.91 41.1511 61.1979 41.1511H58.2928L59.3181 40.0001V45.9344Z" fill="#2361A9"/>
<path d="M72.2836 49.8209C71.4956 49.8209 70.7645 49.6864 70.0904 49.4173C69.4258 49.1483 68.8467 48.7696 68.353 48.2813C67.8688 47.793 67.489 47.22 67.2137 46.5623C66.9479 45.9045 66.815 45.187 66.815 44.4097C66.815 43.6324 66.9479 42.9149 67.2137 42.2572C67.489 41.5995 67.8736 41.0265 68.3673 40.5382C68.8609 40.0499 69.4401 39.6712 70.1047 39.4021C70.7693 39.1331 71.4908 38.9985 72.2693 38.9985C73.0573 38.9985 73.7789 39.1331 74.434 39.4021C75.0986 39.6712 75.673 40.0499 76.1572 40.5382C76.6509 41.0265 77.0354 41.5995 77.3107 42.2572C77.586 42.905 77.7237 43.6225 77.7237 44.4097C77.7237 45.187 77.586 45.9095 77.3107 46.5772C77.0354 47.2349 76.6509 47.8079 76.1572 48.2962C75.673 48.7746 75.0986 49.1483 74.434 49.4173C73.7789 49.6864 73.0621 49.8209 72.2836 49.8209ZM72.2693 47.7581C72.7156 47.7581 73.1238 47.6784 73.4941 47.5189C73.8738 47.3595 74.2061 47.1303 74.4909 46.8313C74.7758 46.5324 74.9941 46.1786 75.146 45.77C75.3074 45.3614 75.3881 44.908 75.3881 44.4097C75.3881 43.9115 75.3074 43.458 75.146 43.0495C74.9941 42.6409 74.7758 42.2871 74.4909 41.9881C74.2156 41.6892 73.8881 41.46 73.5083 41.3005C73.1285 41.1411 72.7156 41.0614 72.2693 41.0614C71.8231 41.0614 71.4101 41.1411 71.0303 41.3005C70.6601 41.46 70.3325 41.6892 70.0477 41.9881C69.7629 42.2871 69.5398 42.6409 69.3784 43.0495C69.2265 43.458 69.1505 43.9115 69.1505 44.4097C69.1505 44.898 69.2265 45.3515 69.3784 45.77C69.5398 46.1786 69.7581 46.5324 70.0335 46.8313C70.3183 47.1303 70.6506 47.3595 71.0303 47.5189C71.4101 47.6784 71.8231 47.7581 72.2693 47.7581Z" fill="#2361A9"/>
<path d="M79.4576 49.6416V39.1779H83.7726C84.6651 39.1779 85.4341 39.3324 86.0797 39.6413C86.7253 39.9403 87.2237 40.3738 87.575 40.9418C87.9263 41.5098 88.1019 42.1875 88.1019 42.9747C88.1019 43.752 87.9263 44.4247 87.575 44.9927C87.2237 45.5508 86.7253 45.9793 86.0797 46.2782C85.4341 46.5772 84.6651 46.7267 83.7726 46.7267H80.7393L81.7646 45.6654V49.6416H79.4576ZM85.7949 49.6416L83.3027 45.8448H85.7664L88.2871 49.6416H85.7949ZM81.7646 45.9344L80.7393 44.7984H83.6445C84.3565 44.7984 84.8882 44.6389 85.2395 44.32C85.5907 43.9912 85.7664 43.5428 85.7664 42.9747C85.7664 42.3967 85.5907 41.9483 85.2395 41.6294C84.8882 41.3105 84.3565 41.1511 83.6445 41.1511H80.7393L81.7646 40.0001V45.9344Z" fill="#2361A9"/>
<path d="M91.8557 49.6416V41.1511H88.6657V39.1779H97.3528V41.1511H94.1628V49.6416H91.8557Z" fill="#2361A9"/>
<path d="M96.7832 49.6416L101.226 39.1779H103.505L107.963 49.6416H105.542L101.896 40.4037H102.807L99.1473 49.6416H96.7832ZM99.0049 47.3994L99.6172 45.5607H104.744L105.371 47.3994H99.0049Z" fill="#2361A9"/>
<path d="M108.997 49.6416V39.1779H111.304V47.6684H116.303V49.6416H108.997Z" fill="#2361A9"/>
<g clip-path="url(#clip0_246_6228)">
<path d="M19.8024 29.0924L25.4345 6.39195L26.9439 29.5684H33.2631L31.3369 0.0113332H21.4695L16.6372 19.8785L11.7936 0.0113332H1.92617L0 29.5684H6.3192L7.8286 6.39195L13.4607 29.0924H19.8024ZM104.25 11.2086H108.057L109.375 8.77193L108.068 6.38062H104.25V11.2086ZM93.3574 11.2086H96.6916V20.7852C96.6916 25.8171 97.9532 29.5684 103.473 29.5684C105.466 29.5684 107.122 29.0584 108.057 28.6844V23.3125C104.757 23.9358 103.146 24.1398 103.146 19.7198V0H96.6916V6.39195H93.8643L93.3574 11.2086ZM63.0343 19.8898C63.4736 25.4658 72.1019 24.4911 75.8304 23.3125L76.754 28.1291C68.0243 31.4838 56.3772 29.2964 56.3772 17.8725C56.3772 2.65198 78.0044 0.997326 78.0044 17.0792C78.0044 18.2919 77.8692 19.3685 77.7791 19.8785H63.0343V19.8898ZM71.4599 15.0279C71.4599 8.73793 63.023 8.64727 63.0793 15.0279H71.4599ZM85.2698 12.5119C85.2698 9.61059 90.6315 10.5513 92.2535 11.2086L92.7492 6.39195C87.3198 4.7033 78.8942 5.96129 78.9055 13.1579C78.7929 20.2525 89.1784 19.2778 89.1784 22.6552C89.1784 26.2138 81.0457 24.3891 79.2772 23.3125L78.3535 28.1404C84.3911 30.8264 95.8693 30.2258 95.5652 22.1678C95.4638 14.3366 85.2698 15.7192 85.2698 12.5119Z" fill="#2361A9"/>
<path d="M40.2919 19.8898C40.7312 25.4657 49.3595 24.4911 53.088 23.3124L54.0116 28.1291C45.2819 31.4837 33.6348 29.2964 33.6348 17.8725C33.6348 2.65192 55.262 0.997268 55.262 17.0791C55.262 18.2918 55.1268 19.3685 55.0367 19.8785H40.2919V19.8898ZM48.7175 15.0278C48.7175 8.73788 40.2806 8.64721 40.3369 15.0278H48.7175Z" fill="#E40137"/>
<path d="M111.505 0L116.303 8.77193L111.505 17.6005H106.706L111.505 8.77193L106.706 0H111.505Z" fill="#E40137"/>
</g>
<defs>
<clipPath id="clip0_246_6228">
<rect width="116.303" height="29.5684" fill="white"/>
</clipPath>
</defs>
</svg>
