<svg width="128" height="70" viewBox="0 0 128 70" fill="none" xmlns="http://www.w3.org/2000/svg">
<path d="M0 55.1934L4.85139 44.0374H7.33928L12.2062 55.1934H9.56283L5.5822 45.3443H6.57736L2.58119 55.1934H0ZM2.42569 52.8028L3.09431 50.8426H8.69207L9.37624 52.8028H2.42569Z" fill="#2361A9"/>
<path d="M18.4393 55.3847C17.5789 55.3847 16.7859 55.2465 16.0603 54.9703C15.345 54.6834 14.7178 54.2797 14.1788 53.7591C13.6501 53.2385 13.2355 52.6275 12.9348 51.9263C12.6446 51.2251 12.4995 50.4548 12.4995 49.6154C12.4995 48.7761 12.6446 48.0058 12.9348 47.3045C13.2355 46.6033 13.6553 45.9924 14.1943 45.4718C14.7334 44.9512 15.3657 44.5527 16.0914 44.2765C16.817 43.9896 17.6152 43.8462 18.4859 43.8462C19.45 43.8462 20.3156 44.0109 21.0827 44.3402C21.8601 44.6696 22.5132 45.1477 23.0419 45.7746L21.4248 47.3045C21.0308 46.8796 20.6007 46.5661 20.1342 46.3643C19.6677 46.1518 19.1597 46.0455 18.6103 46.0455C18.0817 46.0455 17.5996 46.1305 17.1643 46.3005C16.7289 46.4705 16.3505 46.7149 16.0292 47.0336C15.7182 47.3524 15.4746 47.7295 15.2983 48.1651C15.1325 48.6008 15.0495 49.0842 15.0495 49.6154C15.0495 50.136 15.1325 50.6141 15.2983 51.0498C15.4746 51.4854 15.7182 51.8679 16.0292 52.1972C16.3505 52.516 16.7237 52.7603 17.1487 52.9303C17.5841 53.1003 18.0609 53.1853 18.5792 53.1853C19.0768 53.1853 19.5588 53.1056 20.0253 52.9463C20.5022 52.7763 20.9635 52.4947 21.4092 52.1016L22.8398 53.9663C22.2489 54.4231 21.5595 54.7737 20.7717 55.0181C19.9942 55.2625 19.2168 55.3847 18.4393 55.3847ZM20.5385 53.6316V49.4401H22.8398V53.9663L20.5385 53.6316Z" fill="#2361A9"/>
<path d="M27.4965 48.5317H32.7366V50.5398H27.4965V48.5317ZM27.6831 53.1216H33.6074V55.1934H25.1797V44.0374H33.4053V46.1093H27.6831V53.1216Z" fill="#2361A9"/>
<path d="M35.6117 55.1934V44.0374H37.6953L44.1172 52.0697H43.1065V44.0374H45.5943V55.1934H43.5263L37.0889 47.1611H38.0996V55.1934H35.6117Z" fill="#2361A9"/>
<path d="M50.4242 55.1934V46.1411H46.9412V44.0374H56.4263V46.1411H52.9432V55.1934H50.4242Z" fill="#2361A9"/>
<path d="M62.1852 55.1934V44.0374H66.8967C67.8711 44.0374 68.7108 44.2021 69.4157 44.5315C70.1206 44.8502 70.6648 45.3124 71.0483 45.918C71.4319 46.5236 71.6236 47.2461 71.6236 48.0855C71.6236 48.9142 71.4319 49.6314 71.0483 50.237C70.6648 50.8426 70.1206 51.3101 69.4157 51.6394C68.7108 51.9582 67.8711 52.1175 66.8967 52.1175H63.5847L64.7042 50.9541V55.1934H62.1852ZM64.7042 51.241L63.5847 50.0138H66.7567C67.5342 50.0138 68.1147 49.8439 68.4982 49.5039C68.8818 49.1639 69.0736 48.6911 69.0736 48.0855C69.0736 47.4692 68.8818 46.9911 68.4982 46.6511C68.1147 46.3111 67.5342 46.1411 66.7567 46.1411H63.5847L64.7042 44.914V51.241Z" fill="#2361A9"/>
<path d="M78.8606 55.3847C78.0003 55.3847 77.202 55.2412 76.466 54.9544C75.7404 54.6675 75.1081 54.2637 74.569 53.7431C74.0404 53.2225 73.6257 52.6116 73.3251 51.9104C73.0348 51.2091 72.8897 50.4442 72.8897 49.6154C72.8897 48.7867 73.0348 48.0217 73.3251 47.3205C73.6257 46.6192 74.0455 46.0083 74.5846 45.4877C75.1236 44.9671 75.756 44.5634 76.4816 44.2765C77.2072 43.9896 77.9951 43.8462 78.8451 43.8462C79.7055 43.8462 80.4933 43.9896 81.2086 44.2765C81.9342 44.5634 82.5614 44.9671 83.0901 45.4877C83.6291 46.0083 84.0489 46.6192 84.3495 47.3205C84.6502 48.0111 84.8005 48.7761 84.8005 49.6154C84.8005 50.4442 84.6502 51.2144 84.3495 51.9263C84.0489 52.6275 83.6291 53.2385 83.0901 53.7591C82.5614 54.2691 81.9342 54.6675 81.2086 54.9544C80.4933 55.2412 79.7107 55.3847 78.8606 55.3847ZM78.8451 53.1853C79.3323 53.1853 79.7781 53.1003 80.1823 52.9303C80.597 52.7603 80.9598 52.516 81.2708 52.1972C81.5818 51.8785 81.8202 51.5013 81.9861 51.0657C82.1623 50.6301 82.2504 50.1467 82.2504 49.6154C82.2504 49.0842 82.1623 48.6008 81.9861 48.1651C81.8202 47.7295 81.5818 47.3524 81.2708 47.0336C80.9702 46.7149 80.6125 46.4705 80.1979 46.3005C79.7832 46.1305 79.3323 46.0455 78.8451 46.0455C78.3579 46.0455 77.907 46.1305 77.4923 46.3005C77.088 46.4705 76.7304 46.7149 76.4194 47.0336C76.1084 47.3524 75.8648 47.7295 75.6886 48.1651C75.5227 48.6008 75.4398 49.0842 75.4398 49.6154C75.4398 50.136 75.5227 50.6195 75.6886 51.0657C75.8648 51.5013 76.1032 51.8785 76.4039 52.1972C76.7148 52.516 77.0777 52.7603 77.4923 52.9303C77.907 53.1003 78.3579 53.1853 78.8451 53.1853Z" fill="#2361A9"/>
<path d="M86.6936 55.1934V44.0374H91.4051C92.3795 44.0374 93.2191 44.2021 93.924 44.5315C94.6289 44.8502 95.1732 45.3124 95.5567 45.918C95.9403 46.5236 96.132 47.2461 96.132 48.0855C96.132 48.9142 95.9403 49.6314 95.5567 50.237C95.1732 50.832 94.6289 51.2888 93.924 51.6076C93.2191 51.9263 92.3795 52.0857 91.4051 52.0857H88.093L89.2126 50.9541V55.1934H86.6936ZM93.6131 55.1934L90.8919 51.1454H93.582L96.3342 55.1934H93.6131ZM89.2126 51.241L88.093 50.0298H91.2651C92.0426 50.0298 92.6231 49.8598 93.0066 49.5198C93.3902 49.1692 93.582 48.6911 93.582 48.0855C93.582 47.4692 93.3902 46.9911 93.0066 46.6511C92.6231 46.3111 92.0426 46.1411 91.2651 46.1411H88.093L89.2126 44.914V51.241Z" fill="#2361A9"/>
<path d="M100.231 55.1934V46.1411H96.7476V44.0374H106.233V46.1411H102.75V55.1934H100.231Z" fill="#2361A9"/>
<path d="M105.611 55.1934L110.462 44.0374H112.95L117.817 55.1934H115.174L111.193 45.3443H112.188L108.192 55.1934H105.611ZM108.036 52.8028L108.705 50.8426H114.303L114.987 52.8028H108.036Z" fill="#2361A9"/>
<path d="M118.946 55.1934V44.0374H121.465V53.0897H126.923V55.1934H118.946Z" fill="#2361A9"/>
<path d="M0 69.9336V62.1707H0.937493L6.2309 68.5473H5.73928V62.1707H6.88257V69.9336H5.94508L0.651672 63.5569H1.14328V69.9336H0Z" fill="#2361A9"/>
<path d="M11.9419 70.0001C11.3321 70.0001 10.791 69.8707 10.3184 69.612C9.84585 69.3532 9.47237 68.9983 9.19799 68.5473C8.9236 68.089 8.7864 67.5714 8.7864 66.9948C8.7864 66.4107 8.9236 65.8932 9.19799 65.4422C9.47237 64.9912 9.84585 64.64 10.3184 64.3887C10.791 64.1299 11.3321 64.0005 11.9419 64.0005C12.544 64.0005 13.0813 64.1299 13.5539 64.3887C14.0341 64.64 14.4075 64.9912 14.6743 65.4422C14.9487 65.8858 15.0859 66.4033 15.0859 66.9948C15.0859 67.5788 14.9487 68.0964 14.6743 68.5473C14.4075 68.9983 14.0341 69.3532 13.5539 69.612C13.0813 69.8707 12.544 70.0001 11.9419 70.0001ZM11.9419 69.0686C12.3306 69.0686 12.6774 68.9835 12.9823 68.8135C13.2948 68.6435 13.5387 68.4032 13.714 68.0927C13.8893 67.7748 13.9769 67.4088 13.9769 66.9948C13.9769 66.5734 13.8893 66.2111 13.714 65.908C13.5387 65.5975 13.2948 65.3572 12.9823 65.1871C12.6774 65.0171 12.3306 64.9321 11.9419 64.9321C11.5532 64.9321 11.2064 65.0171 10.9015 65.1871C10.5966 65.3572 10.3527 65.5975 10.1698 65.908C9.98685 66.2111 9.89539 66.5734 9.89539 66.9948C9.89539 67.4088 9.98685 67.7748 10.1698 68.0927C10.3527 68.4032 10.5966 68.6435 10.9015 68.8135C11.2064 68.9835 11.5532 69.0686 11.9419 69.0686Z" fill="#2361A9"/>
<path d="M16.8324 69.9336V64.056H17.8843V65.6529L17.7814 65.2537C17.949 64.847 18.2311 64.5365 18.6274 64.3221C19.0237 64.1077 19.5115 64.0005 20.0908 64.0005V65.0319C20.0451 65.0245 19.9993 65.0208 19.9536 65.0208C19.9155 65.0208 19.8774 65.0208 19.8393 65.0208C19.2524 65.0208 18.7875 65.1908 18.4445 65.5309C18.1015 65.871 17.93 66.3626 17.93 67.0059V69.9336H16.8324Z" fill="#2361A9"/>
<path d="M23.9986 70.0001C23.3888 70.0001 22.9163 69.8412 22.5809 69.5232C22.2456 69.2053 22.0779 68.7507 22.0779 68.1592V62.7695H23.1754V68.1148C23.1754 68.4328 23.2555 68.6767 23.4155 68.8468C23.5832 69.0168 23.8195 69.1018 24.1244 69.1018C24.4673 69.1018 24.7532 69.0094 24.9818 68.8246L25.3248 69.5898C25.1571 69.7303 24.9551 69.8338 24.7189 69.9003C24.4902 69.9668 24.2501 70.0001 23.9986 70.0001ZM21.0489 64.9321V64.056H24.9132V64.9321H21.0489Z" fill="#2361A9"/>
<path d="M30.1159 64.0005C30.6113 64.0005 31.0458 64.0929 31.4192 64.2778C31.8003 64.4626 32.0976 64.7435 32.311 65.1206C32.5244 65.4976 32.6311 65.9745 32.6311 66.5512V69.9336H31.5336V66.6732C31.5336 66.1039 31.3887 65.6751 31.0991 65.3867C30.8171 65.0984 30.4169 64.9542 29.8987 64.9542C29.5099 64.9542 29.1708 65.0282 28.8811 65.176C28.5915 65.3239 28.3667 65.542 28.2066 65.8303C28.0542 66.1187 27.9779 66.4772 27.9779 66.9061V69.9336H26.8804V61.7049H27.9779V65.6418L27.7607 65.2204C27.9589 64.8359 28.2638 64.5365 28.6753 64.3221C29.0869 64.1077 29.5671 64.0005 30.1159 64.0005Z" fill="#2361A9"/>
<path d="M37.1381 69.9336L40.7624 62.1707H41.8942L45.5299 69.9336H44.3294L41.0939 62.7917H41.5512L38.3157 69.9336H37.1381ZM38.6816 67.9929L38.9903 67.1057H43.4948L43.8264 67.9929H38.6816Z" fill="#2361A9"/>
<path d="M54.3722 64.0005C54.8601 64.0005 55.2907 64.0929 55.6642 64.2778C56.0376 64.4626 56.3273 64.7435 56.5331 65.1206C56.7465 65.4976 56.8532 65.9745 56.8532 66.5512V69.9336H55.7556V66.6732C55.7556 66.1039 55.6184 65.6751 55.344 65.3867C55.0697 65.0984 54.6848 64.9542 54.1893 64.9542C53.8235 64.9542 53.5034 65.0282 53.229 65.176C52.9546 65.3239 52.7412 65.542 52.5887 65.8303C52.4439 66.1187 52.3715 66.4772 52.3715 66.9061V69.9336H51.274V66.6732C51.274 66.1039 51.1368 65.6751 50.8624 65.3867C50.5956 65.0984 50.2107 64.9542 49.7077 64.9542C49.3494 64.9542 49.0331 65.0282 48.7587 65.176C48.4843 65.3239 48.2709 65.542 48.1185 65.8303C47.966 66.1187 47.8898 66.4772 47.8898 66.9061V69.9336H46.7923V64.056H47.8441V65.6196L47.6726 65.2204C47.8632 64.8359 48.1566 64.5365 48.5529 64.3221C48.9493 64.1077 49.4104 64.0005 49.9363 64.0005C50.5156 64.0005 51.0148 64.141 51.434 64.4219C51.8532 64.6955 52.1276 65.1132 52.2572 65.6751L51.8113 65.4976C51.9942 65.0467 52.3143 64.6844 52.7717 64.4108C53.229 64.1373 53.7625 64.0005 54.3722 64.0005Z" fill="#2361A9"/>
<path d="M61.7995 70.0001C61.1516 70.0001 60.58 69.8707 60.0846 69.612C59.5968 69.3532 59.2157 68.9983 58.9413 68.5473C58.6745 68.0964 58.5411 67.5788 58.5411 66.9948C58.5411 66.4107 58.6707 65.8932 58.9298 65.4422C59.1966 64.9912 59.5587 64.64 60.016 64.3887C60.4809 64.1299 61.003 64.0005 61.5823 64.0005C62.1691 64.0005 62.6874 64.1262 63.1371 64.3776C63.5868 64.6289 63.9374 64.9838 64.1889 65.4422C64.4481 65.8932 64.5777 66.4218 64.5777 67.028C64.5777 67.0724 64.5739 67.1242 64.5662 67.1833C64.5662 67.2424 64.5624 67.2979 64.5548 67.3496H59.3986V66.5844H63.9832L63.5373 66.8506C63.5449 66.4735 63.4649 66.1372 63.2972 65.8414C63.1295 65.5457 62.897 65.3165 62.5998 65.1539C62.3102 64.9838 61.971 64.8988 61.5823 64.8988C61.2012 64.8988 60.862 64.9838 60.5647 65.1539C60.2675 65.3165 60.035 65.5494 59.8673 65.8525C59.6997 66.1482 59.6158 66.4883 59.6158 66.8728V67.0502C59.6158 67.4421 59.7073 67.7932 59.8902 68.1038C60.0807 68.4069 60.3437 68.6435 60.6791 68.8135C61.0144 68.9835 61.3993 69.0686 61.8338 69.0686C62.192 69.0686 62.5159 69.0094 62.8056 68.8911C63.1028 68.7728 63.362 68.5954 63.583 68.3588L64.1889 69.0464C63.9146 69.3569 63.5716 69.5935 63.16 69.7561C62.756 69.9188 62.3025 70.0001 61.7995 70.0001Z" fill="#2361A9"/>
<path d="M66.3304 69.9336V64.056H67.3822V65.6529L67.2793 65.2537C67.447 64.847 67.729 64.5365 68.1253 64.3221C68.5217 64.1077 69.0095 64.0005 69.5887 64.0005V65.0319C69.543 65.0245 69.4973 65.0208 69.4515 65.0208C69.4134 65.0208 69.3753 65.0208 69.3372 65.0208C68.7503 65.0208 68.2854 65.1908 67.9424 65.5309C67.5994 65.871 67.4279 66.3626 67.4279 67.0059V69.9336H66.3304Z" fill="#2361A9"/>
<path d="M71.1701 69.9336V64.056H72.2677V69.9336H71.1701ZM71.7189 62.9248C71.5055 62.9248 71.3264 62.8583 71.1816 62.7252C71.0444 62.5921 70.9758 62.4295 70.9758 62.2372C70.9758 62.0376 71.0444 61.8713 71.1816 61.7382C71.3264 61.6051 71.5055 61.5386 71.7189 61.5386C71.9323 61.5386 72.1076 61.6051 72.2448 61.7382C72.3896 61.8639 72.462 62.0228 72.462 62.2151C72.462 62.4147 72.3934 62.5847 72.2562 62.7252C72.1191 62.8583 71.9399 62.9248 71.7189 62.9248Z" fill="#2361A9"/>
<path d="M77.2329 70.0001C76.6156 70.0001 76.063 69.8707 75.5752 69.612C75.095 69.3532 74.7177 68.9983 74.4433 68.5473C74.1689 68.0964 74.0317 67.5788 74.0317 66.9948C74.0317 66.4107 74.1689 65.8932 74.4433 65.4422C74.7177 64.9912 75.095 64.64 75.5752 64.3887C76.063 64.1299 76.6156 64.0005 77.2329 64.0005C77.7817 64.0005 78.2695 64.1077 78.6963 64.3221C79.1308 64.5291 79.4661 64.8396 79.7024 65.2537L78.8678 65.7749C78.6697 65.4866 78.4258 65.2758 78.1361 65.1428C77.8541 65.0023 77.5492 64.9321 77.2215 64.9321C76.8252 64.9321 76.4707 65.0171 76.1582 65.1871C75.8457 65.3572 75.598 65.5975 75.4151 65.908C75.2322 66.2111 75.1407 66.5734 75.1407 66.9948C75.1407 67.4162 75.2322 67.7821 75.4151 68.0927C75.598 68.4032 75.8457 68.6435 76.1582 68.8135C76.4707 68.9835 76.8252 69.0686 77.2215 69.0686C77.5492 69.0686 77.8541 69.002 78.1361 68.869C78.4258 68.7285 78.6697 68.5141 78.8678 68.2257L79.7024 68.7359C79.4661 69.1425 79.1308 69.4567 78.6963 69.6785C78.2695 69.8929 77.7817 70.0001 77.2329 70.0001Z" fill="#2361A9"/>
<path d="M85.1135 69.9336V68.6915L85.0563 68.4586V66.3405C85.0563 65.8895 84.9191 65.542 84.6447 65.298C84.378 65.0467 83.974 64.921 83.4328 64.921C83.0746 64.921 82.724 64.9801 82.381 65.0984C82.038 65.2093 81.7484 65.3609 81.5121 65.5531L81.0548 64.7546C81.3673 64.5106 81.7408 64.3258 82.1752 64.2001C82.6173 64.0671 83.0784 64.0005 83.5586 64.0005C84.3894 64.0005 85.0296 64.1964 85.4793 64.5883C85.929 64.9801 86.1538 65.579 86.1538 66.3848V69.9336H85.1135ZM83.1241 70.0001C82.6745 70.0001 82.2781 69.9262 81.9351 69.7783C81.5998 69.6305 81.3406 69.4271 81.1577 69.1684C80.9748 68.9022 80.8833 68.6028 80.8833 68.2701C80.8833 67.9522 80.9595 67.6639 81.112 67.4051C81.272 67.1463 81.5274 66.9393 81.878 66.7841C82.2362 66.6288 82.7164 66.5512 83.3185 66.5512H85.2392V67.3164H83.3642C82.8155 67.3164 82.4458 67.4051 82.2552 67.5825C82.0647 67.76 81.9694 67.9744 81.9694 68.2257C81.9694 68.5141 82.0876 68.747 82.3239 68.9244C82.5601 69.0944 82.8879 69.1795 83.3071 69.1795C83.7187 69.1795 84.0769 69.0907 84.3818 68.9133C84.6943 68.7359 84.9191 68.4771 85.0563 68.137L85.2735 68.869C85.1287 69.2164 84.8734 69.4937 84.5075 69.7007C84.1417 69.9003 83.6805 70.0001 83.1241 70.0001Z" fill="#2361A9"/>
<g clip-path="url(#clip0_263_2272)">
<path d="M21.6369 31.7876L27.7908 6.98411L29.44 32.3077H36.3446L34.24 0.0123832H23.4585L18.1785 21.7201L12.8862 0.0123832H2.10462L0 32.3077H6.90462L8.55385 6.98411L14.7077 31.7876H21.6369ZM113.908 12.247H118.068L119.508 9.58457L118.08 6.97172H113.908V12.247ZM102.006 12.247H105.649V22.7107C105.649 28.2089 107.028 32.3077 113.058 32.3077C115.237 32.3077 117.046 31.7504 118.068 31.3418V25.4722C114.462 26.1533 112.702 26.3762 112.702 21.5467V0H105.649V6.98411H102.56L102.006 12.247ZM68.8738 21.7325C69.3539 27.825 78.7815 26.76 82.8554 25.4722L83.8646 30.735C74.3262 34.4004 61.6 32.0105 61.6 19.5283C61.6 2.89766 85.2308 1.08972 85.2308 18.6614C85.2308 19.9864 85.0831 21.1628 84.9846 21.7201H68.8738V21.7325ZM78.08 16.4201C78.08 9.54742 68.8615 9.44836 68.9231 16.4201H78.08ZM93.1692 13.671C93.1692 10.5009 99.0277 11.5287 100.8 12.247L101.342 6.98411C95.4092 5.13902 86.2031 6.51355 86.2154 14.3769C86.0923 22.1287 97.44 21.0638 97.44 24.754C97.44 28.6423 88.5539 26.6486 86.6215 25.4722L85.6123 30.7474C92.2092 33.6822 104.751 33.0259 104.418 24.2215C104.308 15.6647 93.1692 17.1755 93.1692 13.671Z" fill="#2361A9"/>
<path d="M44.0248 21.7325C44.5048 27.825 53.9325 26.76 58.0063 25.4722L59.0156 30.735C49.4771 34.4004 36.751 32.0105 36.751 19.5282C36.751 2.89765 60.3817 1.0897 60.3817 18.6614C60.3817 19.9864 60.234 21.1628 60.1356 21.7201H44.0248V21.7325ZM53.231 16.4201C53.231 9.54741 44.0125 9.44835 44.074 16.4201H53.231Z" fill="#E40137"/>
<path d="M121.834 0L127.077 9.58457L121.834 19.2311H116.591L121.834 9.58457L116.591 0H121.834Z" fill="#E40137"/>
</g>
<defs>
<clipPath id="clip0_263_2272">
<rect width="127.077" height="32.3077" fill="white"/>
</clipPath>
</defs>
</svg>
