<svg width="119" height="50" viewBox="0 0 119 50" fill="none" xmlns="http://www.w3.org/2000/svg">
<g clip-path="url(#clip0_246_6236)">
<path d="M27.0031 43.7516C27.4643 44.0527 28.3064 44.3739 29.0884 44.3739C30.2313 44.3739 30.7726 43.7918 30.7726 43.0692C30.7726 42.3064 30.3315 41.905 29.1485 41.4634C27.5846 40.9014 26.8427 40.0383 26.8427 38.9945C26.8427 37.5894 27.9655 36.4453 29.8503 36.4453C30.7325 36.4453 31.4945 36.7063 31.9957 36.9873L31.5947 38.1314C31.2539 37.9106 30.6323 37.6296 29.8102 37.6296C28.8678 37.6296 28.3465 38.1715 28.3465 38.8138C28.3465 39.5364 28.8678 39.8576 29.9907 40.2791C31.4945 40.8612 32.2765 41.6039 32.2765 42.9086C32.2765 44.4341 31.0935 45.5381 29.0282 45.5381C28.0658 45.5381 27.2036 45.2771 26.582 44.9359L27.0031 43.7516Z" fill="#0056A4"/>
<path d="M34.3203 32.5913H35.9043V38.0309H35.9444C36.2051 37.5893 36.5861 37.1879 37.0673 36.9069C37.5284 36.6459 38.0899 36.4653 38.6914 36.4653C39.8543 36.4653 41.7191 37.1879 41.7191 40.1987V45.3774H40.135V40.3794C40.135 38.9743 39.6137 37.79 38.13 37.79C37.1074 37.79 36.3053 38.5126 36.0046 39.3758C35.9244 39.5965 35.9043 39.8173 35.9043 40.1385V45.3974H34.3203V32.5913Z" fill="#0056A4"/>
<path d="M52.1666 40.9412C52.1666 44.1528 49.9409 45.5578 47.8356 45.5578C45.4897 45.5578 43.665 43.8316 43.665 41.0817C43.665 38.1712 45.5699 36.4651 47.976 36.4651C50.4823 36.4651 52.1666 38.2917 52.1666 40.9412ZM45.2691 41.0416C45.2691 42.9484 46.3719 44.3937 47.9158 44.3937C49.4196 44.3937 50.5625 42.9685 50.5625 41.0014C50.5625 39.5362 49.8206 37.6494 47.9559 37.6494C46.0912 37.6494 45.2691 39.3756 45.2691 41.0416Z" fill="#0056A4"/>
<path d="M54.171 39.5161C54.171 38.392 54.1309 37.5088 54.0908 36.6658H55.5144L55.5946 38.1512H55.6347C56.2764 37.0873 57.2989 36.4651 58.7225 36.4651C60.8279 36.4651 62.4119 38.2515 62.4119 40.881C62.4119 44.0123 60.5071 45.5578 58.4619 45.5578C57.319 45.5578 56.2964 45.056 55.7751 44.1929H55.735V48.93H54.171V39.5161ZM55.735 41.8244C55.735 42.0653 55.7751 42.266 55.8152 42.4667C56.0959 43.5707 57.0583 44.3134 58.1812 44.3134C59.8454 44.3134 60.8279 42.9484 60.8279 40.9412C60.8279 39.1949 59.9055 37.7096 58.2413 37.7096C57.1586 37.7096 56.1561 38.4924 55.8553 39.6767C55.7951 39.8774 55.755 40.0982 55.755 40.319V41.8244H55.735Z" fill="#0056A4"/>
<path d="M64.3966 39.5161C64.3966 38.392 64.3565 37.5088 64.3164 36.6658H65.74L65.8202 38.1512H65.8603C66.5019 37.0873 67.5245 36.4651 68.9481 36.4651C71.0535 36.4651 72.6375 38.2515 72.6375 40.881C72.6375 44.0123 70.7327 45.5578 68.6875 45.5578C67.5446 45.5578 66.522 45.056 66.0007 44.1929H65.9606V48.93H64.3966V39.5161ZM65.9606 41.8244C65.9606 42.0653 66.0007 42.266 66.0408 42.4667C66.3215 43.5707 67.2839 44.3134 68.4068 44.3134C70.071 44.3134 71.0535 42.9484 71.0535 40.9412C71.0535 39.1949 70.1311 37.7096 68.4669 37.7096C67.3842 37.7096 66.3816 38.4924 66.0809 39.6767C66.0207 39.8774 65.9806 40.0982 65.9806 40.319V41.8244H65.9606Z" fill="#0056A4"/>
<path d="M76.3878 34.2172C76.4079 34.7591 76.0069 35.1807 75.3853 35.1807C74.8239 35.1807 74.4229 34.7391 74.4229 34.2172C74.4229 33.6552 74.8439 33.2336 75.4053 33.2336C76.0069 33.2336 76.3878 33.6552 76.3878 34.2172ZM74.6234 36.666H76.2074V45.3774H74.6234V36.666Z" fill="#0056A4"/>
<path d="M78.8341 39.0143C78.8341 38.111 78.8141 37.3683 78.7539 36.6658H80.1575L80.2377 38.111H80.2778C80.7189 37.2881 81.7214 36.4651 83.145 36.4651C84.3481 36.4651 86.2128 37.1877 86.2128 40.1785V45.3772H84.6288V40.3591C84.6288 38.9541 84.1075 37.7899 82.6237 37.7899C81.5811 37.7899 80.779 38.5325 80.4983 39.4157C80.4181 39.6164 80.3981 39.8774 80.3981 40.1584V45.3973H78.8141V39.0143H78.8341Z" fill="#0056A4"/>
<path d="M96.2186 44.1128C96.2186 46.1 95.8176 47.3244 94.9755 48.0871C94.1333 48.87 92.9102 49.1309 91.8074 49.1309C90.7648 49.1309 89.6219 48.87 88.9201 48.4083L89.3211 47.204C89.9026 47.5653 90.7849 47.8864 91.8676 47.8864C93.4917 47.8864 94.6747 47.0434 94.6747 44.8555V43.892H94.6346C94.1534 44.6949 93.211 45.3573 91.8676 45.3573C89.7021 45.3573 88.1582 43.5307 88.1582 41.102C88.1582 38.1514 90.0831 36.4854 92.0681 36.4854C93.5719 36.4854 94.414 37.2682 94.775 37.9908H94.8151L94.8953 36.6861H96.2788C96.2387 37.3083 96.1986 38.0108 96.1986 39.0747V44.1128H96.2186ZM94.6547 40.0984C94.6547 39.8374 94.6346 39.5966 94.5745 39.3758C94.2937 38.4524 93.5118 37.7098 92.3689 37.7098C90.8651 37.7098 89.7823 38.9944 89.7823 41.0016C89.7823 42.7078 90.6445 44.1329 92.3488 44.1329C93.3113 44.1329 94.1935 43.5307 94.5343 42.507C94.6146 42.2461 94.6547 41.9249 94.6547 41.664V40.0984Z" fill="#0056A4"/>
<path d="M76.5886 11.3397C76.5886 8.75678 81.3714 9.59676 82.8397 10.1638L83.2803 5.87984C78.4136 4.38887 70.8828 5.50184 70.9038 11.9067C70.7989 18.2276 80.0708 17.3666 80.0708 20.3695C80.0708 23.5405 72.7917 21.9025 71.1975 20.9575L70.3584 25.2414C75.7705 27.6354 86.0283 27.0894 85.7556 19.9286C85.6926 12.9567 76.5886 14.1747 76.5886 11.3397Z" fill="#0056A4"/>
<path d="M50.7441 16.1067C50.7441 26.2705 61.1697 28.2234 68.9732 25.2205L68.1341 20.9366C64.7988 22.0076 57.0792 22.8475 56.6807 17.8916H69.8752C69.9591 17.4296 70.085 16.4847 70.085 15.3927C70.085 1.07097 50.7441 2.54094 50.7441 16.1067ZM56.7226 13.5657C56.6597 7.89583 64.2114 7.95883 64.2114 13.5657H56.7226Z" fill="#0056A4"/>
<path d="M92.5731 17.7026V0.188965H86.7834V5.87985H84.2452L83.8047 10.1638H86.7834V18.6896C86.7834 23.1625 87.9162 26.5014 92.8668 26.5014C94.6498 26.5014 96.1392 26.0394 96.9573 25.7035V20.9155C94.0205 21.4825 92.5731 21.6715 92.5731 17.7026Z" fill="#0056A4"/>
<path d="M19.5079 0.188965L15.1657 17.8916L10.8444 0.188965H2.03406L0.292969 26.5224H5.95677L7.2993 5.90085L12.3548 26.1024H17.9976V26.0814L23.0321 5.87985L24.3956 26.5014H30.0594L28.3183 0.188965H19.5079Z" fill="#0056A4"/>
<path d="M103.585 22.3645C102.431 22.3645 101.508 23.2885 101.508 24.4435C101.508 25.5984 102.431 26.5224 103.585 26.5224C104.717 26.5224 105.661 25.5984 105.661 24.4435C105.661 23.2885 104.717 22.3645 103.585 22.3645Z" fill="#E40138"/>
<path d="M112.185 22.3645C111.031 22.3645 110.108 23.2885 110.108 24.4435C110.108 25.5984 111.031 26.5224 112.185 26.5224C113.339 26.5224 114.262 25.5984 114.262 24.4435C114.262 23.2885 113.339 22.3645 112.185 22.3645Z" fill="#E40138"/>
<path d="M117.302 10.9408H105.513C104.925 10.9408 104.443 11.4238 104.443 12.0118C104.443 12.5997 104.925 13.0827 105.513 13.0827H115.938L115.267 15.3297H104.674C104.128 15.3297 103.688 15.7707 103.688 16.3167C103.688 16.8627 104.128 17.3037 104.674 17.3037H114.701L114.071 19.4036H102.114L101.317 13.0827L100.562 6.90886C100.499 6.42587 100.142 5.98488 99.681 5.87988H93.5977V10.1638H98.5902L99.9537 20.4746C99.9537 20.4746 100.017 21.9236 101.317 21.9236H114.533C115.645 21.9236 115.854 20.7686 115.854 20.7686L118.476 12.9777C118.476 12.9777 119.253 10.9408 117.302 10.9408Z" fill="#E40138"/>
<path d="M30.417 16.1067C30.417 26.2705 40.8426 28.2234 48.646 25.2205L47.807 20.9366C44.4716 22.0076 36.7521 22.8475 36.3535 17.8916H49.5481C49.632 17.4296 49.7578 16.4847 49.7578 15.3927C49.7578 1.07097 30.417 2.54094 30.417 16.1067ZM36.3955 13.5657C36.3325 7.89583 43.8843 7.95883 43.8843 13.5657H36.3955Z" fill="#E40138"/>
</g>
<defs>
<clipPath id="clip0_246_6236">
<rect width="118.919" height="50" fill="white"/>
</clipPath>
</defs>
</svg>
