<svg width="158" height="100" viewBox="0 0 158 100" fill="none" xmlns="http://www.w3.org/2000/svg">
<mask id="mask0_276_5743" style="mask-type:alpha" maskUnits="userSpaceOnUse" x="0" y="0" width="158" height="100">
<rect width="157.143" height="100" fill="#D9D9D9"/>
</mask>
<g mask="url(#mask0_276_5743)">
<path d="M9.82852 42.2422L28.659 42.2422C29.3063 42.2422 29.8359 42.7271 29.8359 43.3199L29.8359 60.0563L8.65162 60.0563L8.65162 43.3199C8.65162 42.7271 9.18122 42.2422 9.82852 42.2422Z" fill="white" stroke="#0156A3" stroke-width="2" stroke-miterlimit="10" stroke-linejoin="round"/>
<path d="M14.0004 44.5677H12.0723C11.4067 44.5677 10.8672 45.1073 10.8672 45.7728C10.8672 46.4384 11.4067 46.9779 12.0723 46.9779H14.0004C14.666 46.9779 15.2055 46.4384 15.2055 45.7728C15.2055 45.1073 14.666 44.5677 14.0004 44.5677Z" fill="#0062AD"/>
<path d="M1.42871 90.8938V56.6619C1.42871 55.6096 2.42907 54.7601 3.66832 54.7601H34.6496V92.7956H3.66832C2.42907 92.7956 1.42871 91.9462 1.42871 90.8938Z" fill="white" stroke="#0156A3" stroke-width="2" stroke-miterlimit="10" stroke-linejoin="round"/>
<path d="M17.5202 73.7036V55.2416H12.5029V73.7036L13.406 73.4419L14.1658 73.7036L14.9829 73.4419L15.8717 73.7036L16.6888 73.4419L17.5202 73.7036Z" fill="#0062AD"/>
<path d="M39.3623 34.3895C39.3623 34.3895 41.3796 11.4286 51.2785 11.4286C61.1773 11.4286 65.7512 29.2523 66.6275 35.7809" stroke="#0062AD" stroke-width="4" stroke-miterlimit="10"/>
<path d="M44.6063 93.0365L34.0012 35.0617C33.885 34.4264 34.3924 33.8492 35.0374 33.8831L80.2856 36.2618C81.643 36.3332 82.7829 37.3083 83.0635 38.6384L93.6816 88.9713C94.0726 90.8247 92.6693 92.5721 90.7752 92.5904L44.6063 93.0365Z" fill="white" stroke="#0156A3" stroke-width="2" stroke-miterlimit="10"/>
<path d="M24.2331 93.0365C22.3775 93.0365 20.9669 91.3689 21.2746 89.539L30.2236 36.3192C30.4665 34.8746 31.7172 33.8167 33.1821 33.8167H33.7739L44.3661 93.0365H24.2331Z" fill="#DBE0E5" stroke="#0156A3" stroke-width="2" stroke-miterlimit="10"/>
<path d="M47.9772 46.0939C49.9715 46.0939 51.5881 44.4772 51.5881 42.4829C51.5881 40.4886 49.9715 38.8719 47.9772 38.8719C45.9829 38.8719 44.3662 40.4886 44.3662 42.4829C44.3662 44.4772 45.9829 46.0939 47.9772 46.0939Z" fill="#DBE0E5"/>
<path d="M72.5309 45.1309C74.5252 45.1309 76.1418 43.5142 76.1418 41.5199C76.1418 39.5256 74.5252 37.9089 72.5309 37.9089C70.5366 37.9089 68.9199 39.5256 68.9199 41.5199C68.9199 43.5142 70.5366 45.1309 72.5309 45.1309Z" fill="#DBE0E5"/>
<path d="M47.9766 42.2421C47.9766 42.2421 44.1287 12.6057 54.639 11.9232C65.8299 11.2024 72.2905 41.2792 72.2905 41.2792" stroke="#0062AD" stroke-width="4" stroke-miterlimit="10" stroke-linecap="round"/>
<path d="M85.7734 53.9624C85.7734 53.9624 87.1271 40.7977 93.7695 40.7977C100.412 40.7977 103.481 51.0169 104.069 54.7601" stroke="#0062AD" stroke-width="3" stroke-miterlimit="10"/>
<path d="M89.3425 92.7956L82.2844 54.2113C82.1682 53.576 82.6756 52.9988 83.3206 53.0328L112.585 54.5712C113.943 54.6426 115.083 55.6178 115.363 56.9478L122.101 88.888C122.492 90.7414 121.089 92.4888 119.195 92.5071L89.3425 92.7956Z" fill="white" stroke="#0156A3" stroke-width="2" stroke-miterlimit="10"/>
<path d="M76.8015 92.7956C74.9459 92.7956 73.5353 91.128 73.843 89.2981L79.6032 55.042C79.8047 53.8438 80.842 52.9663 82.057 52.9663L89.181 92.7956H76.8015Z" fill="#DBE0E5" stroke="#0156A3" stroke-width="2" stroke-miterlimit="10"/>
<path d="M91.6103 61.2237C92.9515 61.2237 94.0389 60.1364 94.0389 58.7951C94.0389 57.4538 92.9515 56.3665 91.6103 56.3665C90.269 56.3665 89.1816 57.4538 89.1816 58.7951C89.1816 60.1364 90.269 61.2237 91.6103 61.2237Z" fill="#DBE0E5"/>
<path d="M108.124 60.576C109.465 60.576 110.553 59.4886 110.553 58.1474C110.553 56.8061 109.465 55.7188 108.124 55.7188C106.783 55.7188 105.695 56.8061 105.695 58.1474C105.695 59.4886 106.783 60.576 108.124 60.576Z" fill="#DBE0E5"/>
<path d="M91.5328 58.6118C91.5328 58.6118 88.9392 41.6765 96.0232 41.2865C103.566 40.8746 107.92 58.0615 107.92 58.0615" stroke="#0062AD" stroke-width="3" stroke-miterlimit="10" stroke-linecap="round"/>
</g>
</svg>
