<svg width="158" height="100" viewBox="0 0 158 100" fill="none" xmlns="http://www.w3.org/2000/svg">
<mask id="mask0_263_1162" style="mask-type:alpha" maskUnits="userSpaceOnUse" x="0" y="0" width="158" height="100">
<rect width="157.143" height="100" fill="#D9D9D9"/>
</mask>
<g mask="url(#mask0_263_1162)">
<path d="M9.82852 42.2419L28.659 42.2419C29.3063 42.2419 29.8359 42.7269 29.8359 43.3196L29.8359 60.056L8.65162 60.056L8.65162 43.3196C8.65162 42.7269 9.18122 42.2419 9.82852 42.2419Z" fill="white" stroke="#0156A3" stroke-width="2" stroke-miterlimit="10" stroke-linejoin="round"/>
<path d="M14.0004 44.5674H12.0723C11.4067 44.5674 10.8672 45.1069 10.8672 45.7725C10.8672 46.438 11.4067 46.9776 12.0723 46.9776H14.0004C14.666 46.9776 15.2055 46.438 15.2055 45.7725C15.2055 45.1069 14.666 44.5674 14.0004 44.5674Z" fill="#0062AD"/>
<path d="M1.42871 90.8937V56.6618C1.42871 55.6095 2.42907 54.76 3.66832 54.76H34.6496V92.7955H3.66832C2.42907 92.7955 1.42871 91.946 1.42871 90.8937Z" fill="white" stroke="#0156A3" stroke-width="2" stroke-miterlimit="10" stroke-linejoin="round"/>
<path d="M17.5202 73.7035V55.2415H12.5029V73.7035L13.406 73.4418L14.1658 73.7035L14.9829 73.4418L15.8717 73.7035L16.6888 73.4418L17.5202 73.7035Z" fill="#0062AD"/>
<path d="M39.3623 34.3894C39.3623 34.3894 41.3796 11.4285 51.2785 11.4285C61.1773 11.4285 65.7512 29.2522 66.6275 35.7808" stroke="#0062AD" stroke-width="4" stroke-miterlimit="10"/>
<path d="M44.6063 93.0362L34.0012 35.0614C33.885 34.4261 34.3924 33.8489 35.0374 33.8829L80.2856 36.2616C81.643 36.3329 82.7829 37.3081 83.0635 38.6382L93.6816 88.971C94.0726 90.8244 92.6693 92.5718 90.7752 92.5901L44.6063 93.0362Z" fill="white" stroke="#0156A3" stroke-width="2" stroke-miterlimit="10"/>
<path d="M24.2331 93.0362C22.3775 93.0362 20.9669 91.3686 21.2746 89.5387L30.2236 36.3189C30.4665 34.8743 31.7172 33.8164 33.1821 33.8164H33.7739L44.3661 93.0362H24.2331Z" fill="#DBE0E5" stroke="#0156A3" stroke-width="2" stroke-miterlimit="10"/>
<path d="M47.9772 46.0938C49.9715 46.0938 51.5881 44.4771 51.5881 42.4828C51.5881 40.4885 49.9715 38.8718 47.9772 38.8718C45.9829 38.8718 44.3662 40.4885 44.3662 42.4828C44.3662 44.4771 45.9829 46.0938 47.9772 46.0938Z" fill="#DBE0E5"/>
<path d="M72.5309 45.1309C74.5252 45.1309 76.1418 43.5142 76.1418 41.5199C76.1418 39.5256 74.5252 37.9089 72.5309 37.9089C70.5366 37.9089 68.9199 39.5256 68.9199 41.5199C68.9199 43.5142 70.5366 45.1309 72.5309 45.1309Z" fill="#DBE0E5"/>
<path d="M47.9766 42.2421C47.9766 42.2421 44.1287 12.6057 54.639 11.9232C65.8299 11.2024 72.2905 41.2792 72.2905 41.2792" stroke="#0062AD" stroke-width="4" stroke-miterlimit="10" stroke-linecap="round"/>
<path d="M85.7734 53.9622C85.7734 53.9622 87.1271 40.7976 93.7695 40.7976C100.412 40.7976 103.481 51.0168 104.069 54.76" stroke="#0062AD" stroke-width="3" stroke-miterlimit="10"/>
<path d="M89.3425 92.7956L82.2844 54.2113C82.1682 53.576 82.6756 52.9988 83.3206 53.0328L112.585 54.5712C113.943 54.6426 115.083 55.6178 115.363 56.9478L122.101 88.888C122.492 90.7414 121.089 92.4888 119.195 92.5071L89.3425 92.7956Z" fill="white" stroke="#0156A3" stroke-width="2" stroke-miterlimit="10"/>
<path d="M76.8015 92.7956C74.9459 92.7956 73.5353 91.128 73.843 89.2981L79.6032 55.042C79.8047 53.8438 80.842 52.9663 82.057 52.9663L89.181 92.7956H76.8015Z" fill="#DBE0E5" stroke="#0156A3" stroke-width="2" stroke-miterlimit="10"/>
<path d="M91.6103 61.2234C92.9515 61.2234 94.0389 60.1361 94.0389 58.7948C94.0389 57.4535 92.9515 56.3662 91.6103 56.3662C90.269 56.3662 89.1816 57.4535 89.1816 58.7948C89.1816 60.1361 90.269 61.2234 91.6103 61.2234Z" fill="#DBE0E5"/>
<path d="M108.124 60.576C109.465 60.576 110.553 59.4886 110.553 58.1474C110.553 56.8061 109.465 55.7188 108.124 55.7188C106.783 55.7188 105.695 56.8061 105.695 58.1474C105.695 59.4886 106.783 60.576 108.124 60.576Z" fill="#DBE0E5"/>
<path d="M91.5328 58.6117C91.5328 58.6117 88.9392 41.6764 96.0232 41.2863C103.566 40.8745 107.92 58.0614 107.92 58.0614" stroke="#0062AD" stroke-width="3" stroke-miterlimit="10" stroke-linecap="round"/>
</g>
</svg>
