<svg width="158" height="100" viewBox="0 0 158 100" fill="none" xmlns="http://www.w3.org/2000/svg">
<mask id="mask0_263_1337" style="mask-type:alpha" maskUnits="userSpaceOnUse" x="0" y="0" width="158" height="100">
<rect width="157.143" height="100" fill="#D9D9D9"/>
</mask>
<g mask="url(#mask0_263_1337)">
<path d="M136.083 34.3699L106.678 17.8035L18.586 68.4025C18.586 68.4025 3.8044 78.2637 6.96186 88.0435C10.1193 97.8233 41.2183 88.6584 46.4279 85.941C51.6375 83.2237 136.083 34.3699 136.083 34.3699Z" stroke="#0062AD" stroke-width="1.5" stroke-miterlimit="10" stroke-linecap="round" stroke-linejoin="round"/>
<path d="M131.603 34.5462L106.56 20.2631L19.5966 70.107C19.5966 70.107 4.525 80.8634 10.1695 87.2748C15.8139 93.6861 39.3613 86.5921 43.9095 84.7654C48.4577 82.9388 131.603 34.5462 131.603 34.5462Z" stroke="#0062AD" stroke-width="1.5" stroke-miterlimit="10" stroke-linecap="round" stroke-linejoin="round"/>
<path d="M136.083 34.3699L132.876 48.9966C132.708 49.7924 132.205 50.4796 131.494 50.882L56.136 93.8625C43.3023 99.6002 29.4358 99.7991 20.6112 95.5716L11.0527 91.6877C21.0597 94.3915 40.5163 88.6991 46.2514 86.0947L136.083 34.3699Z" fill="#0062AD" stroke="#0062AD" stroke-width="1.5" stroke-miterlimit="10" stroke-linecap="round" stroke-linejoin="round"/>
<path d="M14.4316 92.4474C14.4316 92.4474 20.8734 95.1874 20.9504 95.2642C23.22 96.2861 25.8791 96.9145 28.3344 97.3215C30.7762 97.7284 32.8056 97.9138 35.2836 97.9047C40.0492 97.8912 45.0323 97.1632 49.6349 95.7164C46.9304 95.9289 44.7877 95.8791 42.4547 95.4722C40.1217 95.0653 37.9065 94.2107 35.8498 93.0352C34.9574 92.5288 34.1239 92.2484 32.783 90.6072C28.2801 91.7918 23.9946 92.5062 19.5869 92.6735C16.964 92.7729 17.1225 92.8588 14.4316 92.4474Z" fill="white"/>
<path d="M37.2314 93.754C40.0673 92.9989 43.2247 91.968 46.9711 90.6252C48.7061 90.0012 50.3823 89.2235 51.9814 88.3102L134.46 41.0615" stroke="white" stroke-width="1.5" stroke-miterlimit="10" stroke-linecap="round" stroke-linejoin="round"/>
<path d="M20.1396 95.323C26.373 95.8655 30.7717 95.4767 37.2316 93.754" stroke="#0062AD" stroke-width="1.5" stroke-miterlimit="10" stroke-linecap="round" stroke-linejoin="round"/>
<path d="M19.8817 69.89L106.56 20.2676L106.315 25.5169L19.8998 75.2659C18.9349 75.8221 18.0515 76.4958 17.2633 77.2825C15.0752 79.4573 10.8034 84.0375 10.0559 87.329C7.90867 83.929 9.16803 81.5371 11.0525 78.4038C12.0039 76.8213 15.8816 72.9103 18.5815 70.7581C18.9938 70.4371 19.4287 70.1477 19.8817 69.89Z" fill="#0062AD" stroke="#0062AD" stroke-width="0.5" stroke-miterlimit="10" stroke-linejoin="round"/>
<path d="M106.37 26.0234L126.828 37.4129" stroke="#0062AD" stroke-width="1.5" stroke-miterlimit="10" stroke-linejoin="round"/>
<path d="M112.581 44.1044L112.599 20.462C112.599 20.2992 112.685 20.15 112.826 20.0687L124.74 13.2549C125.043 13.0831 125.419 13.3001 125.419 13.6483L125.297 37.2364C125.297 37.3947 125.211 37.5439 125.07 37.6253L113.261 44.4888C112.962 44.6696 112.581 44.4526 112.581 44.1044Z" fill="#0062AD" stroke="#0062AD" stroke-width="1.5" stroke-miterlimit="10" stroke-linejoin="round"/>
<path d="M93.5137 33.7142L93.6768 10.23C93.6813 9.88636 94.0527 9.66933 94.3517 9.84115L112.368 20.0686C112.508 20.1499 112.599 20.2992 112.599 20.4619L112.581 44.1089C112.581 44.457 112.205 44.674 111.901 44.5022L93.7402 34.112C93.5997 34.0307 93.5137 33.8769 93.5137 33.7142Z" fill="#EBF0F6" stroke="#0062AD" stroke-width="1.5" stroke-miterlimit="10" stroke-linejoin="round"/>
<path d="M110.809 19.1825L94.8816 10.1397C94.3471 9.83672 94.338 9.06808 94.868 8.7561L104.567 2.9687C105.772 2.2498 107.271 2.24528 108.481 2.95062L124.78 12.4863C125.07 12.6536 125.066 13.0695 124.776 13.2368L114.388 19.1734C113.278 19.8109 111.919 19.8109 110.809 19.1825Z" stroke="#0062AD" stroke-width="1.5" stroke-miterlimit="10" stroke-linejoin="round"/>
<path d="M109.809 17.0167L97.4642 9.94971C97.2241 9.80955 97.2196 9.46592 97.4551 9.32124L105.673 4.37482C106.574 3.83225 107.698 3.82773 108.604 4.36126L121.641 12.0567C121.881 12.1969 121.881 12.545 121.637 12.6852L114.139 17.0076C112.803 17.7808 111.15 17.7853 109.809 17.0167Z" stroke="#0062AD" stroke-width="1.5" stroke-miterlimit="10" stroke-linejoin="round"/>
<path d="M98.9814 10.8225L105.677 6.79389C106.578 6.25132 107.702 6.2468 108.608 6.78033L120.069 13.5443" stroke="#0062AD" stroke-width="1.5" stroke-miterlimit="10" stroke-linejoin="round"/>
<path d="M125.419 14.3762C125.419 13.4447 125.623 12.9022 124.391 12.2511" stroke="#0062AD" stroke-width="1.5" stroke-miterlimit="10"/>
<path d="M95.0535 8.64307C94.2381 9.09973 93.6401 9.25798 93.6764 10.6506" stroke="#0062AD" stroke-width="1.5" stroke-miterlimit="10"/>
<path d="M111.285 44.1497C112.427 44.751 112.291 45.0766 113.858 44.1451" stroke="#0062AD" stroke-width="1.5" stroke-miterlimit="10"/>
<path d="M106.247 4.11719L106.184 6.55422L98.9449 10.8722L97.2959 9.57452L106.247 4.11719Z" fill="#0062AD"/>
<path d="M26.6309 85.8823V82.6902L33.3897 78.6932L33.2765 81.926L26.6309 85.8823Z" fill="#0062AD" stroke="#0062AD" stroke-width="1.5" stroke-miterlimit="10" stroke-linejoin="round"/>
<path d="M19.7637 81.7V78.6932L26.6313 82.7896V85.8823L19.7637 81.7Z" fill="#EBF0F6" stroke="#0062AD" stroke-width="1.5" stroke-miterlimit="10" stroke-linejoin="round"/>
<path d="M26.5316 82.7308L19.7637 78.6932L26.6902 74.6963L33.3901 78.6932L26.5316 82.7308Z" fill="white" stroke="#0062AD" stroke-width="1.5" stroke-miterlimit="10" stroke-linejoin="round"/>
<path d="M88.9424 55.7199V46.2521C88.9424 46.0893 89.0285 45.9401 89.1689 45.8587L95.3887 42.2733C95.6922 42.0969 96.0682 42.3185 96.0682 42.6666L96.0637 52.1661C96.0637 52.3289 95.9776 52.4781 95.8372 52.5595L89.6174 56.1133C89.3184 56.2851 88.9424 56.0681 88.9424 55.7199Z" fill="#0062AD" stroke="#0062AD" stroke-width="1.5" stroke-miterlimit="10" stroke-linecap="round" stroke-linejoin="round"/>
<path d="M70.2472 45.5513L70.3786 36.504C70.3831 36.1604 70.7501 35.9479 71.0491 36.1151L88.7073 45.8633C88.8523 45.9447 88.9429 46.0939 88.9429 46.2612V55.7245C88.9429 56.0726 88.5669 56.2897 88.2633 56.1178L70.4737 45.9537C70.3333 45.8678 70.2427 45.7141 70.2472 45.5513Z" fill="#EBF0F6" stroke="#0062AD" stroke-width="1.5" stroke-miterlimit="10" stroke-linecap="round" stroke-linejoin="round"/>
<path d="M88.7167 45.8678L71.0812 36.1287C70.7731 35.9614 70.7686 35.5228 71.0676 35.3465L77.5728 31.4897C77.7132 31.4084 77.8899 31.4038 78.0303 31.4852L95.3895 41.4911C95.6931 41.6629 95.6931 42.1015 95.3895 42.2733L89.1652 45.8633C89.0248 45.9447 88.8572 45.9447 88.7167 45.8678Z" fill="white" stroke="#0062AD" stroke-width="1.5" stroke-miterlimit="10" stroke-linecap="round" stroke-linejoin="round"/>
<path d="M87.2529 55.3402L87.3028 45.2484" stroke="#0062AD" stroke-width="1.5" stroke-miterlimit="10" stroke-linejoin="round"/>
<path d="M85.5176 54.5489L85.5629 44.1271" stroke="#0062AD" stroke-width="1.5" stroke-miterlimit="10" stroke-linejoin="round"/>
<path d="M83.8145 53.5452L83.8779 43.1957" stroke="#0062AD" stroke-width="1.5" stroke-miterlimit="10" stroke-linejoin="round"/>
<path d="M82.1152 52.4375L82.1651 42.3457" stroke="#0062AD" stroke-width="1.5" stroke-miterlimit="10" stroke-linejoin="round"/>
<path d="M80.3574 51.6508L80.4661 41.3148" stroke="#0062AD" stroke-width="1.5" stroke-miterlimit="10" stroke-linejoin="round"/>
<path d="M78.6318 50.6334L78.6817 40.5416" stroke="#0062AD" stroke-width="1.5" stroke-miterlimit="10" stroke-linejoin="round"/>
<path d="M76.8838 49.503L76.9336 39.4113" stroke="#0062AD" stroke-width="1.5" stroke-miterlimit="10" stroke-linejoin="round"/>
<path d="M75.2119 48.7073L75.2617 38.6155" stroke="#0062AD" stroke-width="1.5" stroke-miterlimit="10" stroke-linejoin="round"/>
<path d="M73.5947 47.6899L73.6446 37.5981" stroke="#0062AD" stroke-width="1.5" stroke-miterlimit="10" stroke-linejoin="round"/>
<path d="M71.8867 46.6003L71.9365 36.5085" stroke="#0062AD" stroke-width="1.5" stroke-miterlimit="10" stroke-linejoin="round"/>
<path d="M96.0689 43.0194C96.0689 42.0653 95.9466 41.7443 94.9727 41.2334" stroke="#0062AD" stroke-width="1.5" stroke-miterlimit="10" stroke-linecap="round" stroke-linejoin="round"/>
<path d="M87.833 55.8691C88.6258 56.3981 88.9655 56.475 89.9304 55.9505" stroke="#0062AD" stroke-width="1.5" stroke-miterlimit="10" stroke-linecap="round" stroke-linejoin="round"/>
<path d="M71.3889 35.1476C70.5554 35.6133 70.3334 35.8755 70.3606 36.9742" stroke="#0062AD" stroke-width="1.5" stroke-miterlimit="10" stroke-linecap="round" stroke-linejoin="round"/>
<path d="M81.8936 59.9202V50.4524C81.8936 50.2896 81.9796 50.1404 82.1201 50.0591L88.3399 46.4736C88.6434 46.2972 89.0194 46.5188 89.0194 46.8669L89.0148 56.3664C89.0148 56.5292 88.9288 56.6784 88.7883 56.7598L82.5685 60.3136C82.2696 60.4854 81.8936 60.2684 81.8936 59.9202Z" fill="#0062AD" stroke="#0062AD" stroke-width="1.5" stroke-miterlimit="10" stroke-linecap="round" stroke-linejoin="round"/>
<path d="M63.1984 49.7516L63.3298 40.7043C63.3343 40.3607 63.7012 40.1482 64.0002 40.3155L81.6585 50.0636C81.8034 50.145 81.894 50.2942 81.894 50.4615V59.9248C81.894 60.2729 81.518 60.49 81.2145 60.3182L63.4249 50.154C63.28 50.0681 63.1939 49.9144 63.1984 49.7516Z" fill="#EBF0F6" stroke="#0062AD" stroke-width="1.5" stroke-miterlimit="10" stroke-linecap="round" stroke-linejoin="round"/>
<path d="M81.6679 50.0681L64.0323 40.329C63.7243 40.1617 63.7198 39.7231 64.0187 39.5468L70.5239 35.6901C70.6644 35.6087 70.841 35.6042 70.9815 35.6855L88.3407 45.6869C88.6442 45.8587 88.6442 46.2973 88.3407 46.4691L82.1164 50.0591C81.976 50.145 81.8083 50.145 81.6679 50.0681Z" fill="white" stroke="#0062AD" stroke-width="1.5" stroke-miterlimit="10" stroke-linecap="round" stroke-linejoin="round"/>
<path d="M80.1992 59.5405L80.249 49.4487" stroke="#0062AD" stroke-width="1.5" stroke-miterlimit="10" stroke-linejoin="round"/>
<path d="M78.4688 58.7494L78.5141 48.3275" stroke="#0062AD" stroke-width="1.5" stroke-miterlimit="10" stroke-linejoin="round"/>
<path d="M76.7656 57.7456L76.829 47.3961" stroke="#0062AD" stroke-width="1.5" stroke-miterlimit="10" stroke-linejoin="round"/>
<path d="M75.0664 56.6378L75.1162 46.546" stroke="#0062AD" stroke-width="1.5" stroke-miterlimit="10" stroke-linejoin="round"/>
<path d="M73.3086 55.8511L73.4173 45.5151" stroke="#0062AD" stroke-width="1.5" stroke-miterlimit="10" stroke-linejoin="round"/>
<path d="M71.583 54.8337L71.6328 44.7419" stroke="#0062AD" stroke-width="1.5" stroke-miterlimit="10" stroke-linejoin="round"/>
<path d="M69.8301 53.7033L69.8799 43.6116" stroke="#0062AD" stroke-width="1.5" stroke-miterlimit="10" stroke-linejoin="round"/>
<path d="M68.1631 52.9076L68.2129 42.8158" stroke="#0062AD" stroke-width="1.5" stroke-miterlimit="10" stroke-linejoin="round"/>
<path d="M66.5459 51.8904L66.5957 41.7986" stroke="#0062AD" stroke-width="1.5" stroke-miterlimit="10" stroke-linejoin="round"/>
<path d="M64.8379 50.8052L64.8877 40.7089" stroke="#0062AD" stroke-width="1.5" stroke-miterlimit="10" stroke-linejoin="round"/>
<path d="M89.0201 47.2197C89.0201 46.2657 88.8978 45.9446 87.9238 45.4337" stroke="#0062AD" stroke-width="1.5" stroke-miterlimit="10" stroke-linecap="round" stroke-linejoin="round"/>
<path d="M80.7842 60.0695C81.5769 60.5985 81.9167 60.6753 82.8816 60.1508" stroke="#0062AD" stroke-width="1.5" stroke-miterlimit="10" stroke-linecap="round" stroke-linejoin="round"/>
<path d="M64.3352 39.3479C63.5017 39.8136 63.2797 40.0759 63.3069 41.1746" stroke="#0062AD" stroke-width="1.5" stroke-miterlimit="10" stroke-linecap="round" stroke-linejoin="round"/>
<path d="M74.7637 64.0755V54.6077C74.7637 54.4449 74.8497 54.2957 74.9902 54.2143L81.21 50.6289C81.5135 50.4525 81.8895 50.6741 81.8895 51.0222L81.885 60.5217C81.885 60.6845 81.7989 60.8337 81.6584 60.915L75.4386 64.4689C75.1397 64.6407 74.7637 64.4237 74.7637 64.0755Z" fill="#0062AD" stroke="#0062AD" stroke-width="1.5" stroke-miterlimit="10" stroke-linecap="round" stroke-linejoin="round"/>
<path d="M56.0684 53.9068L56.1997 44.8595C56.2043 44.5158 56.5712 44.3033 56.8702 44.4706L74.5284 54.2188C74.6734 54.3001 74.764 54.4494 74.764 54.6166V64.0799C74.764 64.4281 74.388 64.6451 74.0845 64.4733L56.2949 54.3092C56.1544 54.2233 56.0684 54.0696 56.0684 53.9068Z" fill="#EBF0F6" stroke="#0062AD" stroke-width="1.5" stroke-miterlimit="10" stroke-linecap="round" stroke-linejoin="round"/>
<path d="M74.5419 54.2234L56.9064 44.4843C56.5983 44.317 56.5938 43.8784 56.8928 43.7021L63.398 39.8453C63.5384 39.7639 63.7151 39.7594 63.8555 39.8408L81.2147 49.8422C81.5183 50.014 81.5183 50.4525 81.2147 50.6244L74.9904 54.2144C74.85 54.3003 74.6824 54.3003 74.5419 54.2234Z" fill="white" stroke="#0062AD" stroke-width="1.5" stroke-miterlimit="10" stroke-linecap="round" stroke-linejoin="round"/>
<path d="M73.0742 63.6958L73.124 53.604" stroke="#0062AD" stroke-width="1.5" stroke-miterlimit="10" stroke-linejoin="round"/>
<path d="M71.3438 62.9045L71.3891 52.4827" stroke="#0062AD" stroke-width="1.5" stroke-miterlimit="10" stroke-linejoin="round"/>
<path d="M69.6357 61.9008L69.7037 51.5513" stroke="#0062AD" stroke-width="1.5" stroke-miterlimit="10" stroke-linejoin="round"/>
<path d="M67.9414 60.7975L67.9912 50.7057" stroke="#0062AD" stroke-width="1.5" stroke-miterlimit="10" stroke-linejoin="round"/>
<path d="M66.1836 60.0062L66.2923 49.6703" stroke="#0062AD" stroke-width="1.5" stroke-miterlimit="10" stroke-linejoin="round"/>
<path d="M64.458 58.989L64.5078 48.8972" stroke="#0062AD" stroke-width="1.5" stroke-miterlimit="10" stroke-linejoin="round"/>
<path d="M62.7051 57.8586L62.7549 47.7668" stroke="#0062AD" stroke-width="1.5" stroke-miterlimit="10" stroke-linejoin="round"/>
<path d="M61.0381 57.0674L61.0879 46.9756" stroke="#0062AD" stroke-width="1.5" stroke-miterlimit="10" stroke-linejoin="round"/>
<path d="M59.416 56.05L59.4658 45.9583" stroke="#0062AD" stroke-width="1.5" stroke-miterlimit="10" stroke-linejoin="round"/>
<path d="M57.7129 54.9604L57.7627 44.8687" stroke="#0062AD" stroke-width="1.5" stroke-miterlimit="10" stroke-linejoin="round"/>
<path d="M81.8941 51.3748C81.8941 50.4208 81.7718 50.0998 80.7979 49.5889" stroke="#0062AD" stroke-width="1.5" stroke-miterlimit="10" stroke-linecap="round" stroke-linejoin="round"/>
<path d="M73.6582 64.2247C74.451 64.7537 74.7907 64.8306 75.7556 64.3061" stroke="#0062AD" stroke-width="1.5" stroke-miterlimit="10" stroke-linecap="round" stroke-linejoin="round"/>
<path d="M57.2102 43.5031C56.3767 43.9688 56.1547 44.231 56.1819 45.3297" stroke="#0062AD" stroke-width="1.5" stroke-miterlimit="10" stroke-linecap="round" stroke-linejoin="round"/>
<path d="M67.6377 68.2713V58.8035C67.6377 58.6407 67.7238 58.4915 67.8642 58.4101L74.084 54.8247C74.3875 54.6483 74.7635 54.8699 74.7635 55.218L74.759 64.7175C74.759 64.8803 74.6729 65.0295 74.5325 65.1109L68.3127 68.6647C68.0137 68.8365 67.6377 68.6195 67.6377 68.2713Z" fill="#0062AD" stroke="#0062AD" stroke-width="1.5" stroke-miterlimit="10" stroke-linecap="round" stroke-linejoin="round"/>
<path d="M48.9424 58.1027L49.0738 49.0554C49.0783 48.7118 49.4452 48.4992 49.7442 48.6665L67.4024 58.4147C67.5474 58.4961 67.638 58.6453 67.638 58.8126V68.2759C67.638 68.624 67.262 68.841 66.9585 68.6692L49.1689 58.5051C49.0285 58.4192 48.9424 58.2655 48.9424 58.1027Z" fill="#EBF0F6" stroke="#0062AD" stroke-width="1.5" stroke-miterlimit="10" stroke-linecap="round" stroke-linejoin="round"/>
<path d="M67.416 58.4192L49.7804 48.6801C49.4723 48.5128 49.4678 48.0742 49.7668 47.8979L56.272 44.0411C56.4124 43.9597 56.5891 43.9552 56.7295 44.0366L74.0888 54.038C74.3923 54.2098 74.3923 54.6483 74.0888 54.8202L67.8644 58.4102C67.724 58.4961 67.5519 58.4961 67.416 58.4192Z" fill="white" stroke="#0062AD" stroke-width="1.5" stroke-miterlimit="10" stroke-linecap="round" stroke-linejoin="round"/>
<path d="M65.9482 67.8916L65.9981 57.7998" stroke="#0062AD" stroke-width="1.5" stroke-miterlimit="10" stroke-linejoin="round"/>
<path d="M64.2178 67.1004L64.2585 56.6786" stroke="#0062AD" stroke-width="1.5" stroke-miterlimit="10" stroke-linejoin="round"/>
<path d="M62.5098 66.0967L62.5732 55.7472" stroke="#0062AD" stroke-width="1.5" stroke-miterlimit="10" stroke-linejoin="round"/>
<path d="M60.8105 64.9889L60.8604 54.8971" stroke="#0062AD" stroke-width="1.5" stroke-miterlimit="10" stroke-linejoin="round"/>
<path d="M59.0527 64.2021L59.166 53.8662" stroke="#0062AD" stroke-width="1.5" stroke-miterlimit="10" stroke-linejoin="round"/>
<path d="M57.332 63.1849L57.3819 53.0931" stroke="#0062AD" stroke-width="1.5" stroke-miterlimit="10" stroke-linejoin="round"/>
<path d="M55.5791 62.0545L55.6289 51.9628" stroke="#0062AD" stroke-width="1.5" stroke-miterlimit="10" stroke-linejoin="round"/>
<path d="M53.9111 61.2586L53.961 51.1669" stroke="#0062AD" stroke-width="1.5" stroke-miterlimit="10" stroke-linejoin="round"/>
<path d="M52.29 60.2414L52.3399 50.1497" stroke="#0062AD" stroke-width="1.5" stroke-miterlimit="10" stroke-linejoin="round"/>
<path d="M50.582 59.1562L50.6319 49.0599" stroke="#0062AD" stroke-width="1.5" stroke-miterlimit="10" stroke-linejoin="round"/>
<path d="M74.7642 55.5707C74.7642 54.6167 74.6419 54.2957 73.668 53.7848" stroke="#0062AD" stroke-width="1.5" stroke-miterlimit="10" stroke-linecap="round" stroke-linejoin="round"/>
<path d="M66.5322 68.4205C67.325 68.9495 67.6647 69.0264 68.6296 68.5019" stroke="#0062AD" stroke-width="1.5" stroke-miterlimit="10" stroke-linecap="round" stroke-linejoin="round"/>
<path d="M50.0842 47.699C49.2507 48.1647 49.0287 48.4269 49.0559 49.5256" stroke="#0062AD" stroke-width="1.5" stroke-miterlimit="10" stroke-linecap="round" stroke-linejoin="round"/>
<path d="M81.5225 50.1631L81.7535 60.8472" stroke="white" stroke-width="1.5" stroke-miterlimit="10" stroke-linecap="round" stroke-linejoin="round"/>
<path d="M74.4287 54.3184L74.6597 65.0024" stroke="white" stroke-width="1.5" stroke-miterlimit="10" stroke-linecap="round" stroke-linejoin="round"/>
<path d="M60.5117 72.4492V62.9813C60.5117 62.8186 60.5978 62.6694 60.7382 62.588L66.958 59.0025C67.2615 58.8262 67.6375 59.0477 67.6375 59.3959L67.633 68.8953C67.633 69.0581 67.5469 69.2073 67.4065 69.2887L61.1867 72.8425C60.8877 73.0143 60.5117 72.7973 60.5117 72.4492Z" fill="#0062AD" stroke="#0062AD" stroke-width="1.5" stroke-miterlimit="10" stroke-linecap="round" stroke-linejoin="round"/>
<path d="M41.8166 62.2806L41.9479 53.2332C41.9525 52.8896 42.3194 52.6771 42.6184 52.8444L60.2766 62.5925C60.4216 62.6739 60.5122 62.8231 60.5122 62.9904V72.4537C60.5122 72.8019 60.1362 73.0189 59.8327 72.8471L42.0431 62.683C41.9026 62.5971 41.812 62.4433 41.8166 62.2806Z" fill="#EBF0F6" stroke="#0062AD" stroke-width="1.5" stroke-miterlimit="10" stroke-linecap="round" stroke-linejoin="round"/>
<path d="M60.2861 62.5971L42.6505 52.8579C42.3425 52.6907 42.3379 52.2521 42.6369 52.0757L49.1421 48.219C49.2825 48.1376 49.4592 48.1331 49.5996 48.2145L66.9589 58.2203C67.2624 58.3921 67.2624 58.8307 66.9589 59.0025L60.7346 62.5925C60.5941 62.6739 60.4265 62.6739 60.2861 62.5971Z" fill="white" stroke="#0062AD" stroke-width="1.5" stroke-miterlimit="10" stroke-linecap="round" stroke-linejoin="round"/>
<path d="M58.8223 72.0694L58.8721 61.9777" stroke="#0062AD" stroke-width="1.5" stroke-miterlimit="10" stroke-linejoin="round"/>
<path d="M57.0918 71.2782L57.1326 60.8563" stroke="#0062AD" stroke-width="1.5" stroke-miterlimit="10" stroke-linejoin="round"/>
<path d="M55.3838 70.2744L55.4472 59.9249" stroke="#0062AD" stroke-width="1.5" stroke-miterlimit="10" stroke-linejoin="round"/>
<path d="M53.6846 69.1711L53.7344 59.0748" stroke="#0062AD" stroke-width="1.5" stroke-miterlimit="10" stroke-linejoin="round"/>
<path d="M51.9268 68.3799L52.0355 58.0439" stroke="#0062AD" stroke-width="1.5" stroke-miterlimit="10" stroke-linejoin="round"/>
<path d="M50.2012 67.3627L50.251 57.2709" stroke="#0062AD" stroke-width="1.5" stroke-miterlimit="10" stroke-linejoin="round"/>
<path d="M48.4531 66.2323L48.503 56.1405" stroke="#0062AD" stroke-width="1.5" stroke-miterlimit="10" stroke-linejoin="round"/>
<path d="M46.7812 65.441L46.8311 55.3447" stroke="#0062AD" stroke-width="1.5" stroke-miterlimit="10" stroke-linejoin="round"/>
<path d="M45.1641 64.4237L45.2139 54.3274" stroke="#0062AD" stroke-width="1.5" stroke-miterlimit="10" stroke-linejoin="round"/>
<path d="M43.4561 63.3341L43.5059 53.2423" stroke="#0062AD" stroke-width="1.5" stroke-miterlimit="10" stroke-linejoin="round"/>
<path d="M67.6383 59.7485C67.6383 58.7945 67.516 58.4734 66.542 57.9625" stroke="#0062AD" stroke-width="1.5" stroke-miterlimit="10" stroke-linecap="round" stroke-linejoin="round"/>
<path d="M59.4023 72.5984C60.1951 73.1274 60.5349 73.2043 61.4998 72.6798" stroke="#0062AD" stroke-width="1.5" stroke-miterlimit="10" stroke-linecap="round" stroke-linejoin="round"/>
<path d="M42.9582 51.8767C42.1247 52.3424 41.9027 52.6047 41.9299 53.7034" stroke="#0062AD" stroke-width="1.5" stroke-miterlimit="10" stroke-linecap="round" stroke-linejoin="round"/>
<path d="M53.4629 76.6495V67.1817C53.4629 67.0189 53.549 66.8697 53.6894 66.7883L59.9092 63.2028C60.2127 63.0265 60.5887 63.248 60.5887 63.5962L60.5842 73.0957C60.5842 73.2584 60.4981 73.4076 60.3577 73.489L54.1379 77.0428C53.8389 77.2147 53.4629 76.9976 53.4629 76.6495Z" fill="#0062AD" stroke="#0062AD" stroke-width="1.5" stroke-miterlimit="10" stroke-linecap="round" stroke-linejoin="round"/>
<path d="M34.7677 66.4809L34.8991 57.4336C34.9037 57.0899 35.2706 56.8774 35.5696 57.0447L53.2278 66.7929C53.3728 66.8742 53.4634 67.0235 53.4634 67.1907V76.654C53.4634 77.0022 53.0874 77.2192 52.7839 77.0474L34.9943 66.8833C34.8493 66.7974 34.7632 66.6437 34.7677 66.4809Z" fill="#EBF0F6" stroke="#0062AD" stroke-width="1.5" stroke-miterlimit="10" stroke-linecap="round" stroke-linejoin="round"/>
<path d="M53.2373 66.7974L35.6017 57.0583C35.2936 56.891 35.2891 56.4524 35.5881 56.2761L42.0933 52.4193C42.2337 52.3379 42.4104 52.3334 42.5508 52.4148L59.91 62.4161C60.2136 62.5879 60.2136 63.0265 59.91 63.1983L53.6857 66.7883C53.5453 66.8742 53.3777 66.8742 53.2373 66.7974Z" fill="white" stroke="#0062AD" stroke-width="1.5" stroke-miterlimit="10" stroke-linecap="round" stroke-linejoin="round"/>
<path d="M51.7686 76.2697L51.8184 66.178" stroke="#0062AD" stroke-width="1.5" stroke-miterlimit="10" stroke-linejoin="round"/>
<path d="M50.0381 75.4785L50.0834 65.0566" stroke="#0062AD" stroke-width="1.5" stroke-miterlimit="10" stroke-linejoin="round"/>
<path d="M48.335 74.4747L48.3984 64.1252" stroke="#0062AD" stroke-width="1.5" stroke-miterlimit="10" stroke-linejoin="round"/>
<path d="M46.6357 73.3716L46.6856 63.2798" stroke="#0062AD" stroke-width="1.5" stroke-miterlimit="10" stroke-linejoin="round"/>
<path d="M44.8779 72.5803L44.9867 62.2444" stroke="#0062AD" stroke-width="1.5" stroke-miterlimit="10" stroke-linejoin="round"/>
<path d="M43.1523 71.563L43.2022 61.4712" stroke="#0062AD" stroke-width="1.5" stroke-miterlimit="10" stroke-linejoin="round"/>
<path d="M41.3994 70.4326L41.4492 60.3408" stroke="#0062AD" stroke-width="1.5" stroke-miterlimit="10" stroke-linejoin="round"/>
<path d="M39.7324 69.6413L39.7823 59.5496" stroke="#0062AD" stroke-width="1.5" stroke-miterlimit="10" stroke-linejoin="round"/>
<path d="M38.1152 68.624L38.1651 58.5322" stroke="#0062AD" stroke-width="1.5" stroke-miterlimit="10" stroke-linejoin="round"/>
<path d="M36.4072 67.5344L36.4571 57.4426" stroke="#0062AD" stroke-width="1.5" stroke-miterlimit="10" stroke-linejoin="round"/>
<path d="M60.5894 63.9489C60.5894 62.9949 60.4671 62.6739 59.4932 62.163" stroke="#0062AD" stroke-width="1.5" stroke-miterlimit="10" stroke-linecap="round" stroke-linejoin="round"/>
<path d="M52.3535 76.7987C53.1463 77.3277 53.486 77.4046 54.4509 76.8801" stroke="#0062AD" stroke-width="1.5" stroke-miterlimit="10" stroke-linecap="round" stroke-linejoin="round"/>
<path d="M35.9094 56.0771C35.0759 56.5429 34.8539 56.8051 34.8811 57.9038" stroke="#0062AD" stroke-width="1.5" stroke-miterlimit="10" stroke-linecap="round" stroke-linejoin="round"/>
<path d="M46.333 80.8092V71.3413C46.333 71.1786 46.4191 71.0294 46.5595 70.948L52.7793 67.3625C53.0828 67.1862 53.4588 67.4077 53.4588 67.7559L53.4543 77.2553C53.4543 77.4181 53.3682 77.5673 53.2278 77.6487L47.008 81.2025C46.709 81.3743 46.333 81.1528 46.333 80.8092Z" fill="#0062AD" stroke="#0062AD" stroke-width="1.5" stroke-miterlimit="10" stroke-linecap="round" stroke-linejoin="round"/>
<path d="M27.6418 70.636L27.7731 61.5887C27.7777 61.2451 28.1446 61.0326 28.4436 61.1999L46.1018 70.948C46.2468 71.0294 46.3374 71.1786 46.3374 71.3459V80.8092C46.3374 81.1573 45.9614 81.3744 45.6579 81.2026L27.8683 71.0384C27.7233 70.9525 27.6372 70.8033 27.6418 70.636Z" fill="#EBF0F6" stroke="#0062AD" stroke-width="1.5" stroke-miterlimit="10" stroke-linecap="round" stroke-linejoin="round"/>
<path d="M46.1103 70.957L28.4747 61.2179C28.1667 61.0506 28.1621 60.6121 28.4611 60.4357L34.9663 56.579C35.1067 56.4976 35.2834 56.4931 35.4238 56.5745L52.7831 66.5758C53.0866 66.7476 53.0866 67.1862 52.7831 67.358L46.5588 70.948C46.4183 71.0294 46.2507 71.0339 46.1103 70.957Z" fill="white" stroke="#0062AD" stroke-width="1.5" stroke-miterlimit="10" stroke-linecap="round" stroke-linejoin="round"/>
<path d="M44.6426 80.4249L44.6924 70.3331" stroke="#0062AD" stroke-width="1.5" stroke-miterlimit="10" stroke-linejoin="round"/>
<path d="M42.9121 79.6338L42.9574 69.2119" stroke="#0062AD" stroke-width="1.5" stroke-miterlimit="10" stroke-linejoin="round"/>
<path d="M41.2041 78.63L41.2721 68.285" stroke="#0062AD" stroke-width="1.5" stroke-miterlimit="10" stroke-linejoin="round"/>
<path d="M39.5098 77.5267L39.5596 67.4349" stroke="#0062AD" stroke-width="1.5" stroke-miterlimit="10" stroke-linejoin="round"/>
<path d="M37.752 76.7355L37.8607 66.3995" stroke="#0062AD" stroke-width="1.5" stroke-miterlimit="10" stroke-linejoin="round"/>
<path d="M36.0264 75.7181L36.0762 65.6263" stroke="#0062AD" stroke-width="1.5" stroke-miterlimit="10" stroke-linejoin="round"/>
<path d="M34.2734 74.5877L34.3233 64.496" stroke="#0062AD" stroke-width="1.5" stroke-miterlimit="10" stroke-linejoin="round"/>
<path d="M32.6064 73.7965L32.6563 63.7047" stroke="#0062AD" stroke-width="1.5" stroke-miterlimit="10" stroke-linejoin="round"/>
<path d="M30.9844 72.7793L31.0342 62.6875" stroke="#0062AD" stroke-width="1.5" stroke-miterlimit="10" stroke-linejoin="round"/>
<path d="M29.2812 71.6895L29.3311 61.5978" stroke="#0062AD" stroke-width="1.5" stroke-miterlimit="10" stroke-linejoin="round"/>
<path d="M53.4635 68.1041C53.4635 67.1501 53.3412 66.829 52.3672 66.3181" stroke="#0062AD" stroke-width="1.5" stroke-miterlimit="10" stroke-linecap="round" stroke-linejoin="round"/>
<path d="M45.2275 80.9539C46.0203 81.4829 46.3601 81.5597 47.325 81.0352" stroke="#0062AD" stroke-width="1.5" stroke-miterlimit="10" stroke-linecap="round" stroke-linejoin="round"/>
<path d="M28.7785 60.2323C27.945 60.698 27.723 60.9602 27.7502 62.059" stroke="#0062AD" stroke-width="1.5" stroke-miterlimit="10" stroke-linecap="round" stroke-linejoin="round"/>
<path d="M53.0918 66.8923L53.3228 77.5764" stroke="white" stroke-width="1.5" stroke-miterlimit="10" stroke-linecap="round" stroke-linejoin="round"/>
<path d="M67.1758 58.7086L67.4068 69.3927" stroke="white" stroke-width="1.5" stroke-miterlimit="10" stroke-linecap="round" stroke-linejoin="round"/>
<path d="M82.043 49.5436V40.0758C82.043 39.9131 82.129 39.7639 82.2695 39.6825L88.4893 36.097C88.7928 35.9207 89.1688 36.1422 89.1688 36.4904L89.1642 45.9898C89.1642 46.1526 89.0782 46.3018 88.9377 46.3832L82.718 49.937C82.419 50.1088 82.043 49.8918 82.043 49.5436Z" fill="#0062AD" stroke="#0062AD" stroke-width="1.5" stroke-miterlimit="10" stroke-linecap="round" stroke-linejoin="round"/>
<path d="M63.3477 39.3705L63.479 30.3232C63.4836 29.9796 63.8505 29.7671 64.1495 29.9344L81.8077 39.6825C81.9527 39.7639 82.0433 39.9131 82.0433 40.0804V49.5437C82.0433 49.8918 81.6673 50.1089 81.3638 49.937L63.5742 39.7729C63.4337 39.687 63.3477 39.5378 63.3477 39.3705Z" fill="#EBF0F6" stroke="#0062AD" stroke-width="1.5" stroke-miterlimit="10" stroke-linecap="round" stroke-linejoin="round"/>
<path d="M81.8163 39.6915L64.1808 29.9524C63.8727 29.7851 63.8682 29.3466 64.1672 29.1702L70.6724 25.3135C70.8128 25.2321 70.9895 25.2276 71.1299 25.3089L88.4892 35.3103C88.7927 35.4821 88.7927 35.9207 88.4892 36.0925L82.2648 39.6825C82.1289 39.7639 81.9568 39.7684 81.8163 39.6915Z" fill="white" stroke="#0062AD" stroke-width="1.5" stroke-miterlimit="10" stroke-linecap="round" stroke-linejoin="round"/>
<path d="M80.3535 49.1594L80.4033 39.0676" stroke="#0062AD" stroke-width="1.5" stroke-miterlimit="10" stroke-linejoin="round"/>
<path d="M78.623 48.3682L78.6638 37.9509" stroke="#0062AD" stroke-width="1.5" stroke-miterlimit="10" stroke-linejoin="round"/>
<path d="M76.915 47.3645L76.9785 37.0195" stroke="#0062AD" stroke-width="1.5" stroke-miterlimit="10" stroke-linejoin="round"/>
<path d="M75.2158 46.2612L75.2657 36.1694" stroke="#0062AD" stroke-width="1.5" stroke-miterlimit="10" stroke-linejoin="round"/>
<path d="M73.458 45.47L73.5667 35.134" stroke="#0062AD" stroke-width="1.5" stroke-miterlimit="10" stroke-linejoin="round"/>
<path d="M71.7324 44.4526L71.7823 34.3608" stroke="#0062AD" stroke-width="1.5" stroke-miterlimit="10" stroke-linejoin="round"/>
<path d="M69.9844 43.3222L70.0342 33.2305" stroke="#0062AD" stroke-width="1.5" stroke-miterlimit="10" stroke-linejoin="round"/>
<path d="M68.3164 42.531L68.3617 32.4392" stroke="#0062AD" stroke-width="1.5" stroke-miterlimit="10" stroke-linejoin="round"/>
<path d="M66.6953 41.5138L66.7451 31.422" stroke="#0062AD" stroke-width="1.5" stroke-miterlimit="10" stroke-linejoin="round"/>
<path d="M64.9873 40.4241L65.0371 30.3323" stroke="#0062AD" stroke-width="1.5" stroke-miterlimit="10" stroke-linejoin="round"/>
<path d="M89.1685 36.8386C89.1685 35.8845 89.0462 35.5635 88.0723 35.0526" stroke="#0062AD" stroke-width="1.5" stroke-miterlimit="10" stroke-linecap="round" stroke-linejoin="round"/>
<path d="M80.9375 49.6884C81.7303 50.2174 82.07 50.2942 83.0349 49.7697" stroke="#0062AD" stroke-width="1.5" stroke-miterlimit="10" stroke-linecap="round" stroke-linejoin="round"/>
<path d="M64.4895 28.9668C63.6559 29.4325 63.434 29.6947 63.4612 30.7934" stroke="#0062AD" stroke-width="1.5" stroke-miterlimit="10" stroke-linecap="round" stroke-linejoin="round"/>
<path d="M74.9941 53.7441V44.2763C74.9941 44.1135 75.0802 43.9643 75.2206 43.8829L81.4404 40.2974C81.744 40.1211 82.1199 40.3426 82.1199 40.6908L82.1154 50.1903C82.1154 50.353 82.0293 50.5022 81.8889 50.5836L75.6691 54.1375C75.3701 54.3093 74.9941 54.0922 74.9941 53.7441Z" fill="#0062AD" stroke="#0062AD" stroke-width="1.5" stroke-miterlimit="10" stroke-linecap="round" stroke-linejoin="round"/>
<path d="M56.299 43.5708L56.4304 34.5235C56.4349 34.1799 56.8018 33.9674 57.1008 34.1347L74.7591 43.8828C74.904 43.9642 74.9946 44.1134 74.9946 44.2807V53.744C74.9946 54.0922 74.6186 54.3092 74.3151 54.1374L56.5255 43.9733C56.3805 43.8873 56.2945 43.7381 56.299 43.5708Z" fill="#EBF0F6" stroke="#0062AD" stroke-width="1.5" stroke-miterlimit="10" stroke-linecap="round" stroke-linejoin="round"/>
<path d="M74.7675 43.892L57.1319 34.1529C56.8239 33.9856 56.8194 33.547 57.1184 33.3707L63.6235 29.5139C63.764 29.4325 63.9406 29.428 64.0811 29.5094L81.4403 39.5107C81.7438 39.6825 81.7438 40.1211 81.4403 40.2929L75.216 43.8829C75.0756 43.9643 74.908 43.9688 74.7675 43.892Z" fill="white" stroke="#0062AD" stroke-width="1.5" stroke-miterlimit="10" stroke-linecap="round" stroke-linejoin="round"/>
<path d="M73.2998 53.3597L73.3496 43.2679" stroke="#0062AD" stroke-width="1.5" stroke-miterlimit="10" stroke-linejoin="round"/>
<path d="M71.5693 52.5686L71.6146 42.1512" stroke="#0062AD" stroke-width="1.5" stroke-miterlimit="10" stroke-linejoin="round"/>
<path d="M69.8662 51.5648L69.9296 41.2198" stroke="#0062AD" stroke-width="1.5" stroke-miterlimit="10" stroke-linejoin="round"/>
<path d="M68.167 50.4615L68.2168 40.3698" stroke="#0062AD" stroke-width="1.5" stroke-miterlimit="10" stroke-linejoin="round"/>
<path d="M66.4092 49.6703L66.5179 39.3344" stroke="#0062AD" stroke-width="1.5" stroke-miterlimit="10" stroke-linejoin="round"/>
<path d="M64.6836 48.6576L64.7334 38.5613" stroke="#0062AD" stroke-width="1.5" stroke-miterlimit="10" stroke-linejoin="round"/>
<path d="M62.9307 47.5227L62.9805 37.4309" stroke="#0062AD" stroke-width="1.5" stroke-miterlimit="10" stroke-linejoin="round"/>
<path d="M61.2637 46.7313L61.3135 36.6395" stroke="#0062AD" stroke-width="1.5" stroke-miterlimit="10" stroke-linejoin="round"/>
<path d="M59.6465 45.7141L59.6963 35.6223" stroke="#0062AD" stroke-width="1.5" stroke-miterlimit="10" stroke-linejoin="round"/>
<path d="M57.9385 44.6244L57.9883 34.5326" stroke="#0062AD" stroke-width="1.5" stroke-miterlimit="10" stroke-linejoin="round"/>
<path d="M82.1207 41.0434C82.1207 40.0894 81.9984 39.7684 81.0244 39.2574" stroke="#0062AD" stroke-width="1.5" stroke-miterlimit="10" stroke-linecap="round" stroke-linejoin="round"/>
<path d="M73.8848 53.8887C74.6775 54.4177 75.0173 54.4945 75.9822 53.9701" stroke="#0062AD" stroke-width="1.5" stroke-miterlimit="10" stroke-linecap="round" stroke-linejoin="round"/>
<path d="M57.4407 33.1716C56.6071 33.6373 56.3851 33.8996 56.4123 34.9983" stroke="#0062AD" stroke-width="1.5" stroke-miterlimit="10" stroke-linecap="round" stroke-linejoin="round"/>
<path d="M67.8643 57.8992V48.4314C67.8643 48.2687 67.9503 48.1194 68.0908 48.0381L74.3106 44.4526C74.6141 44.2762 74.9901 44.4978 74.9901 44.8459L74.9855 54.3454C74.9855 54.5082 74.8995 54.6574 74.759 54.7388L68.5392 58.2926C68.2402 58.4644 67.8643 58.2474 67.8643 57.8992Z" fill="#0062AD" stroke="#0062AD" stroke-width="1.5" stroke-miterlimit="10" stroke-linecap="round" stroke-linejoin="round"/>
<path d="M49.173 47.7261L49.3044 38.6788C49.3089 38.3352 49.6759 38.1227 49.9748 38.2899L67.6331 48.0381C67.778 48.1195 67.8686 48.2687 67.8686 48.436V57.8993C67.8686 58.2474 67.4926 58.4645 67.1891 58.2926L49.3995 48.1285C49.2546 48.0471 49.1685 47.8934 49.173 47.7261Z" fill="#EBF0F6" stroke="#0062AD" stroke-width="1.5" stroke-miterlimit="10" stroke-linecap="round" stroke-linejoin="round"/>
<path d="M67.6416 48.0471L50.006 38.308C49.6979 38.1407 49.6934 37.7022 49.9924 37.5258L56.4976 33.6691C56.638 33.5877 56.8147 33.5832 56.9551 33.6645L74.3144 43.6659C74.6179 43.8377 74.6179 44.2763 74.3144 44.4481L68.09 48.0381C67.9496 48.124 67.782 48.124 67.6416 48.0471Z" fill="white" stroke="#0062AD" stroke-width="1.5" stroke-miterlimit="10" stroke-linecap="round" stroke-linejoin="round"/>
<path d="M66.1738 57.5195L66.2237 47.4277" stroke="#0062AD" stroke-width="1.5" stroke-miterlimit="10" stroke-linejoin="round"/>
<path d="M64.4434 56.7282L64.4887 46.3064" stroke="#0062AD" stroke-width="1.5" stroke-miterlimit="10" stroke-linejoin="round"/>
<path d="M62.7354 55.72L62.8033 45.375" stroke="#0062AD" stroke-width="1.5" stroke-miterlimit="10" stroke-linejoin="round"/>
<path d="M61.042 54.6168L61.0918 44.525" stroke="#0062AD" stroke-width="1.5" stroke-miterlimit="10" stroke-linejoin="round"/>
<path d="M59.2842 53.8256L59.3929 43.4941" stroke="#0062AD" stroke-width="1.5" stroke-miterlimit="10" stroke-linejoin="round"/>
<path d="M57.5576 52.8127L57.6074 42.7209" stroke="#0062AD" stroke-width="1.5" stroke-miterlimit="10" stroke-linejoin="round"/>
<path d="M55.8047 51.6824L55.8545 41.5861" stroke="#0062AD" stroke-width="1.5" stroke-miterlimit="10" stroke-linejoin="round"/>
<path d="M54.1377 50.8866L54.1875 40.7948" stroke="#0062AD" stroke-width="1.5" stroke-miterlimit="10" stroke-linejoin="round"/>
<path d="M52.5156 49.8692L52.5655 39.7775" stroke="#0062AD" stroke-width="1.5" stroke-miterlimit="10" stroke-linejoin="round"/>
<path d="M50.8125 48.7796L50.8623 38.6879" stroke="#0062AD" stroke-width="1.5" stroke-miterlimit="10" stroke-linejoin="round"/>
<path d="M74.9947 45.1986C74.9947 44.2445 74.8724 43.9235 73.8984 43.4126" stroke="#0062AD" stroke-width="1.5" stroke-miterlimit="10" stroke-linecap="round" stroke-linejoin="round"/>
<path d="M66.7588 58.0485C67.5516 58.5775 67.8913 58.6543 68.8562 58.1299" stroke="#0062AD" stroke-width="1.5" stroke-miterlimit="10" stroke-linecap="round" stroke-linejoin="round"/>
<path d="M50.3098 37.3268C49.4763 37.7925 49.2543 38.0547 49.2815 39.1534" stroke="#0062AD" stroke-width="1.5" stroke-miterlimit="10" stroke-linecap="round" stroke-linejoin="round"/>
<path d="M60.7383 62.0952V52.6273C60.7383 52.4646 60.8244 52.3154 60.9648 52.234L67.1846 48.6485C67.4881 48.4722 67.8641 48.6937 67.8641 49.0419L67.8596 58.5413C67.8596 58.7041 67.7735 58.8533 67.6331 58.9347L61.4133 62.4885C61.1143 62.6603 60.7383 62.4433 60.7383 62.0952Z" fill="#0062AD" stroke="#0062AD" stroke-width="1.5" stroke-miterlimit="10" stroke-linecap="round" stroke-linejoin="round"/>
<path d="M42.043 51.9219L42.1743 42.8746C42.1789 42.531 42.5458 42.3185 42.8448 42.4858L60.503 52.2339C60.648 52.3153 60.7386 52.4645 60.7386 52.6318V62.0951C60.7386 62.4432 60.3626 62.6603 60.0591 62.4884L42.2695 52.3243C42.129 52.2384 42.043 52.0892 42.043 51.9219Z" fill="#EBF0F6" stroke="#0062AD" stroke-width="1.5" stroke-miterlimit="10" stroke-linecap="round" stroke-linejoin="round"/>
<path d="M60.5166 52.243L42.881 42.5039C42.5729 42.3367 42.5684 41.8981 42.8674 41.7217L49.3726 37.865C49.513 37.7836 49.6897 37.7791 49.8301 37.8605L67.1894 47.8618C67.4929 48.0336 67.4929 48.4722 67.1894 48.644L60.965 52.234C60.8246 52.3154 60.6525 52.3199 60.5166 52.243Z" fill="white" stroke="#0062AD" stroke-width="1.5" stroke-miterlimit="10" stroke-linecap="round" stroke-linejoin="round"/>
<path d="M59.0488 61.7109L59.0987 51.6191" stroke="#0062AD" stroke-width="1.5" stroke-miterlimit="10" stroke-linejoin="round"/>
<path d="M57.3184 60.9196L57.3637 50.5023" stroke="#0062AD" stroke-width="1.5" stroke-miterlimit="10" stroke-linejoin="round"/>
<path d="M55.6104 59.9159L55.6783 49.5709" stroke="#0062AD" stroke-width="1.5" stroke-miterlimit="10" stroke-linejoin="round"/>
<path d="M53.917 58.8126L53.9623 48.7208" stroke="#0062AD" stroke-width="1.5" stroke-miterlimit="10" stroke-linejoin="round"/>
<path d="M52.1543 58.0214L52.2675 47.6854" stroke="#0062AD" stroke-width="1.5" stroke-miterlimit="10" stroke-linejoin="round"/>
<path d="M50.4326 57.0087L50.4824 46.9124" stroke="#0062AD" stroke-width="1.5" stroke-miterlimit="10" stroke-linejoin="round"/>
<path d="M48.6797 55.8738L48.7295 45.782" stroke="#0062AD" stroke-width="1.5" stroke-miterlimit="10" stroke-linejoin="round"/>
<path d="M47.0127 55.0825L47.0625 44.9907" stroke="#0062AD" stroke-width="1.5" stroke-miterlimit="10" stroke-linejoin="round"/>
<path d="M45.3906 54.0652L45.4405 43.9734" stroke="#0062AD" stroke-width="1.5" stroke-miterlimit="10" stroke-linejoin="round"/>
<path d="M43.6875 52.9756L43.7373 42.8838" stroke="#0062AD" stroke-width="1.5" stroke-miterlimit="10" stroke-linejoin="round"/>
<path d="M67.8639 49.3945C67.8639 48.4405 67.7415 48.1194 66.7676 47.6085" stroke="#0062AD" stroke-width="1.5" stroke-miterlimit="10" stroke-linecap="round" stroke-linejoin="round"/>
<path d="M59.6328 62.2399C60.4256 62.7689 60.7653 62.8457 61.7302 62.3213" stroke="#0062AD" stroke-width="1.5" stroke-miterlimit="10" stroke-linecap="round" stroke-linejoin="round"/>
<path d="M43.1848 41.5227C42.3513 41.9884 42.1293 42.2506 42.1565 43.3493" stroke="#0062AD" stroke-width="1.5" stroke-miterlimit="10" stroke-linecap="round" stroke-linejoin="round"/>
<path d="M60.335 62.1765L60.489 73.7151" stroke="white" stroke-width="1.5" stroke-miterlimit="10" stroke-linecap="round" stroke-linejoin="round"/>
<path d="M88.8975 45.2574L88.9201 56.6423" stroke="white" stroke-width="1.5" stroke-miterlimit="10" stroke-linecap="round" stroke-linejoin="round"/>
<path d="M81.3281 40.1211L81.5592 51.9355" stroke="white" stroke-width="1.5" stroke-miterlimit="10" stroke-linecap="round" stroke-linejoin="round"/>
<path d="M74.2285 44.3214L74.4641 55.9098" stroke="white" stroke-width="1.5" stroke-miterlimit="10" stroke-linecap="round" stroke-linejoin="round"/>
<path d="M66.9717 48.4948L67.2027 60.1961" stroke="white" stroke-width="1.5" stroke-miterlimit="10" stroke-linecap="round" stroke-linejoin="round"/>
<path d="M59.4658 62.692L89.5093 44.8958" stroke="white" stroke-width="1.5" stroke-miterlimit="10" stroke-linecap="round" stroke-linejoin="round"/>
</g>
</svg>
