<svg width="220" height="140" viewBox="0 0 220 140" fill="none" xmlns="http://www.w3.org/2000/svg">
<mask id="mask0_276_1787" style="mask-type:alpha" maskUnits="userSpaceOnUse" x="0" y="0" width="220" height="140">
<rect width="220" height="140" fill="#D9D9D9"/>
</mask>
<g mask="url(#mask0_276_1787)">
<path d="M47.0098 117.525V15.5122L71.646 20.7635V92.9902L67.9397 95.1105C67.357 95.1318 65.5165 96.0423 65.5165 96.625L64.6078 96.9279C64.6291 97.4537 63.8936 97.3632 63.3962 97.5337L59.3345 119.949L47.0098 117.525Z" fill="#EBF0F6"/>
<path opacity="0.8" d="M113.677 74.9604V16.7415L71.6172 16.5994V20.7705L110.401 20.8132L110.416 74.8822" fill="#0156A3"/>
<path opacity="0.8" d="M10.9043 43.2037V114.611V114.988L58.5173 121.665V116.99L58.0981 116.869L13.768 110.476V46.9912L13.967 42.5784L10.9043 43.2037Z" fill="#0156A3"/>
<path opacity="0.8" d="M47.0094 10.5803V15.5118H43.8331H40.7988V10.9711L41.9713 11.0209L47.0094 10.5803Z" fill="#0156A3"/>
<path d="M47.002 15.512L71.6382 20.7704L71.6169 16.6277L47.002 10.5947V15.512Z" fill="#0156A3"/>
<path d="M109.996 20.9998H71.9961V119H109.996V20.9998Z" fill="white"/>
<path d="M13.7656 110.469V15.512H47.0072V115L13.7656 110.469Z" fill="white"/>
<path d="M91.0352 20.7705V74.5127" stroke="#0156A3" stroke-miterlimit="10"/>
<path d="M30.6797 112.679L30.6797 46.6467" stroke="#0156A3" stroke-miterlimit="10"/>
<path d="M110.27 50.9142H71.6205L47.0624 45.1086L32.4597 46.2527L30.7188 46.3238" stroke="#0156A3" stroke-miterlimit="10"/>
<path d="M25.3908 55.7673C24.5096 56.8545 23.4864 57.0251 22.6194 56.8901C21.6459 56.7409 20.8003 56.1582 20.2176 55.3694C17.4819 51.6885 5.16017 34.9683 2.59493 28.6085C1.42956 25.7164 0.996094 22.9379 0.996094 19.989C0.996094 8.95347 10.8165 0 22.9392 0C35.0619 0 44.8823 8.94637 44.8823 19.989C44.8823 23.343 44.5981 26.2919 43.0845 29.6317C40.0503 36.3255 27.3449 53.3584 25.3908 55.7673Z" fill="#0156A3"/>
<path d="M22.9388 33.9308C29.6575 33.9308 35.1041 28.4842 35.1041 21.7655C35.1041 15.0467 29.6575 9.6001 22.9388 9.6001C16.22 9.6001 10.7734 15.0467 10.7734 21.7655C10.7734 28.4842 16.22 33.9308 22.9388 33.9308Z" fill="white"/>
<path d="M22.9393 70.6187C25.3921 70.6187 27.3805 68.6303 27.3805 66.1775C27.3805 63.7247 25.3921 61.7363 22.9393 61.7363C20.4864 61.7363 18.498 63.7247 18.498 66.1775C18.498 68.6303 20.4864 70.6187 22.9393 70.6187Z" fill="#0156A3"/>
<path d="M96.8869 53.5112C96.4748 54.0157 95.9987 54.101 95.5936 54.037C95.1388 53.966 94.7409 53.696 94.4709 53.3264C93.1918 51.6068 87.4431 43.8045 86.2422 40.8342C85.6951 39.4841 85.4961 38.1837 85.4961 36.8123C85.4961 31.6605 90.0794 27.4822 95.7429 27.4822C101.406 27.4822 105.99 31.6605 105.99 36.8123C105.99 38.3756 105.855 39.7541 105.151 41.3174C103.73 44.4369 97.7965 52.3885 96.8869 53.5112Z" fill="#2361A9"/>
<path d="M95.7433 43.3211C98.8829 43.3211 101.428 40.776 101.428 37.6364C101.428 34.4968 98.8829 31.9517 95.7433 31.9517C92.6037 31.9517 90.0586 34.4968 90.0586 37.6364C90.0586 40.776 92.6037 43.3211 95.7433 43.3211Z" fill="white"/>
<path d="M95.7429 60.4465C96.8889 60.4465 97.8178 59.5175 97.8178 58.3716C97.8178 57.2256 96.8889 56.2966 95.7429 56.2966C94.597 56.2966 93.668 57.2256 93.668 58.3716C93.668 59.5175 94.597 60.4465 95.7429 60.4465Z" fill="#2361A9"/>
<path d="M58.0234 126.985V92.3922C58.0234 90.8402 59.2875 89.5874 60.8534 89.5874H95.2842V129.79H60.8534C59.2875 129.79 58.0234 128.537 58.0234 126.985Z" fill="white" stroke="#0156A3" stroke-width="2" stroke-miterlimit="10" stroke-linejoin="round"/>
<path d="M106.013 89.5874H95.2852V129.79H106.013C107.67 129.79 109.013 128.447 109.013 126.79V92.5874C109.013 90.9305 107.67 89.5874 106.013 89.5874Z" fill="#DBE0E6" stroke="#0156A3" stroke-width="2" stroke-miterlimit="10" stroke-linejoin="round"/>
<path d="M69.4756 92.3716H63.0527C61.9482 92.3716 61.0527 93.267 61.0527 94.3716V96.5689C61.0527 97.6735 61.9482 98.5689 63.0527 98.5689H69.4755C70.5801 98.5689 71.4755 97.6735 71.4755 96.5689V94.3716C71.4755 93.267 70.5801 92.3716 69.4756 92.3716Z" fill="#2361A9"/>
<path d="M84.9434 126.765V72.813C84.9434 71.1545 85.9438 69.8157 87.1832 69.8157H118.167V129.763H87.1832C85.9438 129.763 84.9434 128.424 84.9434 126.765Z" fill="white" stroke="#0156A3" stroke-width="2" stroke-miterlimit="10" stroke-linejoin="round"/>
<path d="M131.056 69.8157H118.166V129.763H131.056C132.712 129.763 134.056 128.42 134.056 126.763V72.8157C134.056 71.1588 132.712 69.8157 131.056 69.8157Z" fill="#DBE0E6" stroke="#0156A3" stroke-width="2" stroke-miterlimit="10" stroke-linejoin="round"/>
<path d="M104.774 102.226V70.5378H97.9434V102.226L99.1728 101.87L100.207 102.226L101.32 101.87L102.53 102.226L103.642 101.87L104.774 102.226Z" fill="#2361A9"/>
<path d="M114.393 126.991V92.5874C114.393 91.0438 115.66 89.7979 117.23 89.7979H151.754V129.781H117.23C115.66 129.781 114.393 128.535 114.393 126.991Z" fill="white" stroke="#0156A3" stroke-width="2" stroke-miterlimit="10" stroke-linejoin="round"/>
<path d="M162.382 89.7979H151.654V130H162.382C164.039 130 165.382 128.657 165.382 127V92.7979C165.382 91.141 164.039 89.7979 162.382 89.7979Z" fill="#DBE0E6" stroke="#0156A3" stroke-width="2" stroke-miterlimit="10" stroke-linejoin="round"/>
<path d="M136.299 102.478V90.4529H129.469V102.478L130.698 102.121L131.733 102.478L132.845 102.121L134.055 102.478L135.167 102.121L136.299 102.478Z" fill="#2361A9"/>
</g>
</svg>
