<svg width="17" height="10" viewBox="0 0 17 10" fill="none" xmlns="http://www.w3.org/2000/svg">
<path d="M8.44703 0.00127813C8.10005 0.013179 7.76929 0.157018 7.51752 0.405711L0.43552 7.46561C0.0701563 7.83024 -0.0799998 8.36948 0.0413056 8.88022C0.162827 9.39094 0.537283 9.7958 1.02398 9.94188C1.51067 10.0882 2.0355 9.95378 2.40088 9.58916L8.5 3.5126L14.5991 9.58916C14.9645 9.95379 15.4893 10.0882 15.976 9.94188C16.4627 9.79579 16.8371 9.39096 16.9587 8.88022C17.08 8.3695 16.9298 7.83027 16.5645 7.46561L9.48247 0.405711C9.20425 0.130548 8.83037 -0.0153415 8.44663 0.00127813L8.44703 0.00127813Z" fill="#2361A9"/>
</svg>
